# MagicaVoxel @ Ephtracy

# group
o 

# material
mtllib Anubis_75-3.mtl
usemtl palette

# normals
vn -1 0 0
vn 1 0 0
vn 0 0 1
vn 0 0 -1
vn 0 -1 0
vn 0 1 0

# texcoords
vt 0.818359 0.5
vt 0.923828 0.5

# verts
v 7.2 17.9 2.3
v 7.2 17.9 2.1
v 7.2 18.2 2.3
v 7.2 18.2 2.1
v 7.2 18.5 2.3
v 7.2 18.5 2.1
v 7.4 17.7 2.3
v 7.4 17.7 2.1
v 7.4 17.9 2.3
v 7.4 17.9 2.1
v 7.6 17.5 2.3
v 7.6 17.5 2.1
v 7.6 17.7 2.3
v 7.6 17.7 2.1
v 7.8 18.3 2.3
v 7.8 18.3 2.1
v 7.8 18.5 2.3
v 7.8 18.5 2.1
v 7.6 18.3 2.3
v 7.6 18.3 2.1
v 7.6 18.5 2.3
v 7.6 18.5 2.1
v 7.8 17.5 2.3
v 7.8 17.5 2.1
v 7.8 17.7 2.3
v 7.8 17.7 2.1
v 8 17.7 2.3
v 8 17.7 2.1
v 8 17.9 2.3
v 8 17.9 2.1
v 8.2 17.9 2.3
v 8.2 17.9 2.1
v 8.2 18.2 2.3
v 8.2 18.2 2.1
v 8.2 18.5 2.3
v 8.2 18.5 2.1
v 7.2 17.9 2.3
v 7.2 18.2 2.3
v 7.2 18.5 2.3
v 7.4 17.7 2.3
v 7.4 17.9 2.3
v 7.6 17.5 2.3
v 7.6 17.7 2.3
v 7.6 18.3 2.3
v 7.6 18.5 2.3
v 7.8 17.5 2.3
v 7.8 17.7 2.3
v 7.8 18.3 2.3
v 7.8 18.5 2.3
v 8 17.7 2.3
v 8 17.9 2.3
v 8.2 17.9 2.3
v 8.2 18.2 2.3
v 8.2 18.5 2.3
v 7.2 17.9 2.1
v 7.2 18.2 2.1
v 7.2 18.5 2.1
v 7.4 17.7 2.1
v 7.4 17.9 2.1
v 7.6 17.5 2.1
v 7.6 17.7 2.1
v 7.6 18.3 2.1
v 7.6 18.5 2.1
v 7.8 17.5 2.1
v 7.8 17.7 2.1
v 7.8 18.3 2.1
v 7.8 18.5 2.1
v 8 17.7 2.1
v 8 17.9 2.1
v 8.2 17.9 2.1
v 8.2 18.2 2.1
v 8.2 18.5 2.1
v 7.6 17.5 2.3
v 7.8 17.5 2.3
v 7.6 17.5 2.1
v 7.8 17.5 2.1
v 7.4 17.7 2.3
v 7.6 17.7 2.3
v 7.8 17.7 2.3
v 8 17.7 2.3
v 7.4 17.7 2.1
v 7.6 17.7 2.1
v 7.8 17.7 2.1
v 8 17.7 2.1
v 7.2 17.9 2.3
v 7.4 17.9 2.3
v 8 17.9 2.3
v 8.2 17.9 2.3
v 7.2 17.9 2.1
v 7.4 17.9 2.1
v 8 17.9 2.1
v 8.2 17.9 2.1
v 7.6 18.3 2.3
v 7.8 18.3 2.3
v 7.6 18.3 2.1
v 7.8 18.3 2.1
v 7.2 18.5 2.3
v 7.6 18.5 2.3
v 7.8 18.5 2.3
v 8.2 18.5 2.3
v 7.2 18.5 2.1
v 7.6 18.5 2.1
v 7.8 18.5 2.1
v 8.2 18.5 2.1

# faces
f 3/2/1 2/2/1 1/2/1
f 4/2/1 2/2/1 3/2/1
f 5/1/1 4/1/1 3/1/1
f 6/1/1 4/1/1 5/1/1
f 9/2/1 8/2/1 7/2/1
f 10/2/1 8/2/1 9/2/1
f 13/2/1 12/2/1 11/2/1
f 14/2/1 12/2/1 13/2/1
f 17/1/1 16/1/1 15/1/1
f 18/1/1 16/1/1 17/1/1
f 19/1/2 20/1/2 21/1/2
f 21/1/2 20/1/2 22/1/2
f 23/2/2 24/2/2 25/2/2
f 25/2/2 24/2/2 26/2/2
f 27/2/2 28/2/2 29/2/2
f 29/2/2 28/2/2 30/2/2
f 31/2/2 32/2/2 33/2/2
f 33/2/2 32/2/2 34/2/2
f 33/1/2 34/1/2 35/1/2
f 35/1/2 34/1/2 36/1/2
f 41/2/3 38/2/3 37/2/3
f 43/2/3 41/2/3 40/2/3
f 44/1/3 39/1/3 38/1/3
f 45/1/3 39/1/3 44/1/3
f 46/2/3 43/2/3 42/2/3
f 47/2/3 41/2/3 43/2/3
f 47/2/3 43/2/3 46/2/3
f 48/1/3 44/1/3 38/1/3
f 50/2/3 41/2/3 47/2/3
f 51/2/3 38/2/3 41/2/3
f 51/2/3 41/2/3 50/2/3
f 52/2/3 38/2/3 51/2/3
f 53/1/3 49/1/3 48/1/3
f 53/2/3 38/2/3 52/2/3
f 53/1/3 48/1/3 38/1/3
f 54/1/3 49/1/3 53/1/3
f 55/2/4 56/2/4 59/2/4
f 58/2/4 59/2/4 61/2/4
f 56/1/4 57/1/4 62/1/4
f 62/1/4 57/1/4 63/1/4
f 60/2/4 61/2/4 64/2/4
f 61/2/4 59/2/4 65/2/4
f 64/2/4 61/2/4 65/2/4
f 56/1/4 62/1/4 66/1/4
f 65/2/4 59/2/4 68/2/4
f 59/2/4 56/2/4 69/2/4
f 68/2/4 59/2/4 69/2/4
f 69/2/4 56/2/4 70/2/4
f 66/1/4 67/1/4 71/1/4
f 70/2/4 56/2/4 71/2/4
f 56/1/4 66/1/4 71/1/4
f 71/1/4 67/1/4 72/1/4
f 75/2/5 74/2/5 73/2/5
f 76/2/5 74/2/5 75/2/5
f 81/2/5 78/2/5 77/2/5
f 82/2/5 78/2/5 81/2/5
f 83/2/5 80/2/5 79/2/5
f 84/2/5 80/2/5 83/2/5
f 89/2/5 86/2/5 85/2/5
f 90/2/5 86/2/5 89/2/5
f 91/2/5 88/2/5 87/2/5
f 92/2/5 88/2/5 91/2/5
f 93/1/6 94/1/6 95/1/6
f 95/1/6 94/1/6 96/1/6
f 97/1/6 98/1/6 101/1/6
f 101/1/6 98/1/6 102/1/6
f 99/1/6 100/1/6 103/1/6
f 103/1/6 100/1/6 104/1/6
