# MagicaVoxel @ Ephtracy

# group
o 

# material
mtllib Gor-3.mtl
usemtl palette

# normals
vn -1 0 0
vn 1 0 0
vn 0 0 1
vn 0 0 -1
vn 0 -1 0
vn 0 1 0

# texcoords
vt 0.306641 0.5
vt 0.431641 0.5
vt 0.755859 0.5
vt 0.775391 0.5
vt 0.990234 0.5

# verts
v 0.7 0.9 -0.5
v 0.7 0.9 -1
v 0.7 1.2 -0.5
v 0.7 1.2 -1
v 0.7 1.3 -0.5
v 0.7 1.3 -1
v 0.7 1.4 -0.5
v 0.7 1.4 -1
v 0.7 1.9 -0.5
v 0.7 1.9 -1
v 0.7 2 -0.5
v 0.7 2 -1
v 0.7 2.1 -0.5
v 0.7 2.1 -1
v 0.7 2.3 -0.5
v 0.7 2.3 -1
v 0.8 0.7 -0.2
v 0.8 0.7 -0.3
v 0.8 0.8 0.2
v 0.8 0.8 -0.1
v 0.8 0.9 0.1
v 0.8 0.9 -0.1
v 0.8 0.9 -0.2
v 0.8 0.9 -0.3
v 0.8 0.9 -0.5
v 0.8 0.9 -1
v 0.8 0.9 -1.1
v 0.8 1 0.1
v 0.8 1 -0.1
v 0.8 1 -0.2
v 0.8 1 -0.3
v 0.8 1 -0.5
v 0.8 1 -1
v 0.8 1 -1.1
v 0.8 1.1 0.2
v 0.8 1.1 -0.1
v 0.8 1.1 -0.3
v 0.8 1.1 -0.5
v 0.8 1.2 -0.2
v 0.8 1.2 -0.3
v 1 0.8 -0.5
v 1 0.8 -0.6
v 1 0.8 -0.7
v 1 0.8 -0.8
v 1 0.8 -0.9
v 1 0.8 -1
v 1 0.9 -0.5
v 1 0.9 -0.6
v 1 0.9 -0.7
v 1 0.9 -0.8
v 1 0.9 -0.9
v 1 0.9 -1
v 0.9 0.7 -0.2
v 0.9 0.7 -0.3
v 0.9 0.8 0.2
v 0.9 0.8 -0.1
v 0.9 0.9 0.1
v 0.9 0.9 -0.1
v 0.9 0.9 -0.2
v 0.9 0.9 -0.3
v 0.9 0.9 -0.5
v 0.9 0.9 -1
v 0.9 0.9 -1.1
v 0.9 1 0.1
v 0.9 1 -0.1
v 0.9 1 -0.2
v 0.9 1 -0.3
v 0.9 1 -0.5
v 0.9 1 -1
v 0.9 1 -1.1
v 0.9 1.1 0.2
v 0.9 1.1 -0.1
v 0.9 1.1 -0.3
v 0.9 1.1 -0.5
v 0.9 1.2 -0.2
v 0.9 1.2 -0.3
v 1.1 0.8 -0.5
v 1.1 0.8 -0.6
v 1.1 0.8 -0.7
v 1.1 0.8 -0.8
v 1.1 0.8 -0.9
v 1.1 0.8 -1
v 1.1 0.9 -0.6
v 1.1 0.9 -0.7
v 1.1 0.9 -0.8
v 1.1 0.9 -0.9
v 1.1 1.2 -0.5
v 1.1 1.2 -1
v 1.1 1.3 -0.5
v 1.1 1.3 -1
v 1.1 1.4 -0.5
v 1.1 1.4 -1
v 1.1 1.9 -0.5
v 1.1 1.9 -1
v 1.1 2 -0.5
v 1.1 2 -1
v 1.1 2.1 -0.5
v 1.1 2.1 -1
v 1.1 2.3 -0.5
v 1.1 2.3 -1
v 0.8 0.8 0.2
v 0.8 1.1 0.2
v 0.9 0.8 0.2
v 0.9 1.1 0.2
v 0.8 0.9 -0.1
v 0.8 1 -0.1
v 0.9 0.9 -0.1
v 0.9 1 -0.1
v 0.8 0.7 -0.2
v 0.8 0.9 -0.2
v 0.8 1 -0.2
v 0.8 1.2 -0.2
v 0.9 0.7 -0.2
v 0.9 0.9 -0.2
v 0.9 1 -0.2
v 0.9 1.2 -0.2
v 0.7 0.9 -0.5
v 0.7 1.2 -0.5
v 0.7 1.3 -0.5
v 0.7 1.4 -0.5
v 0.7 1.9 -0.5
v 0.7 2 -0.5
v 0.7 2.1 -0.5
v 0.7 2.3 -0.5
v 0.8 0.9 -0.5
v 0.8 1 -0.5
v 0.8 1.1 -0.5
v 0.9 0.9 -0.5
v 0.9 1 -0.5
v 0.9 1.1 -0.5
v 1 0.8 -0.5
v 1 0.9 -0.5
v 1.1 0.8 -0.5
v 1.1 1.2 -0.5
v 1.1 1.3 -0.5
v 1.1 1.4 -0.5
v 1.1 1.9 -0.5
v 1.1 2 -0.5
v 1.1 2.1 -0.5
v 1.1 2.3 -0.5
v 1 0.8 -0.7
v 1 0.9 -0.7
v 1.1 0.8 -0.7
v 1.1 0.9 -0.7
v 1 0.8 -0.9
v 1 0.9 -0.9
v 1.1 0.8 -0.9
v 1.1 0.9 -0.9
v 0.8 0.9 0.1
v 0.8 1 0.1
v 0.9 0.9 0.1
v 0.9 1 0.1
v 0.8 0.8 -0.1
v 0.8 0.9 -0.1
v 0.8 1 -0.1
v 0.8 1.1 -0.1
v 0.9 0.8 -0.1
v 0.9 0.9 -0.1
v 0.9 1 -0.1
v 0.9 1.1 -0.1
v 0.8 0.7 -0.3
v 0.8 0.9 -0.3
v 0.8 1.1 -0.3
v 0.8 1.2 -0.3
v 0.9 0.7 -0.3
v 0.9 0.9 -0.3
v 0.9 1.1 -0.3
v 0.9 1.2 -0.3
v 1 0.8 -0.6
v 1 0.9 -0.6
v 1.1 0.8 -0.6
v 1.1 0.9 -0.6
v 1 0.8 -0.8
v 1 0.9 -0.8
v 1.1 0.8 -0.8
v 1.1 0.9 -0.8
v 0.7 0.9 -1
v 0.7 1.2 -1
v 0.7 1.3 -1
v 0.7 1.4 -1
v 0.7 1.9 -1
v 0.7 2 -1
v 0.7 2.1 -1
v 0.7 2.3 -1
v 0.8 0.9 -1
v 0.8 1 -1
v 0.9 0.9 -1
v 0.9 1 -1
v 1 0.8 -1
v 1 0.9 -1
v 1.1 0.8 -1
v 1.1 1.2 -1
v 1.1 1.3 -1
v 1.1 1.4 -1
v 1.1 1.9 -1
v 1.1 2 -1
v 1.1 2.1 -1
v 1.1 2.3 -1
v 0.8 0.9 -1.1
v 0.8 1 -1.1
v 0.9 0.9 -1.1
v 0.9 1 -1.1
v 0.8 0.7 -0.2
v 0.9 0.7 -0.2
v 0.8 0.7 -0.3
v 0.9 0.7 -0.3
v 0.8 0.8 0.2
v 0.9 0.8 0.2
v 0.8 0.8 -0.1
v 0.9 0.8 -0.1
v 1 0.8 -0.5
v 1.1 0.8 -0.5
v 1 0.8 -0.6
v 1.1 0.8 -0.6
v 1 0.8 -0.7
v 1.1 0.8 -0.7
v 1 0.8 -0.8
v 1.1 0.8 -0.8
v 1 0.8 -0.9
v 1.1 0.8 -0.9
v 1 0.8 -1
v 1.1 0.8 -1
v 0.8 0.9 -0.1
v 0.9 0.9 -0.1
v 0.8 0.9 -0.2
v 0.9 0.9 -0.2
v 0.8 0.9 -0.3
v 0.9 0.9 -0.3
v 0.7 0.9 -0.5
v 0.8 0.9 -0.5
v 0.9 0.9 -0.5
v 1 0.9 -0.5
v 1 0.9 -0.6
v 1.1 0.9 -0.6
v 1 0.9 -0.7
v 1.1 0.9 -0.7
v 1 0.9 -0.8
v 1.1 0.9 -0.8
v 1 0.9 -0.9
v 1.1 0.9 -0.9
v 0.7 0.9 -1
v 0.8 0.9 -1
v 0.9 0.9 -1
v 1 0.9 -1
v 0.8 0.9 -1.1
v 0.9 0.9 -1.1
v 0.8 1 0.1
v 0.9 1 0.1
v 0.8 1 -0.1
v 0.9 1 -0.1
v 0.8 0.9 0.1
v 0.9 0.9 0.1
v 0.8 0.9 -0.1
v 0.9 0.9 -0.1
v 0.8 1 -0.1
v 0.9 1 -0.1
v 0.8 1 -0.2
v 0.9 1 -0.2
v 0.8 1 -1
v 0.9 1 -1
v 0.8 1 -1.1
v 0.9 1 -1.1
v 0.8 1.1 0.2
v 0.9 1.1 0.2
v 0.8 1.1 -0.1
v 0.9 1.1 -0.1
v 0.8 1.1 -0.3
v 0.9 1.1 -0.3
v 0.8 1.1 -0.5
v 0.9 1.1 -0.5
v 0.8 1.2 -0.2
v 0.9 1.2 -0.2
v 0.8 1.2 -0.3
v 0.9 1.2 -0.3
v 0.7 2.3 -0.5
v 1.1 2.3 -0.5
v 0.7 2.3 -1
v 1.1 2.3 -1

# faces
f 3/1/1 2/1/1 1/1/1
f 4/1/1 2/1/1 3/1/1
f 5/4/1 4/4/1 3/4/1
f 6/4/1 4/4/1 5/4/1
f 7/3/1 6/3/1 5/3/1
f 8/3/1 6/3/1 7/3/1
f 9/1/1 8/1/1 7/1/1
f 10/1/1 8/1/1 9/1/1
f 11/2/1 10/2/1 9/2/1
f 12/2/1 10/2/1 11/2/1
f 13/4/1 12/4/1 11/4/1
f 14/4/1 12/4/1 13/4/1
f 15/1/1 14/1/1 13/1/1
f 16/1/1 14/1/1 15/1/1
f 21/5/1 20/5/1 19/5/1
f 22/5/1 20/5/1 21/5/1
f 23/5/1 18/5/1 17/5/1
f 24/5/1 18/5/1 23/5/1
f 28/5/1 21/5/1 19/5/1
f 29/5/1 25/5/1 24/5/1
f 29/5/1 23/5/1 22/5/1
f 29/5/1 24/5/1 23/5/1
f 30/5/1 25/5/1 29/5/1
f 31/5/1 25/5/1 30/5/1
f 32/5/1 25/5/1 31/5/1
f 33/5/1 27/5/1 26/5/1
f 34/5/1 27/5/1 33/5/1
f 35/5/1 28/5/1 19/5/1
f 35/5/1 29/5/1 28/5/1
f 36/5/1 29/5/1 35/5/1
f 37/1/1 32/1/1 31/1/1
f 37/5/1 31/5/1 30/5/1
f 38/1/1 32/1/1 37/1/1
f 39/5/1 37/5/1 30/5/1
f 40/5/1 37/5/1 39/5/1
f 47/1/1 42/1/1 41/1/1
f 48/1/1 42/1/1 47/1/1
f 49/1/1 44/1/1 43/1/1
f 50/1/1 44/1/1 49/1/1
f 51/1/1 46/1/1 45/1/1
f 52/1/1 46/1/1 51/1/1
f 55/5/2 56/5/2 57/5/2
f 57/5/2 56/5/2 58/5/2
f 53/5/2 54/5/2 59/5/2
f 59/5/2 54/5/2 60/5/2
f 55/5/2 57/5/2 64/5/2
f 60/5/2 61/5/2 65/5/2
f 58/5/2 59/5/2 65/5/2
f 59/5/2 60/5/2 65/5/2
f 65/5/2 61/5/2 66/5/2
f 66/5/2 61/5/2 67/5/2
f 67/5/2 61/5/2 68/5/2
f 62/5/2 63/5/2 69/5/2
f 69/5/2 63/5/2 70/5/2
f 55/5/2 64/5/2 71/5/2
f 64/5/2 65/5/2 71/5/2
f 71/5/2 65/5/2 72/5/2
f 67/1/2 68/1/2 73/1/2
f 66/5/2 67/5/2 73/5/2
f 73/1/2 68/1/2 74/1/2
f 66/5/2 73/5/2 75/5/2
f 75/5/2 73/5/2 76/5/2
f 77/1/2 78/1/2 83/1/2
f 79/1/2 80/1/2 84/1/2
f 84/1/2 80/1/2 85/1/2
f 81/1/2 82/1/2 86/1/2
f 84/1/2 85/1/2 87/1/2
f 85/1/2 86/1/2 87/1/2
f 77/1/2 83/1/2 87/1/2
f 83/1/2 84/1/2 87/1/2
f 86/1/2 82/1/2 88/1/2
f 87/1/2 86/1/2 88/1/2
f 87/4/2 88/4/2 89/4/2
f 89/4/2 88/4/2 90/4/2
f 89/3/2 90/3/2 91/3/2
f 91/3/2 90/3/2 92/3/2
f 91/1/2 92/1/2 93/1/2
f 93/1/2 92/1/2 94/1/2
f 93/2/2 94/2/2 95/2/2
f 95/2/2 94/2/2 96/2/2
f 95/4/2 96/4/2 97/4/2
f 97/4/2 96/4/2 98/4/2
f 97/1/2 98/1/2 99/1/2
f 99/1/2 98/1/2 100/1/2
f 103/5/3 102/5/3 101/5/3
f 104/5/3 102/5/3 103/5/3
f 107/5/3 106/5/3 105/5/3
f 108/5/3 106/5/3 107/5/3
f 113/5/3 110/5/3 109/5/3
f 114/5/3 110/5/3 113/5/3
f 115/5/3 112/5/3 111/5/3
f 116/5/3 112/5/3 115/5/3
f 125/1/3 118/1/3 117/1/3
f 126/1/3 118/1/3 125/1/3
f 127/1/3 118/1/3 126/1/3
f 130/1/3 118/1/3 127/1/3
f 132/1/3 129/1/3 128/1/3
f 132/1/3 130/1/3 129/1/3
f 133/1/3 132/1/3 131/1/3
f 134/4/3 119/4/3 118/4/3
f 134/1/3 132/1/3 133/1/3
f 134/1/3 118/1/3 130/1/3
f 134/1/3 130/1/3 132/1/3
f 135/3/3 120/3/3 119/3/3
f 135/4/3 119/4/3 134/4/3
f 136/1/3 121/1/3 120/1/3
f 136/3/3 120/3/3 135/3/3
f 137/2/3 122/2/3 121/2/3
f 137/1/3 121/1/3 136/1/3
f 138/4/3 123/4/3 122/4/3
f 138/2/3 122/2/3 137/2/3
f 139/1/3 124/1/3 123/1/3
f 139/4/3 123/4/3 138/4/3
f 140/1/3 124/1/3 139/1/3
f 143/1/3 142/1/3 141/1/3
f 144/1/3 142/1/3 143/1/3
f 147/1/3 146/1/3 145/1/3
f 148/1/3 146/1/3 147/1/3
f 149/5/4 150/5/4 151/5/4
f 151/5/4 150/5/4 152/5/4
f 153/5/4 154/5/4 157/5/4
f 157/5/4 154/5/4 158/5/4
f 155/5/4 156/5/4 159/5/4
f 159/5/4 156/5/4 160/5/4
f 161/5/4 162/5/4 165/5/4
f 165/5/4 162/5/4 166/5/4
f 163/5/4 164/5/4 167/5/4
f 167/5/4 164/5/4 168/5/4
f 169/1/4 170/1/4 171/1/4
f 171/1/4 170/1/4 172/1/4
f 173/1/4 174/1/4 175/1/4
f 175/1/4 174/1/4 176/1/4
f 177/1/4 178/1/4 185/1/4
f 185/1/4 178/1/4 186/1/4
f 186/1/4 178/1/4 188/1/4
f 187/1/4 188/1/4 190/1/4
f 189/1/4 190/1/4 191/1/4
f 178/4/4 179/4/4 192/4/4
f 191/1/4 190/1/4 192/1/4
f 188/1/4 178/1/4 192/1/4
f 190/1/4 188/1/4 192/1/4
f 179/3/4 180/3/4 193/3/4
f 192/4/4 179/4/4 193/4/4
f 180/1/4 181/1/4 194/1/4
f 193/3/4 180/3/4 194/3/4
f 181/2/4 182/2/4 195/2/4
f 194/1/4 181/1/4 195/1/4
f 182/4/4 183/4/4 196/4/4
f 195/2/4 182/2/4 196/2/4
f 183/1/4 184/1/4 197/1/4
f 196/4/4 183/4/4 197/4/4
f 197/1/4 184/1/4 198/1/4
f 199/5/4 200/5/4 201/5/4
f 201/5/4 200/5/4 202/5/4
f 205/5/5 204/5/5 203/5/5
f 206/5/5 204/5/5 205/5/5
f 209/5/5 208/5/5 207/5/5
f 210/5/5 208/5/5 209/5/5
f 213/1/5 212/1/5 211/1/5
f 214/1/5 212/1/5 213/1/5
f 217/1/5 216/1/5 215/1/5
f 218/1/5 216/1/5 217/1/5
f 221/1/5 220/1/5 219/1/5
f 222/1/5 220/1/5 221/1/5
f 225/5/5 224/5/5 223/5/5
f 226/5/5 224/5/5 225/5/5
f 230/5/5 228/5/5 227/5/5
f 231/5/5 228/5/5 230/5/5
f 233/1/5 231/1/5 230/1/5
f 233/1/5 232/1/5 231/1/5
f 233/1/5 230/1/5 229/1/5
f 235/1/5 233/1/5 229/1/5
f 235/1/5 234/1/5 233/1/5
f 236/1/5 234/1/5 235/1/5
f 237/1/5 235/1/5 229/1/5
f 239/1/5 237/1/5 229/1/5
f 239/1/5 238/1/5 237/1/5
f 240/1/5 238/1/5 239/1/5
f 241/1/5 239/1/5 229/1/5
f 242/1/5 239/1/5 241/1/5
f 243/1/5 239/1/5 242/1/5
f 244/1/5 239/1/5 243/1/5
f 245/5/5 243/5/5 242/5/5
f 246/5/5 243/5/5 245/5/5
f 249/5/5 248/5/5 247/5/5
f 250/5/5 248/5/5 249/5/5
f 251/5/6 252/5/6 253/5/6
f 253/5/6 252/5/6 254/5/6
f 255/5/6 256/5/6 257/5/6
f 257/5/6 256/5/6 258/5/6
f 259/5/6 260/5/6 261/5/6
f 261/5/6 260/5/6 262/5/6
f 263/5/6 264/5/6 265/5/6
f 265/5/6 264/5/6 266/5/6
f 267/1/6 268/1/6 269/1/6
f 269/1/6 268/1/6 270/1/6
f 271/5/6 272/5/6 273/5/6
f 273/5/6 272/5/6 274/5/6
f 275/1/6 276/1/6 277/1/6
f 277/1/6 276/1/6 278/1/6
