# MagicaVoxel @ Ephtracy

# group
o 

# material
mtllib Set-0.mtl
usemtl palette

# normals
vn -1 0 0
vn 1 0 0
vn 0 0 1
vn 0 0 -1
vn 0 -1 0
vn 0 1 0

# texcoords
vt 0.435547 0.5
vt 0.873047 0.5
vt 0.927734 0.5
vt 0.994141 0.5

# verts
v 0.1 0 0
v 0.1 0 -0.7
v 0.1 0.3 0
v 0.1 0.3 -0.2
v 0.1 0.3 -0.7
v 0.1 0.4 -0.2
v 0.1 0.4 -0.7
v 0.1 0.5 -0.2
v 0.1 0.5 -0.7
v 0.1 0.9 -0.2
v 0.1 0.9 -0.7
v 0.6 0 0
v 0.6 0 -0.7
v 0.6 0.3 0
v 0.6 0.3 -0.2
v 0.6 0.3 -0.7
v 0.6 0.4 -0.2
v 0.6 0.4 -0.7
v 0.6 0.5 -0.2
v 0.6 0.5 -0.7
v 0.6 0.9 -0.2
v 0.6 0.9 -0.7
v 0.1 0 0
v 0.1 0.3 0
v 0.6 0 0
v 0.6 0.3 0
v 0.1 0.3 -0.2
v 0.1 0.4 -0.2
v 0.1 0.5 -0.2
v 0.1 0.9 -0.2
v 0.6 0.3 -0.2
v 0.6 0.4 -0.2
v 0.6 0.5 -0.2
v 0.6 0.9 -0.2
v 0.1 0 -0.7
v 0.1 0.3 -0.7
v 0.1 0.4 -0.7
v 0.1 0.5 -0.7
v 0.1 0.9 -0.7
v 0.6 0 -0.7
v 0.6 0.3 -0.7
v 0.6 0.4 -0.7
v 0.6 0.5 -0.7
v 0.6 0.9 -0.7
v 0.1 0 0
v 0.6 0 0
v 0.1 0 -0.7
v 0.6 0 -0.7
v 0.1 0.3 0
v 0.6 0.3 0
v 0.1 0.3 -0.2
v 0.6 0.3 -0.2
v 0.1 0.9 -0.2
v 0.6 0.9 -0.2
v 0.1 0.9 -0.7
v 0.6 0.9 -0.7

# faces
f 3/4/1 2/4/1 1/4/1
f 4/4/1 2/4/1 3/4/1
f 5/4/1 2/4/1 4/4/1
f 6/1/1 5/1/1 4/1/1
f 7/1/1 5/1/1 6/1/1
f 8/2/1 7/2/1 6/2/1
f 9/2/1 7/2/1 8/2/1
f 10/3/1 9/3/1 8/3/1
f 11/3/1 9/3/1 10/3/1
f 12/4/2 13/4/2 14/4/2
f 14/4/2 13/4/2 15/4/2
f 15/4/2 13/4/2 16/4/2
f 15/1/2 16/1/2 17/1/2
f 17/1/2 16/1/2 18/1/2
f 17/2/2 18/2/2 19/2/2
f 19/2/2 18/2/2 20/2/2
f 19/3/2 20/3/2 21/3/2
f 21/3/2 20/3/2 22/3/2
f 25/4/3 24/4/3 23/4/3
f 26/4/3 24/4/3 25/4/3
f 31/1/3 28/1/3 27/1/3
f 32/2/3 29/2/3 28/2/3
f 32/1/3 28/1/3 31/1/3
f 33/3/3 30/3/3 29/3/3
f 33/2/3 29/2/3 32/2/3
f 34/3/3 30/3/3 33/3/3
f 35/4/4 36/4/4 40/4/4
f 36/1/4 37/1/4 41/1/4
f 40/4/4 36/4/4 41/4/4
f 37/2/4 38/2/4 42/2/4
f 41/1/4 37/1/4 42/1/4
f 38/3/4 39/3/4 43/3/4
f 42/2/4 38/2/4 43/2/4
f 43/3/4 39/3/4 44/3/4
f 47/4/5 46/4/5 45/4/5
f 48/4/5 46/4/5 47/4/5
f 49/4/6 50/4/6 51/4/6
f 51/4/6 50/4/6 52/4/6
f 53/3/6 54/3/6 55/3/6
f 55/3/6 54/3/6 56/3/6
