# MagicaVoxel @ Ephtracy

# group
o 

# material
mtllib Mummy-3.mtl
usemtl palette

# normals
vn -1 0 0
vn 1 0 0
vn 0 0 1
vn 0 0 -1
vn 0 -1 0
vn 0 1 0

# texcoords
vt 0.412109 0.5
vt 0.416016 0.5
vt 0.419922 0.5
vt 0.927734 0.5

# verts
v 0 0 0.7
v 0 0 0.4
v 0 0 -0.1
v 0 0.2 0.4
v 0 0.2 -0.1
v 0 0.3 0.7
v 0 0.3 0.4
v 0 0.3 -0.1
v 0 0.5 0.4
v 0 0.5 -0.1
v 0 0.6 0.4
v 0 0.6 -0.1
v 0 0.7 0.4
v 0 0.7 -0.1
v 0.4 0 0.7
v 0.4 0 0.4
v 0.4 0 0.1
v 0.4 0 0
v 0.4 0 -0.1
v 0.4 0.1 0.2
v 0.4 0.1 0.1
v 0.4 0.1 0
v 0.4 0.2 0.4
v 0.4 0.2 0.2
v 0.4 0.2 0.1
v 0.4 0.2 -0.1
v 0.4 0.3 0.7
v 0.4 0.3 0.4
v 0.4 0.3 -0.1
v 0.4 0.5 0.4
v 0.4 0.5 -0.1
v 0.4 0.6 0.4
v 0.4 0.6 0.3
v 0.4 0.6 -0.1
v 0.4 0.7 0.4
v 0.4 0.7 0.3
v 0.4 0.7 -0.1
v 0 0 0.7
v 0 0.3 0.7
v 0.4 0 0.7
v 0.4 0.3 0.7
v 0 0.3 0.4
v 0 0.5 0.4
v 0 0.6 0.4
v 0 0.7 0.4
v 0.1 0.3 0.4
v 0.1 0.4 0.4
v 0.3 0.3 0.4
v 0.3 0.4 0.4
v 0.3 0.6 0.4
v 0.3 0.7 0.4
v 0.4 0.3 0.4
v 0.4 0.5 0.4
v 0.4 0.6 0.4
v 0.4 0.7 0.4
v 0 0 -0.1
v 0 0.2 -0.1
v 0 0.3 -0.1
v 0 0.5 -0.1
v 0 0.6 -0.1
v 0 0.7 -0.1
v 0.4 0 -0.1
v 0.4 0.2 -0.1
v 0.4 0.3 -0.1
v 0.4 0.5 -0.1
v 0.4 0.6 -0.1
v 0.4 0.7 -0.1
v 0 0 0.7
v 0.4 0 0.7
v 0 0 0.4
v 0.4 0 0.4
v 0.3 0 0.1
v 0.4 0 0.1
v 0.3 0 0
v 0.4 0 0
v 0 0 -0.1
v 0.4 0 -0.1
v 0 0.3 0.7
v 0.4 0.3 0.7
v 0 0.3 0.4
v 0.1 0.3 0.4
v 0.3 0.3 0.4
v 0.4 0.3 0.4
v 0 0.7 0.4
v 0.3 0.7 0.4
v 0.4 0.7 0.4
v 0.3 0.7 0.3
v 0.4 0.7 0.3
v 0 0.7 -0.1
v 0.4 0.7 -0.1

# faces
f 4/4/1 2/4/1 1/4/1
f 4/2/1 3/2/1 2/2/1
f 5/2/1 3/2/1 4/2/1
f 6/4/1 4/4/1 1/4/1
f 7/1/1 5/1/1 4/1/1
f 7/4/1 4/4/1 6/4/1
f 8/1/1 5/1/1 7/1/1
f 9/2/1 8/2/1 7/2/1
f 10/2/1 8/2/1 9/2/1
f 11/1/1 10/1/1 9/1/1
f 12/1/1 10/1/1 11/1/1
f 13/2/1 12/2/1 11/2/1
f 14/2/1 12/2/1 13/2/1
f 16/2/2 17/2/2 20/2/2
f 17/3/2 18/3/2 21/3/2
f 20/2/2 17/2/2 21/2/2
f 18/2/2 19/2/2 22/2/2
f 21/3/2 18/3/2 22/3/2
f 15/4/2 16/4/2 23/4/2
f 16/2/2 20/2/2 23/2/2
f 20/3/2 21/3/2 24/3/2
f 23/2/2 20/2/2 24/2/2
f 21/2/2 22/2/2 25/2/2
f 24/3/2 21/3/2 25/3/2
f 22/2/2 19/2/2 26/2/2
f 25/2/2 22/2/2 26/2/2
f 15/4/2 23/4/2 27/4/2
f 24/1/2 25/1/2 28/1/2
f 27/4/2 23/4/2 28/4/2
f 23/1/2 24/1/2 28/1/2
f 25/1/2 26/1/2 28/1/2
f 28/1/2 26/1/2 29/1/2
f 28/2/2 29/2/2 30/2/2
f 30/2/2 29/2/2 31/2/2
f 30/1/2 31/1/2 32/1/2
f 32/1/2 31/1/2 33/1/2
f 33/1/2 31/1/2 34/1/2
f 32/3/2 33/3/2 35/3/2
f 33/2/2 34/2/2 36/2/2
f 35/3/2 33/3/2 36/3/2
f 36/2/2 34/2/2 37/2/2
f 40/4/3 39/4/3 38/4/3
f 41/4/3 39/4/3 40/4/3
f 46/2/3 43/2/3 42/2/3
f 47/2/3 43/2/3 46/2/3
f 48/3/3 47/3/3 46/3/3
f 49/2/3 43/2/3 47/2/3
f 49/3/3 47/3/3 48/3/3
f 50/2/3 45/2/3 44/2/3
f 50/1/3 44/1/3 43/1/3
f 51/2/3 45/2/3 50/2/3
f 52/2/3 49/2/3 48/2/3
f 53/2/3 43/2/3 49/2/3
f 53/2/3 49/2/3 52/2/3
f 53/1/3 50/1/3 43/1/3
f 54/3/3 51/3/3 50/3/3
f 54/1/3 50/1/3 53/1/3
f 55/3/3 51/3/3 54/3/3
f 56/2/4 57/2/4 62/2/4
f 57/1/4 58/1/4 63/1/4
f 62/2/4 57/2/4 63/2/4
f 58/2/4 59/2/4 64/2/4
f 63/1/4 58/1/4 64/1/4
f 59/1/4 60/1/4 65/1/4
f 64/2/4 59/2/4 65/2/4
f 60/2/4 61/2/4 66/2/4
f 65/1/4 60/1/4 66/1/4
f 66/2/4 61/2/4 67/2/4
f 70/4/5 69/4/5 68/4/5
f 71/4/5 69/4/5 70/4/5
f 72/2/5 71/2/5 70/2/5
f 73/2/5 71/2/5 72/2/5
f 74/2/5 72/2/5 70/2/5
f 74/3/5 73/3/5 72/3/5
f 75/3/5 73/3/5 74/3/5
f 76/2/5 74/2/5 70/2/5
f 76/2/5 75/2/5 74/2/5
f 77/2/5 75/2/5 76/2/5
f 78/4/6 79/4/6 80/4/6
f 80/4/6 79/4/6 81/4/6
f 81/4/6 79/4/6 82/4/6
f 82/4/6 79/4/6 83/4/6
f 84/2/6 85/2/6 87/2/6
f 85/3/6 86/3/6 87/3/6
f 87/3/6 86/3/6 88/3/6
f 84/2/6 87/2/6 89/2/6
f 87/2/6 88/2/6 89/2/6
f 89/2/6 88/2/6 90/2/6
