# MagicaVoxel @ Ephtracy

# group
o 

# material
mtllib Mummy-4.mtl
usemtl palette

# normals
vn -1 0 0
vn 1 0 0
vn 0 0 1
vn 0 0 -1
vn 0 -1 0
vn 0 1 0

# texcoords
vt 0.412109 0.5
vt 0.416016 0.5
vt 0.419922 0.5
vt 0.560547 0.5
vt 0.900391 0.5
vt 0.916016 0.5
vt 0.927734 0.5

# verts
v -0.7 0.7 0.7
v -0.7 0.7 -0.5
v -0.7 0.8 0.7
v -0.7 0.8 -0.5
v -0.7 1 0.7
v -0.7 1 -0.5
v -0.7 1.1 0.7
v -0.7 1.1 -0.5
v -0.7 1.2 0.3
v -0.7 1.2 0.2
v -0.7 1.3 0.7
v -0.7 1.3 0.3
v -0.7 1.3 0.2
v -0.7 1.3 -0.5
v -0.7 1.4 0.7
v -0.7 1.4 -0.5
v -0.7 1.6 0.7
v -0.7 1.6 -0.5
v -0.7 1.7 0.7
v -0.7 1.7 -0.5
v -0.7 1.9 0.7
v -0.7 1.9 -0.5
v -0.7 2 0.7
v -0.7 2 -0.5
v -0.7 2.2 0.7
v -0.7 2.2 -0.5
v -0.7 2.3 0.7
v -0.7 2.3 -0.5
v -0.7 2.5 0.7
v -0.7 2.5 -0.5
v -0.7 2.6 0.7
v -0.7 2.6 -0.5
v -0.7 2.7 0.7
v -0.7 2.7 0.6
v -0.7 2.7 -0.1
v -0.7 2.7 -0.2
v -0.7 2.8 0.7
v -0.7 2.8 0.6
v -0.7 2.8 -0.1
v -0.7 2.8 -0.2
v -0.7 2.8 -0.5
v -0.2 1.8 0.6
v -0.2 1.8 0.5
v -0.2 1.9 0.6
v -0.2 1.9 0.5
v 0 1.7 0.6
v 0 1.7 0.5
v 0 1.8 0.6
v 0 1.8 0.5
v 0.2 1.6 0.7
v 0.2 1.6 0.6
v 0.2 1.7 0.7
v 0.2 1.7 0.6
v 0.2 1.7 0.5
v 0.2 1.9 0.7
v 0.2 1.9 0.6
v 0.2 1.9 0.5
v 0.2 2 0.7
v 0.2 2 0.6
v 0.3 2.1 0.7
v 0.3 2.1 0.6
v 0.3 2.2 0.7
v 0.3 2.2 0.6
v 0.3 2.3 0.7
v 0.3 2.3 0.6
v 0.3 2.4 0.7
v 0.3 2.4 0.6
v -0.5 2.1 0.7
v -0.5 2.1 0.6
v -0.5 2.2 0.7
v -0.5 2.2 0.6
v -0.5 2.3 0.7
v -0.5 2.3 0.6
v -0.5 2.4 0.7
v -0.5 2.4 0.6
v -0.4 1.6 0.7
v -0.4 1.6 0.6
v -0.4 1.7 0.7
v -0.4 1.7 0.6
v -0.4 1.7 0.5
v -0.4 1.8 0.6
v -0.4 1.8 0.5
v -0.4 1.9 0.7
v -0.4 1.9 0.6
v -0.4 2 0.7
v -0.4 2 0.6
v -0.3 1.8 0.6
v -0.3 1.8 0.5
v -0.3 1.9 0.6
v -0.3 1.9 0.5
v -0.1 1.8 0.6
v -0.1 1.8 0.5
v -0.1 1.9 0.6
v -0.1 1.9 0.5
v 0.1 1.7 0.6
v 0.1 1.7 0.5
v 0.1 1.8 0.6
v 0.1 1.8 0.5
v 0.5 0.7 0.7
v 0.5 0.7 -0.5
v 0.5 0.8 0.7
v 0.5 0.8 0.2
v 0.5 0.8 0
v 0.5 0.8 -0.5
v 0.5 0.9 0.2
v 0.5 0.9 0
v 0.5 1 0.7
v 0.5 1 -0.5
v 0.5 1.1 0.7
v 0.5 1.1 0.3
v 0.5 1.1 0.2
v 0.5 1.1 -0.5
v 0.5 1.2 0.3
v 0.5 1.2 0.2
v 0.5 1.2 -0.1
v 0.5 1.2 -0.2
v 0.5 1.3 0.7
v 0.5 1.3 -0.1
v 0.5 1.3 -0.2
v 0.5 1.3 -0.5
v 0.5 1.4 0.7
v 0.5 1.4 -0.5
v 0.5 1.6 0.7
v 0.5 1.6 -0.5
v 0.5 1.7 0.7
v 0.5 1.7 -0.5
v 0.5 1.9 0.7
v 0.5 1.9 -0.5
v 0.5 2 0.7
v 0.5 2 -0.3
v 0.5 2 -0.5
v 0.5 2.1 0.6
v 0.5 2.1 0.5
v 0.5 2.1 -0.3
v 0.5 2.1 -0.5
v 0.5 2.2 0.7
v 0.5 2.2 0.6
v 0.5 2.2 0.5
v 0.5 2.2 -0.5
v 0.5 2.3 0.7
v 0.5 2.3 -0.1
v 0.5 2.3 -0.2
v 0.5 2.3 -0.5
v 0.5 2.4 0.3
v 0.5 2.4 0.2
v 0.5 2.4 -0.1
v 0.5 2.4 -0.2
v 0.5 2.5 0.7
v 0.5 2.5 0.3
v 0.5 2.5 0.2
v 0.5 2.5 -0.5
v 0.5 2.6 0.7
v 0.5 2.6 -0.4
v 0.5 2.6 -0.5
v 0.5 2.7 -0.4
v 0.5 2.7 -0.5
v 0.5 2.8 0.7
v 0.5 2.8 -0.5
v -0.7 0.7 0.7
v -0.7 0.8 0.7
v -0.7 1 0.7
v -0.7 1.1 0.7
v -0.7 1.3 0.7
v -0.7 1.4 0.7
v -0.7 1.6 0.7
v -0.7 1.7 0.7
v -0.7 1.9 0.7
v -0.7 2 0.7
v -0.7 2.2 0.7
v -0.7 2.3 0.7
v -0.7 2.5 0.7
v -0.7 2.6 0.7
v -0.7 2.7 0.7
v -0.7 2.8 0.7
v -0.6 0.9 0.7
v -0.6 1 0.7
v -0.6 2.4 0.7
v -0.6 2.5 0.7
v -0.6 2.7 0.7
v -0.6 2.8 0.7
v -0.5 0.9 0.7
v -0.5 1 0.7
v -0.5 1.1 0.7
v -0.5 1.2 0.7
v -0.5 2.1 0.7
v -0.5 2.2 0.7
v -0.5 2.3 0.7
v -0.5 2.4 0.7
v -0.5 2.5 0.7
v -0.4 1.1 0.7
v -0.4 1.2 0.7
v -0.4 1.6 0.7
v -0.4 1.7 0.7
v -0.4 1.9 0.7
v -0.4 2 0.7
v -0.1 1.2 0.7
v -0.1 1.3 0.7
v 0 0.8 0.7
v 0 0.9 0.7
v 0 1.2 0.7
v 0 1.3 0.7
v 0.1 2.7 0.7
v 0.1 2.8 0.7
v 0.2 0.8 0.7
v 0.2 0.9 0.7
v 0.2 1.6 0.7
v 0.2 1.7 0.7
v 0.2 1.9 0.7
v 0.2 2 0.7
v 0.2 2.6 0.7
v 0.2 2.7 0.7
v 0.2 2.8 0.7
v 0.3 2.1 0.7
v 0.3 2.2 0.7
v 0.3 2.3 0.7
v 0.3 2.4 0.7
v 0.3 2.6 0.7
v 0.3 2.7 0.7
v 0.5 0.7 0.7
v 0.5 0.8 0.7
v 0.5 1 0.7
v 0.5 1.1 0.7
v 0.5 1.3 0.7
v 0.5 1.4 0.7
v 0.5 1.6 0.7
v 0.5 1.7 0.7
v 0.5 1.9 0.7
v 0.5 2 0.7
v 0.5 2.2 0.7
v 0.5 2.3 0.7
v 0.5 2.5 0.7
v 0.5 2.6 0.7
v 0.5 2.8 0.7
v -0.5 2.1 0.6
v -0.5 2.2 0.6
v -0.5 2.3 0.6
v -0.5 2.4 0.6
v -0.4 1.6 0.6
v -0.4 1.7 0.6
v -0.4 1.8 0.6
v -0.4 1.9 0.6
v -0.4 2 0.6
v -0.4 2.2 0.6
v -0.4 2.3 0.6
v -0.3 1.8 0.6
v -0.3 1.9 0.6
v -0.3 2.2 0.6
v -0.3 2.3 0.6
v -0.2 1.8 0.6
v -0.2 1.9 0.6
v -0.1 1.8 0.6
v -0.1 1.9 0.6
v 0 1.7 0.6
v 0 1.8 0.6
v 0.1 1.7 0.6
v 0.1 1.8 0.6
v 0.1 2.2 0.6
v 0.1 2.3 0.6
v 0.2 1.6 0.6
v 0.2 1.7 0.6
v 0.2 1.9 0.6
v 0.2 2 0.6
v 0.2 2.2 0.6
v 0.2 2.3 0.6
v 0.3 2.1 0.6
v 0.3 2.2 0.6
v 0.3 2.3 0.6
v 0.3 2.4 0.6
v -0.4 1.7 0.5
v -0.4 1.8 0.5
v -0.3 1.8 0.5
v -0.3 1.9 0.5
v -0.2 1.8 0.5
v -0.2 1.9 0.5
v -0.1 1.8 0.5
v -0.1 1.9 0.5
v 0 1.7 0.5
v 0 1.8 0.5
v 0.1 1.7 0.5
v 0.1 1.8 0.5
v 0.2 1.7 0.5
v 0.2 1.9 0.5
v -0.7 0.7 -0.5
v -0.7 0.8 -0.5
v -0.7 1 -0.5
v -0.7 1.1 -0.5
v -0.7 1.3 -0.5
v -0.7 1.4 -0.5
v -0.7 1.6 -0.5
v -0.7 1.7 -0.5
v -0.7 1.9 -0.5
v -0.7 2 -0.5
v -0.7 2.2 -0.5
v -0.7 2.3 -0.5
v -0.7 2.5 -0.5
v -0.7 2.6 -0.5
v -0.7 2.8 -0.5
v 0.4 2 -0.5
v 0.4 2.1 -0.5
v 0.4 2.6 -0.5
v 0.4 2.7 -0.5
v 0.5 0.7 -0.5
v 0.5 0.8 -0.5
v 0.5 1 -0.5
v 0.5 1.1 -0.5
v 0.5 1.3 -0.5
v 0.5 1.4 -0.5
v 0.5 1.6 -0.5
v 0.5 1.7 -0.5
v 0.5 1.9 -0.5
v 0.5 2 -0.5
v 0.5 2.1 -0.5
v 0.5 2.2 -0.5
v 0.5 2.3 -0.5
v 0.5 2.5 -0.5
v 0.5 2.6 -0.5
v 0.5 2.7 -0.5
v 0.5 2.8 -0.5
v -0.7 0.7 0.7
v 0.5 0.7 0.7
v -0.7 0.7 -0.5
v 0.5 0.7 -0.5
v -0.4 1.8 0.6
v -0.3 1.8 0.6
v -0.2 1.8 0.6
v -0.1 1.8 0.6
v -0.4 1.8 0.5
v -0.3 1.8 0.5
v -0.2 1.8 0.5
v -0.1 1.8 0.5
v -0.3 1.9 0.6
v -0.2 1.9 0.6
v -0.1 1.9 0.6
v 0.2 1.9 0.6
v -0.3 1.9 0.5
v -0.2 1.9 0.5
v -0.1 1.9 0.5
v 0.2 1.9 0.5
v -0.4 2 0.7
v 0.2 2 0.7
v -0.4 2 0.6
v 0.2 2 0.6
v -0.5 2.4 0.7
v 0.3 2.4 0.7
v -0.5 2.4 0.6
v 0.3 2.4 0.6
v -0.4 1.6 0.7
v 0.2 1.6 0.7
v -0.4 1.6 0.6
v 0.2 1.6 0.6
v -0.4 1.7 0.6
v 0 1.7 0.6
v 0.1 1.7 0.6
v 0.2 1.7 0.6
v -0.4 1.7 0.5
v 0 1.7 0.5
v 0.1 1.7 0.5
v 0.2 1.7 0.5
v 0 1.8 0.6
v 0.1 1.8 0.6
v 0 1.8 0.5
v 0.1 1.8 0.5
v -0.5 2.1 0.7
v 0.3 2.1 0.7
v -0.5 2.1 0.6
v 0.3 2.1 0.6
v -0.7 2.8 0.7
v -0.6 2.8 0.7
v 0.1 2.8 0.7
v 0.2 2.8 0.7
v 0.5 2.8 0.7
v -0.7 2.8 0.6
v -0.6 2.8 0.6
v 0.1 2.8 0.6
v 0.2 2.8 0.6
v -0.5 2.8 0.4
v -0.4 2.8 0.4
v -0.5 2.8 0.3
v -0.4 2.8 0.3
v -0.1 2.8 0
v 0.1 2.8 0
v 0.2 2.8 0
v 0.3 2.8 0
v -0.7 2.8 -0.1
v -0.6 2.8 -0.1
v 0.2 2.8 -0.1
v 0.3 2.8 -0.1
v -0.7 2.8 -0.2
v -0.6 2.8 -0.2
v -0.5 2.8 -0.2
v -0.2 2.8 -0.2
v -0.1 2.8 -0.2
v 0.1 2.8 -0.2
v -0.6 2.8 -0.3
v -0.5 2.8 -0.3
v -0.2 2.8 -0.3
v -0.1 2.8 -0.3
v -0.7 2.8 -0.5
v 0.5 2.8 -0.5

# faces
f 3/1/1 2/1/1 1/1/1
f 4/1/1 2/1/1 3/1/1
f 5/2/1 4/2/1 3/2/1
f 6/2/1 4/2/1 5/2/1
f 7/1/1 6/1/1 5/1/1
f 8/1/1 6/1/1 7/1/1
f 9/2/1 8/2/1 7/2/1
f 10/2/1 8/2/1 9/2/1
f 11/2/1 9/2/1 7/2/1
f 12/3/1 10/3/1 9/3/1
f 12/2/1 9/2/1 11/2/1
f 13/2/1 8/2/1 10/2/1
f 13/3/1 10/3/1 12/3/1
f 14/2/1 8/2/1 13/2/1
f 15/1/1 12/1/1 11/1/1
f 15/1/1 13/1/1 12/1/1
f 15/1/1 14/1/1 13/1/1
f 16/1/1 14/1/1 15/1/1
f 17/2/1 16/2/1 15/2/1
f 18/2/1 16/2/1 17/2/1
f 19/1/1 18/1/1 17/1/1
f 20/1/1 18/1/1 19/1/1
f 21/2/1 20/2/1 19/2/1
f 22/2/1 20/2/1 21/2/1
f 23/1/1 22/1/1 21/1/1
f 24/1/1 22/1/1 23/1/1
f 25/2/1 24/2/1 23/2/1
f 26/2/1 24/2/1 25/2/1
f 27/1/1 26/1/1 25/1/1
f 28/1/1 26/1/1 27/1/1
f 29/2/1 28/2/1 27/2/1
f 30/2/1 28/2/1 29/2/1
f 31/1/1 30/1/1 29/1/1
f 32/1/1 30/1/1 31/1/1
f 33/2/1 32/2/1 31/2/1
f 34/2/1 32/2/1 33/2/1
f 35/2/1 32/2/1 34/2/1
f 36/2/1 32/2/1 35/2/1
f 37/3/1 34/3/1 33/3/1
f 38/2/1 35/2/1 34/2/1
f 38/3/1 34/3/1 37/3/1
f 39/3/1 36/3/1 35/3/1
f 39/2/1 35/2/1 38/2/1
f 40/2/1 32/2/1 36/2/1
f 40/3/1 36/3/1 39/3/1
f 41/2/1 32/2/1 40/2/1
f 44/6/1 43/6/1 42/6/1
f 45/6/1 43/6/1 44/6/1
f 48/6/1 47/6/1 46/6/1
f 49/6/1 47/6/1 48/6/1
f 52/1/1 51/1/1 50/1/1
f 53/1/1 51/1/1 52/1/1
f 55/2/1 53/2/1 52/2/1
f 55/2/1 54/2/1 53/2/1
f 56/2/1 54/2/1 55/2/1
f 57/2/1 54/2/1 56/2/1
f 58/1/1 56/1/1 55/1/1
f 59/1/1 56/1/1 58/1/1
f 62/2/1 61/2/1 60/2/1
f 63/2/1 61/2/1 62/2/1
f 64/1/1 63/1/1 62/1/1
f 65/1/1 63/1/1 64/1/1
f 66/2/1 65/2/1 64/2/1
f 67/2/1 65/2/1 66/2/1
f 68/2/2 69/2/2 70/2/2
f 70/2/2 69/2/2 71/2/2
f 70/1/2 71/1/2 72/1/2
f 72/1/2 71/1/2 73/1/2
f 72/2/2 73/2/2 74/2/2
f 74/2/2 73/2/2 75/2/2
f 76/1/2 77/1/2 78/1/2
f 78/1/2 77/1/2 79/1/2
f 78/2/2 79/2/2 81/2/2
f 79/2/2 80/2/2 81/2/2
f 81/2/2 80/2/2 82/2/2
f 78/2/2 81/2/2 83/2/2
f 83/2/2 81/2/2 84/2/2
f 83/1/2 84/1/2 85/1/2
f 85/1/2 84/1/2 86/1/2
f 87/6/2 88/6/2 89/6/2
f 89/6/2 88/6/2 90/6/2
f 91/6/2 92/6/2 93/6/2
f 93/6/2 92/6/2 94/6/2
f 95/6/2 96/6/2 97/6/2
f 97/6/2 96/6/2 98/6/2
f 99/1/2 100/1/2 101/1/2
f 101/1/2 100/1/2 102/1/2
f 102/1/2 100/1/2 103/1/2
f 103/1/2 100/1/2 104/1/2
f 101/2/2 102/2/2 105/2/2
f 102/3/2 103/3/2 105/3/2
f 103/2/2 104/2/2 106/2/2
f 105/3/2 103/3/2 106/3/2
f 101/2/2 105/2/2 107/2/2
f 105/2/2 106/2/2 107/2/2
f 106/2/2 104/2/2 108/2/2
f 107/2/2 106/2/2 108/2/2
f 107/1/2 108/1/2 109/1/2
f 109/1/2 108/1/2 110/1/2
f 110/1/2 108/1/2 111/1/2
f 111/1/2 108/1/2 112/1/2
f 109/2/2 110/2/2 113/2/2
f 110/3/2 111/3/2 113/3/2
f 111/2/2 112/2/2 114/2/2
f 113/3/2 111/3/2 114/3/2
f 114/2/2 112/2/2 115/2/2
f 115/2/2 112/2/2 116/2/2
f 109/2/2 113/2/2 117/2/2
f 113/2/2 114/2/2 117/2/2
f 114/2/2 115/2/2 117/2/2
f 115/3/2 116/3/2 118/3/2
f 117/2/2 115/2/2 118/2/2
f 116/2/2 112/2/2 119/2/2
f 118/3/2 116/3/2 119/3/2
f 119/2/2 112/2/2 120/2/2
f 117/1/2 118/1/2 121/1/2
f 118/1/2 119/1/2 121/1/2
f 119/1/2 120/1/2 121/1/2
f 121/1/2 120/1/2 122/1/2
f 121/2/2 122/2/2 123/2/2
f 123/2/2 122/2/2 124/2/2
f 123/1/2 124/1/2 125/1/2
f 125/1/2 124/1/2 126/1/2
f 125/2/2 126/2/2 127/2/2
f 127/2/2 126/2/2 128/2/2
f 127/1/2 128/1/2 129/1/2
f 129/1/2 128/1/2 130/1/2
f 130/1/2 128/1/2 131/1/2
f 129/2/2 130/2/2 132/2/2
f 132/2/2 130/2/2 133/2/2
f 130/3/2 131/3/2 134/3/2
f 133/2/2 130/2/2 134/2/2
f 134/3/2 131/3/2 135/3/2
f 129/2/2 132/2/2 136/2/2
f 132/3/2 133/3/2 137/3/2
f 136/2/2 132/2/2 137/2/2
f 133/2/2 134/2/2 138/2/2
f 137/3/2 133/3/2 138/3/2
f 134/2/2 135/2/2 138/2/2
f 138/2/2 135/2/2 139/2/2
f 136/1/2 137/1/2 140/1/2
f 137/1/2 138/1/2 140/1/2
f 138/1/2 139/1/2 140/1/2
f 140/1/2 139/1/2 141/1/2
f 141/1/2 139/1/2 142/1/2
f 142/1/2 139/1/2 143/1/2
f 140/2/2 141/2/2 144/2/2
f 144/2/2 141/2/2 145/2/2
f 141/3/2 142/3/2 146/3/2
f 145/2/2 141/2/2 146/2/2
f 142/2/2 143/2/2 147/2/2
f 146/3/2 142/3/2 147/3/2
f 140/2/2 144/2/2 148/2/2
f 144/3/2 145/3/2 149/3/2
f 148/2/2 144/2/2 149/2/2
f 145/2/2 146/2/2 150/2/2
f 149/3/2 145/3/2 150/3/2
f 146/2/2 147/2/2 150/2/2
f 147/2/2 143/2/2 151/2/2
f 150/2/2 147/2/2 151/2/2
f 148/1/2 149/1/2 152/1/2
f 149/1/2 150/1/2 152/1/2
f 150/1/2 151/1/2 152/1/2
f 152/1/2 151/1/2 153/1/2
f 153/1/2 151/1/2 154/1/2
f 152/2/2 153/2/2 155/2/2
f 153/3/2 154/3/2 155/3/2
f 155/3/2 154/3/2 156/3/2
f 152/2/2 155/2/2 157/2/2
f 155/2/2 156/2/2 157/2/2
f 157/2/2 156/2/2 158/2/2
f 175/2/3 161/2/3 160/2/3
f 176/1/3 162/1/3 161/1/3
f 176/2/3 161/2/3 175/2/3
f 177/2/3 171/2/3 170/2/3
f 178/1/3 172/1/3 171/1/3
f 178/2/3 171/2/3 177/2/3
f 179/3/3 174/3/3 173/3/3
f 179/2/3 173/2/3 172/2/3
f 180/3/3 174/3/3 179/3/3
f 181/2/3 175/2/3 160/2/3
f 181/3/3 176/3/3 175/3/3
f 182/1/3 162/1/3 176/1/3
f 182/3/3 176/3/3 181/3/3
f 183/2/3 163/2/3 162/2/3
f 183/1/3 162/1/3 182/1/3
f 184/2/3 163/2/3 183/2/3
f 185/2/3 169/2/3 168/2/3
f 186/1/3 170/1/3 169/1/3
f 186/2/3 169/2/3 185/2/3
f 187/2/3 177/2/3 170/2/3
f 187/1/3 170/1/3 186/1/3
f 188/3/3 178/3/3 177/3/3
f 188/2/3 177/2/3 187/2/3
f 189/1/3 172/1/3 178/1/3
f 189/3/3 178/3/3 188/3/3
f 190/3/3 184/3/3 183/3/3
f 190/1/3 183/1/3 182/1/3
f 191/2/3 163/2/3 184/2/3
f 191/3/3 184/3/3 190/3/3
f 192/2/3 165/2/3 164/2/3
f 192/1/3 166/1/3 165/1/3
f 193/2/3 167/2/3 166/2/3
f 193/1/3 166/1/3 192/1/3
f 194/1/3 168/1/3 167/1/3
f 194/2/3 167/2/3 193/2/3
f 195/2/3 185/2/3 168/2/3
f 195/1/3 168/1/3 194/1/3
f 196/2/3 163/2/3 191/2/3
f 196/2/3 191/2/3 190/2/3
f 197/1/3 164/1/3 163/1/3
f 197/2/3 163/2/3 196/2/3
f 198/1/3 160/1/3 159/1/3
f 198/2/3 182/2/3 181/2/3
f 198/2/3 181/2/3 160/2/3
f 199/2/3 182/2/3 198/2/3
f 200/3/3 197/3/3 196/3/3
f 200/2/3 196/2/3 190/2/3
f 201/1/3 164/1/3 197/1/3
f 201/3/3 197/3/3 200/3/3
f 202/2/3 180/2/3 179/2/3
f 202/2/3 179/2/3 172/2/3
f 203/2/3 180/2/3 202/2/3
f 204/3/3 199/3/3 198/3/3
f 204/1/3 198/1/3 159/1/3
f 205/2/3 182/2/3 199/2/3
f 205/3/3 199/3/3 204/3/3
f 206/2/3 192/2/3 164/2/3
f 209/2/3 185/2/3 195/2/3
f 210/1/3 172/1/3 189/1/3
f 210/2/3 202/2/3 172/2/3
f 211/3/3 203/3/3 202/3/3
f 211/2/3 202/2/3 210/2/3
f 212/3/3 203/3/3 211/3/3
f 213/2/3 185/2/3 209/2/3
f 216/2/3 189/2/3 188/2/3
f 217/1/3 210/1/3 189/1/3
f 217/3/3 211/3/3 210/3/3
f 218/2/3 212/2/3 211/2/3
f 218/3/3 211/3/3 217/3/3
f 219/1/3 204/1/3 159/1/3
f 220/2/3 205/2/3 204/2/3
f 220/1/3 204/1/3 219/1/3
f 221/2/3 182/2/3 205/2/3
f 221/2/3 205/2/3 220/2/3
f 221/1/3 190/1/3 182/1/3
f 222/2/3 200/2/3 190/2/3
f 222/1/3 190/1/3 221/1/3
f 222/2/3 201/2/3 200/2/3
f 223/1/3 164/1/3 201/1/3
f 223/2/3 201/2/3 222/2/3
f 224/2/3 206/2/3 164/2/3
f 224/1/3 164/1/3 223/1/3
f 225/1/3 207/1/3 206/1/3
f 225/2/3 206/2/3 224/2/3
f 226/2/3 208/2/3 207/2/3
f 226/1/3 207/1/3 225/1/3
f 227/1/3 209/1/3 208/1/3
f 227/2/3 208/2/3 226/2/3
f 228/2/3 213/2/3 209/2/3
f 228/1/3 209/1/3 227/1/3
f 228/2/3 214/2/3 213/2/3
f 229/1/3 215/1/3 214/1/3
f 229/2/3 214/2/3 228/2/3
f 230/2/3 216/2/3 215/2/3
f 230/1/3 215/1/3 229/1/3
f 231/2/3 189/2/3 216/2/3
f 231/2/3 216/2/3 230/2/3
f 231/1/3 217/1/3 189/1/3
f 232/2/3 218/2/3 217/2/3
f 232/1/3 217/1/3 231/1/3
f 233/2/3 212/2/3 218/2/3
f 233/2/3 218/2/3 232/2/3
f 243/7/3 235/7/3 234/7/3
f 243/7/3 236/7/3 235/7/3
f 243/7/3 237/7/3 236/7/3
f 244/7/3 237/7/3 243/7/3
f 245/6/3 241/6/3 240/6/3
f 246/7/3 242/7/3 241/7/3
f 246/6/3 241/6/3 245/6/3
f 247/7/3 243/7/3 234/7/3
f 247/4/3 244/4/3 243/4/3
f 248/7/3 237/7/3 244/7/3
f 248/4/3 244/4/3 247/4/3
f 250/7/3 242/7/3 246/7/3
f 251/6/3 250/6/3 249/6/3
f 252/7/3 242/7/3 250/7/3
f 252/6/3 250/6/3 251/6/3
f 253/7/3 239/7/3 238/7/3
f 255/7/3 253/7/3 238/7/3
f 255/6/3 254/6/3 253/6/3
f 256/6/3 254/6/3 255/6/3
f 257/7/3 247/7/3 234/7/3
f 257/7/3 248/7/3 247/7/3
f 258/7/3 237/7/3 248/7/3
f 258/7/3 248/7/3 257/7/3
f 259/7/3 255/7/3 238/7/3
f 260/7/3 255/7/3 259/7/3
f 261/7/3 242/7/3 252/7/3
f 262/7/3 242/7/3 261/7/3
f 263/4/3 258/4/3 257/4/3
f 263/7/3 257/7/3 234/7/3
f 264/7/3 237/7/3 258/7/3
f 264/4/3 258/4/3 263/4/3
f 265/7/3 263/7/3 234/7/3
f 265/7/3 264/7/3 263/7/3
f 266/7/3 264/7/3 265/7/3
f 267/7/3 237/7/3 264/7/3
f 267/7/3 264/7/3 266/7/3
f 268/7/3 237/7/3 267/7/3
f 271/5/3 270/5/3 269/5/3
f 273/5/3 271/5/3 269/5/3
f 273/5/3 272/5/3 271/5/3
f 274/5/3 272/5/3 273/5/3
f 275/5/3 273/5/3 269/5/3
f 277/5/3 275/5/3 269/5/3
f 277/5/3 276/5/3 275/5/3
f 278/5/3 276/5/3 277/5/3
f 280/5/3 276/5/3 278/5/3
f 281/5/3 280/5/3 279/5/3
f 282/5/3 276/5/3 280/5/3
f 282/5/3 280/5/3 281/5/3
f 291/1/4 292/1/4 298/1/4
f 292/2/4 293/2/4 298/2/4
f 298/2/4 293/2/4 299/2/4
f 296/2/4 297/2/4 300/2/4
f 295/1/4 296/1/4 300/1/4
f 300/2/4 297/2/4 301/2/4
f 283/1/4 284/1/4 302/1/4
f 284/2/4 285/2/4 303/2/4
f 302/1/4 284/1/4 303/1/4
f 285/1/4 286/1/4 304/1/4
f 303/2/4 285/2/4 304/2/4
f 286/2/4 287/2/4 305/2/4
f 304/1/4 286/1/4 305/1/4
f 287/1/4 288/1/4 306/1/4
f 305/2/4 287/2/4 306/2/4
f 288/2/4 289/2/4 307/2/4
f 306/1/4 288/1/4 307/1/4
f 289/1/4 290/1/4 308/1/4
f 307/2/4 289/2/4 308/2/4
f 290/2/4 291/2/4 309/2/4
f 308/1/4 290/1/4 309/1/4
f 291/1/4 298/1/4 310/1/4
f 309/2/4 291/2/4 310/2/4
f 298/3/4 299/3/4 311/3/4
f 310/1/4 298/1/4 311/1/4
f 299/2/4 293/2/4 312/2/4
f 311/3/4 299/3/4 312/3/4
f 293/1/4 294/1/4 313/1/4
f 312/2/4 293/2/4 313/2/4
f 294/2/4 295/2/4 314/2/4
f 313/1/4 294/1/4 314/1/4
f 295/1/4 300/1/4 315/1/4
f 314/2/4 295/2/4 315/2/4
f 300/3/4 301/3/4 316/3/4
f 315/1/4 300/1/4 316/1/4
f 301/2/4 297/2/4 317/2/4
f 316/3/4 301/3/4 317/3/4
f 317/2/4 297/2/4 318/2/4
f 321/1/5 320/1/5 319/1/5
f 322/1/5 320/1/5 321/1/5
f 327/6/5 324/6/5 323/6/5
f 328/6/5 324/6/5 327/6/5
f 329/6/5 326/6/5 325/6/5
f 330/6/5 326/6/5 329/6/5
f 335/7/5 332/7/5 331/7/5
f 336/7/5 332/7/5 335/7/5
f 337/7/5 334/7/5 333/7/5
f 338/7/5 334/7/5 337/7/5
f 341/2/5 340/2/5 339/2/5
f 342/2/5 340/2/5 341/2/5
f 345/2/5 344/2/5 343/2/5
f 346/2/5 344/2/5 345/2/5
f 347/2/6 348/2/6 349/2/6
f 349/2/6 348/2/6 350/2/6
f 351/7/6 352/7/6 355/7/6
f 355/7/6 352/7/6 356/7/6
f 353/7/6 354/7/6 357/7/6
f 357/7/6 354/7/6 358/7/6
f 359/6/6 360/6/6 361/6/6
f 361/6/6 360/6/6 362/6/6
f 363/2/6 364/2/6 365/2/6
f 365/2/6 364/2/6 366/2/6
f 367/3/6 368/3/6 372/3/6
f 368/2/6 369/2/6 373/2/6
f 372/3/6 368/3/6 373/3/6
f 369/3/6 370/3/6 374/3/6
f 373/2/6 369/2/6 374/2/6
f 370/2/6 371/2/6 375/2/6
f 374/3/6 370/3/6 375/3/6
f 373/2/6 374/2/6 376/2/6
f 372/2/6 373/2/6 376/2/6
f 374/2/6 375/2/6 376/2/6
f 376/2/6 375/2/6 377/2/6
f 372/2/6 376/2/6 378/2/6
f 376/3/6 377/3/6 378/3/6
f 377/2/6 375/2/6 379/2/6
f 378/3/6 377/3/6 379/3/6
f 378/2/6 379/2/6 380/2/6
f 379/2/6 375/2/6 380/2/6
f 380/2/6 375/2/6 381/2/6
f 375/2/6 371/2/6 382/2/6
f 381/2/6 375/2/6 382/2/6
f 382/2/6 371/2/6 383/2/6
f 372/2/6 378/2/6 384/2/6
f 378/2/6 380/2/6 384/2/6
f 384/2/6 380/2/6 385/2/6
f 382/3/6 383/3/6 386/3/6
f 381/2/6 382/2/6 386/2/6
f 383/2/6 371/2/6 387/2/6
f 386/3/6 383/3/6 387/3/6
f 384/3/6 385/3/6 388/3/6
f 385/2/6 380/2/6 389/2/6
f 388/3/6 385/3/6 389/3/6
f 389/2/6 380/2/6 390/2/6
f 390/2/6 380/2/6 391/2/6
f 380/3/6 381/3/6 392/3/6
f 391/2/6 380/2/6 392/2/6
f 381/2/6 386/2/6 393/2/6
f 392/3/6 381/3/6 393/3/6
f 386/2/6 387/2/6 393/2/6
f 389/3/6 390/3/6 394/3/6
f 388/2/6 389/2/6 394/2/6
f 390/2/6 391/2/6 395/2/6
f 394/3/6 390/3/6 395/3/6
f 391/3/6 392/3/6 396/3/6
f 395/2/6 391/2/6 396/2/6
f 392/2/6 393/2/6 397/2/6
f 396/3/6 392/3/6 397/3/6
f 388/2/6 394/2/6 398/2/6
f 394/2/6 395/2/6 398/2/6
f 396/2/6 397/2/6 398/2/6
f 395/2/6 396/2/6 398/2/6
f 397/2/6 393/2/6 399/2/6
f 398/2/6 397/2/6 399/2/6
f 393/2/6 387/2/6 399/2/6
f 387/2/6 371/2/6 399/2/6
