# MagicaVoxel @ Ephtracy

# group
o 

# material
mtllib Ra-1.mtl
usemtl palette

# normals
vn -1 0 0
vn 1 0 0
vn 0 0 1
vn 0 0 -1
vn 0 -1 0
vn 0 1 0

# texcoords
vt 0.181641 0.5
vt 0.916016 0.5
vt 0.943359 0.5
vt 0.974609 0.5

# verts
v -1.1 0.8 -0.4
v -1.1 0.8 -0.5
v -1.1 0.8 -0.6
v -1.1 0.8 -0.7
v -1.1 0.8 -0.8
v -1.1 0.8 -0.9
v -1.1 0.9 -0.5
v -1.1 0.9 -0.6
v -1.1 0.9 -0.7
v -1.1 0.9 -0.8
v -1.1 1.2 -0.4
v -1.1 1.2 -0.9
v -1.1 1.3 -0.4
v -1.1 1.3 -0.9
v -1.1 1.4 -0.4
v -1.1 1.4 -0.9
v -1.1 1.9 -0.4
v -1.1 1.9 -0.9
v -1.1 2.1 -0.4
v -1.1 2.1 -0.9
v -1.1 2.3 -0.4
v -1.1 2.3 -0.9
v -0.9 0.9 0.3
v -0.9 0.9 0.2
v -0.9 0.9 0
v -0.9 0.9 -0.4
v -0.9 0.9 -0.9
v -0.9 0.9 -1.1
v -0.9 1 -0.1
v -0.9 1 -0.2
v -0.9 1 -0.4
v -0.9 1 -0.9
v -0.9 1 -1.1
v -0.9 1.1 -0.2
v -0.9 1.1 -0.4
v -0.9 1.2 0.2
v -0.9 1.2 0
v -0.9 1.3 0.3
v -0.9 1.3 -0.1
v -1 0.8 -0.4
v -1 0.8 -0.5
v -1 0.8 -0.6
v -1 0.8 -0.7
v -1 0.8 -0.8
v -1 0.8 -0.9
v -1 0.9 -0.4
v -1 0.9 -0.5
v -1 0.9 -0.6
v -1 0.9 -0.7
v -1 0.9 -0.8
v -1 0.9 -0.9
v -0.8 0.9 0.3
v -0.8 0.9 0.2
v -0.8 0.9 0
v -0.8 0.9 -0.4
v -0.8 0.9 -0.9
v -0.8 0.9 -1.1
v -0.8 1 -0.1
v -0.8 1 -0.2
v -0.8 1 -0.4
v -0.8 1 -0.9
v -0.8 1 -1.1
v -0.8 1.1 -0.2
v -0.8 1.1 -0.4
v -0.8 1.2 0.2
v -0.8 1.2 0
v -0.8 1.3 0.3
v -0.8 1.3 -0.1
v -0.7 0.9 -0.4
v -0.7 0.9 -0.9
v -0.7 1.2 -0.4
v -0.7 1.2 -0.9
v -0.7 1.3 -0.4
v -0.7 1.3 -0.9
v -0.7 1.4 -0.4
v -0.7 1.4 -0.9
v -0.7 1.9 -0.4
v -0.7 1.9 -0.9
v -0.7 2.1 -0.4
v -0.7 2.1 -0.9
v -0.7 2.3 -0.4
v -0.7 2.3 -0.9
v -0.9 0.9 0.3
v -0.9 1.3 0.3
v -0.8 0.9 0.3
v -0.8 1.3 0.3
v -0.9 0.9 0
v -0.9 1.2 0
v -0.8 0.9 0
v -0.8 1.2 0
v -0.9 1 -0.2
v -0.9 1.1 -0.2
v -0.8 1 -0.2
v -0.8 1.1 -0.2
v -1.1 0.8 -0.4
v -1.1 1.2 -0.4
v -1.1 1.3 -0.4
v -1.1 1.4 -0.4
v -1.1 1.9 -0.4
v -1.1 2.1 -0.4
v -1.1 2.3 -0.4
v -1 0.8 -0.4
v -1 0.9 -0.4
v -0.9 0.9 -0.4
v -0.9 1 -0.4
v -0.9 1.1 -0.4
v -0.8 0.9 -0.4
v -0.8 1 -0.4
v -0.8 1.1 -0.4
v -0.7 0.9 -0.4
v -0.7 1.2 -0.4
v -0.7 1.3 -0.4
v -0.7 1.4 -0.4
v -0.7 1.9 -0.4
v -0.7 2.1 -0.4
v -0.7 2.3 -0.4
v -1.1 0.8 -0.6
v -1.1 0.9 -0.6
v -1 0.8 -0.6
v -1 0.9 -0.6
v -1.1 0.8 -0.8
v -1.1 0.9 -0.8
v -1 0.8 -0.8
v -1 0.9 -0.8
v -0.9 0.9 0.2
v -0.9 1.2 0.2
v -0.8 0.9 0.2
v -0.8 1.2 0.2
v -0.9 1 -0.1
v -0.9 1.3 -0.1
v -0.8 1 -0.1
v -0.8 1.3 -0.1
v -1.1 0.8 -0.5
v -1.1 0.9 -0.5
v -1 0.8 -0.5
v -1 0.9 -0.5
v -1.1 0.8 -0.7
v -1.1 0.9 -0.7
v -1 0.8 -0.7
v -1 0.9 -0.7
v -1.1 0.8 -0.9
v -1.1 1.2 -0.9
v -1.1 1.3 -0.9
v -1.1 1.4 -0.9
v -1.1 1.9 -0.9
v -1.1 2.1 -0.9
v -1.1 2.3 -0.9
v -1 0.8 -0.9
v -1 0.9 -0.9
v -0.9 0.9 -0.9
v -0.9 1 -0.9
v -0.8 0.9 -0.9
v -0.8 1 -0.9
v -0.7 0.9 -0.9
v -0.7 1.2 -0.9
v -0.7 1.3 -0.9
v -0.7 1.4 -0.9
v -0.7 1.9 -0.9
v -0.7 2.1 -0.9
v -0.7 2.3 -0.9
v -0.9 0.9 -1.1
v -0.9 1 -1.1
v -0.8 0.9 -1.1
v -0.8 1 -1.1
v -1.1 0.8 -0.4
v -1 0.8 -0.4
v -1.1 0.8 -0.5
v -1 0.8 -0.5
v -1.1 0.8 -0.6
v -1 0.8 -0.6
v -1.1 0.8 -0.7
v -1 0.8 -0.7
v -1.1 0.8 -0.8
v -1 0.8 -0.8
v -1.1 0.8 -0.9
v -1 0.8 -0.9
v -0.9 0.9 0.3
v -0.8 0.9 0.3
v -0.9 0.9 0.2
v -0.8 0.9 0.2
v -0.9 0.9 0
v -0.8 0.9 0
v -1 0.9 -0.4
v -0.9 0.9 -0.4
v -0.8 0.9 -0.4
v -0.7 0.9 -0.4
v -1.1 0.9 -0.5
v -1 0.9 -0.5
v -1.1 0.9 -0.6
v -1 0.9 -0.6
v -1.1 0.9 -0.7
v -1 0.9 -0.7
v -1.1 0.9 -0.8
v -1 0.9 -0.8
v -1 0.9 -0.9
v -0.9 0.9 -0.9
v -0.8 0.9 -0.9
v -0.7 0.9 -0.9
v -0.9 0.9 -1.1
v -0.8 0.9 -1.1
v -0.9 1.2 0.2
v -0.8 1.2 0.2
v -0.9 1.2 0
v -0.8 1.2 0
v -0.9 1 -0.1
v -0.8 1 -0.1
v -0.9 1 -0.2
v -0.8 1 -0.2
v -0.9 1 -0.9
v -0.8 1 -0.9
v -0.9 1 -1.1
v -0.8 1 -1.1
v -0.9 1.1 -0.2
v -0.8 1.1 -0.2
v -0.9 1.1 -0.4
v -0.8 1.1 -0.4
v -0.9 1.3 0.3
v -0.8 1.3 0.3
v -0.9 1.3 -0.1
v -0.8 1.3 -0.1
v -1.1 2.3 -0.4
v -0.7 2.3 -0.4
v -1.1 2.3 -0.9
v -0.7 2.3 -0.9

# faces
f 7/1/1 2/1/1 1/1/1
f 8/1/1 4/1/1 3/1/1
f 9/1/1 4/1/1 8/1/1
f 10/1/1 6/1/1 5/1/1
f 11/1/1 9/1/1 8/1/1
f 11/1/1 10/1/1 9/1/1
f 11/1/1 7/1/1 1/1/1
f 11/1/1 8/1/1 7/1/1
f 12/1/1 6/1/1 10/1/1
f 12/1/1 10/1/1 11/1/1
f 13/3/1 12/3/1 11/3/1
f 14/3/1 12/3/1 13/3/1
f 15/2/1 14/2/1 13/2/1
f 16/2/1 14/2/1 15/2/1
f 17/1/1 16/1/1 15/1/1
f 18/1/1 16/1/1 17/1/1
f 19/3/1 18/3/1 17/3/1
f 20/3/1 18/3/1 19/3/1
f 21/1/1 20/1/1 19/1/1
f 22/1/1 20/1/1 21/1/1
f 29/4/1 26/4/1 25/4/1
f 30/4/1 26/4/1 29/4/1
f 31/4/1 26/4/1 30/4/1
f 32/4/1 28/4/1 27/4/1
f 33/4/1 28/4/1 32/4/1
f 34/1/1 31/1/1 30/1/1
f 35/1/1 31/1/1 34/1/1
f 36/4/1 24/4/1 23/4/1
f 37/4/1 29/4/1 25/4/1
f 38/4/1 36/4/1 23/4/1
f 38/4/1 37/4/1 36/4/1
f 39/4/1 29/4/1 37/4/1
f 39/4/1 37/4/1 38/4/1
f 40/1/2 41/1/2 46/1/2
f 46/1/2 41/1/2 47/1/2
f 42/1/2 43/1/2 48/1/2
f 48/1/2 43/1/2 49/1/2
f 44/1/2 45/1/2 50/1/2
f 50/1/2 45/1/2 51/1/2
f 54/4/2 55/4/2 58/4/2
f 58/4/2 55/4/2 59/4/2
f 59/4/2 55/4/2 60/4/2
f 56/4/2 57/4/2 61/4/2
f 61/4/2 57/4/2 62/4/2
f 59/1/2 60/1/2 63/1/2
f 63/1/2 60/1/2 64/1/2
f 52/4/2 53/4/2 65/4/2
f 54/4/2 58/4/2 66/4/2
f 52/4/2 65/4/2 67/4/2
f 65/4/2 66/4/2 67/4/2
f 66/4/2 58/4/2 68/4/2
f 67/4/2 66/4/2 68/4/2
f 69/1/2 70/1/2 71/1/2
f 71/1/2 70/1/2 72/1/2
f 71/3/2 72/3/2 73/3/2
f 73/3/2 72/3/2 74/3/2
f 73/2/2 74/2/2 75/2/2
f 75/2/2 74/2/2 76/2/2
f 75/1/2 76/1/2 77/1/2
f 77/1/2 76/1/2 78/1/2
f 77/3/2 78/3/2 79/3/2
f 79/3/2 78/3/2 80/3/2
f 79/1/2 80/1/2 81/1/2
f 81/1/2 80/1/2 82/1/2
f 85/4/3 84/4/3 83/4/3
f 86/4/3 84/4/3 85/4/3
f 89/4/3 88/4/3 87/4/3
f 90/4/3 88/4/3 89/4/3
f 93/1/3 92/1/3 91/1/3
f 94/1/3 92/1/3 93/1/3
f 102/1/3 96/1/3 95/1/3
f 103/1/3 96/1/3 102/1/3
f 104/1/3 96/1/3 103/1/3
f 105/1/3 96/1/3 104/1/3
f 106/1/3 96/1/3 105/1/3
f 109/1/3 96/1/3 106/1/3
f 110/1/3 108/1/3 107/1/3
f 110/1/3 109/1/3 108/1/3
f 111/3/3 97/3/3 96/3/3
f 111/1/3 109/1/3 110/1/3
f 111/1/3 96/1/3 109/1/3
f 112/2/3 98/2/3 97/2/3
f 112/3/3 97/3/3 111/3/3
f 113/1/3 99/1/3 98/1/3
f 113/2/3 98/2/3 112/2/3
f 114/3/3 100/3/3 99/3/3
f 114/1/3 99/1/3 113/1/3
f 115/1/3 101/1/3 100/1/3
f 115/3/3 100/3/3 114/3/3
f 116/1/3 101/1/3 115/1/3
f 119/1/3 118/1/3 117/1/3
f 120/1/3 118/1/3 119/1/3
f 123/1/3 122/1/3 121/1/3
f 124/1/3 122/1/3 123/1/3
f 125/4/4 126/4/4 127/4/4
f 127/4/4 126/4/4 128/4/4
f 129/4/4 130/4/4 131/4/4
f 131/4/4 130/4/4 132/4/4
f 133/1/4 134/1/4 135/1/4
f 135/1/4 134/1/4 136/1/4
f 137/1/4 138/1/4 139/1/4
f 139/1/4 138/1/4 140/1/4
f 141/1/4 142/1/4 148/1/4
f 148/1/4 142/1/4 149/1/4
f 149/1/4 142/1/4 150/1/4
f 150/1/4 142/1/4 151/1/4
f 151/1/4 142/1/4 153/1/4
f 152/1/4 153/1/4 154/1/4
f 142/3/4 143/3/4 155/3/4
f 154/1/4 153/1/4 155/1/4
f 153/1/4 142/1/4 155/1/4
f 143/2/4 144/2/4 156/2/4
f 155/3/4 143/3/4 156/3/4
f 144/1/4 145/1/4 157/1/4
f 156/2/4 144/2/4 157/2/4
f 145/3/4 146/3/4 158/3/4
f 157/1/4 145/1/4 158/1/4
f 146/1/4 147/1/4 159/1/4
f 158/3/4 146/3/4 159/3/4
f 159/1/4 147/1/4 160/1/4
f 161/4/4 162/4/4 163/4/4
f 163/4/4 162/4/4 164/4/4
f 167/1/5 166/1/5 165/1/5
f 168/1/5 166/1/5 167/1/5
f 171/1/5 170/1/5 169/1/5
f 172/1/5 170/1/5 171/1/5
f 175/1/5 174/1/5 173/1/5
f 176/1/5 174/1/5 175/1/5
f 179/4/5 178/4/5 177/4/5
f 180/4/5 178/4/5 179/4/5
f 184/4/5 182/4/5 181/4/5
f 185/4/5 182/4/5 184/4/5
f 188/1/5 185/1/5 184/1/5
f 188/1/5 186/1/5 185/1/5
f 188/1/5 184/1/5 183/1/5
f 189/1/5 188/1/5 187/1/5
f 190/1/5 186/1/5 188/1/5
f 190/1/5 188/1/5 189/1/5
f 192/1/5 186/1/5 190/1/5
f 193/1/5 192/1/5 191/1/5
f 194/1/5 186/1/5 192/1/5
f 194/1/5 192/1/5 193/1/5
f 195/1/5 186/1/5 194/1/5
f 196/1/5 186/1/5 195/1/5
f 197/1/5 186/1/5 196/1/5
f 198/1/5 186/1/5 197/1/5
f 199/4/5 197/4/5 196/4/5
f 200/4/5 197/4/5 199/4/5
f 203/4/5 202/4/5 201/4/5
f 204/4/5 202/4/5 203/4/5
f 205/4/6 206/4/6 207/4/6
f 207/4/6 206/4/6 208/4/6
f 209/4/6 210/4/6 211/4/6
f 211/4/6 210/4/6 212/4/6
f 213/1/6 214/1/6 215/1/6
f 215/1/6 214/1/6 216/1/6
f 217/4/6 218/4/6 219/4/6
f 219/4/6 218/4/6 220/4/6
f 221/1/6 222/1/6 223/1/6
f 223/1/6 222/1/6 224/1/6
