# MagicaVoxel @ Ephtracy

# group
o 

# material
mtllib Ra-2.mtl
usemtl palette

# normals
vn -1 0 0
vn 1 0 0
vn 0 0 1
vn 0 0 -1
vn 0 -1 0
vn 0 1 0

# texcoords
vt 0.181641 0.5
vt 0.943359 0.5

# verts
v 0.1 0 -0.1
v 0.1 0 -0.8
v 0.1 0.3 -0.1
v 0.1 0.3 -0.3
v 0.1 0.3 -0.8
v 0.1 0.5 -0.3
v 0.1 0.5 -0.8
v 0.1 0.9 -0.3
v 0.1 0.9 -0.8
v 0.6 0 -0.1
v 0.6 0 -0.8
v 0.6 0.3 -0.1
v 0.6 0.3 -0.3
v 0.6 0.3 -0.8
v 0.6 0.5 -0.3
v 0.6 0.5 -0.8
v 0.6 0.9 -0.3
v 0.6 0.9 -0.8
v 0.1 0 -0.1
v 0.1 0.3 -0.1
v 0.6 0 -0.1
v 0.6 0.3 -0.1
v 0.1 0.3 -0.3
v 0.1 0.5 -0.3
v 0.1 0.9 -0.3
v 0.6 0.3 -0.3
v 0.6 0.5 -0.3
v 0.6 0.9 -0.3
v 0.1 0 -0.8
v 0.1 0.3 -0.8
v 0.1 0.5 -0.8
v 0.1 0.9 -0.8
v 0.6 0 -0.8
v 0.6 0.3 -0.8
v 0.6 0.5 -0.8
v 0.6 0.9 -0.8
v 0.1 0 -0.1
v 0.6 0 -0.1
v 0.1 0 -0.8
v 0.6 0 -0.8
v 0.1 0.3 -0.1
v 0.6 0.3 -0.1
v 0.1 0.3 -0.3
v 0.6 0.3 -0.3
v 0.1 0.9 -0.3
v 0.6 0.9 -0.3
v 0.1 0.9 -0.8
v 0.6 0.9 -0.8

# faces
f 3/1/1 2/1/1 1/1/1
f 4/1/1 2/1/1 3/1/1
f 5/1/1 2/1/1 4/1/1
f 6/2/1 5/2/1 4/2/1
f 7/2/1 5/2/1 6/2/1
f 8/1/1 7/1/1 6/1/1
f 9/1/1 7/1/1 8/1/1
f 10/1/2 11/1/2 12/1/2
f 12/1/2 11/1/2 13/1/2
f 13/1/2 11/1/2 14/1/2
f 13/2/2 14/2/2 15/2/2
f 15/2/2 14/2/2 16/2/2
f 15/1/2 16/1/2 17/1/2
f 17/1/2 16/1/2 18/1/2
f 21/1/3 20/1/3 19/1/3
f 22/1/3 20/1/3 21/1/3
f 26/2/3 24/2/3 23/2/3
f 27/1/3 25/1/3 24/1/3
f 27/2/3 24/2/3 26/2/3
f 28/1/3 25/1/3 27/1/3
f 29/1/4 30/1/4 33/1/4
f 30/2/4 31/2/4 34/2/4
f 33/1/4 30/1/4 34/1/4
f 31/1/4 32/1/4 35/1/4
f 34/2/4 31/2/4 35/2/4
f 35/1/4 32/1/4 36/1/4
f 39/1/5 38/1/5 37/1/5
f 40/1/5 38/1/5 39/1/5
f 41/1/6 42/1/6 43/1/6
f 43/1/6 42/1/6 44/1/6
f 45/1/6 46/1/6 47/1/6
f 47/1/6 46/1/6 48/1/6
