# MagicaVoxel @ Ephtracy

# group
o 

# material
mtllib Kompot-2.mtl
usemtl palette

# normals
vn -1 0 0
vn 1 0 0
vn 0 0 1
vn 0 0 -1
vn 0 -1 0
vn 0 1 0

# texcoords
vt 0.591797 0.5
vt 0.736328 0.5
vt 0.912109 0.5
vt 0.970703 0.5
vt 0.990234 0.5

# verts
v -0.8 2.7 0.8
v -0.8 2.7 0.4
v -0.8 2.7 0.3
v -0.8 2.7 -0.1
v -0.8 2.7 -0.2
v -0.8 2.7 -0.6
v -0.8 2.8 0.8
v -0.8 2.8 0.4
v -0.8 2.8 0.3
v -0.8 2.8 -0.1
v -0.8 2.8 -0.2
v -0.8 2.8 -0.6
v -0.6 2.8 0.6
v -0.6 2.8 0.4
v -0.6 2.8 0.3
v -0.6 2.8 -0.1
v -0.6 2.8 -0.2
v -0.6 2.8 -0.4
v -0.6 2.9 0.6
v -0.6 2.9 -0.4
v -0.6 3 0.6
v -0.6 3 -0.4
v -0.6 3.1 0.6
v -0.6 3.1 -0.4
v -0.5 2.1 0.7
v -0.5 2.1 0.6
v -0.5 2.2 0.7
v -0.5 2.2 0.6
v -0.5 2.3 0.7
v -0.5 2.3 0.6
v -0.4 1.8 0.7
v -0.4 1.8 0.6
v -0.4 1.9 0.7
v -0.4 1.9 0.6
v -0.3 1.7 0.7
v -0.3 1.7 0.6
v -0.3 1.8 0.7
v -0.3 1.8 0.6
v -0.3 2.7 0.8
v -0.3 2.7 0.6
v -0.3 2.7 -0.4
v -0.3 2.7 -0.6
v -0.3 2.8 0.8
v -0.3 2.8 0.6
v -0.3 2.8 -0.4
v -0.3 2.8 -0.6
v 0.1 1.8 0.7
v 0.1 1.8 0.6
v 0.1 1.9 0.7
v 0.1 1.9 0.6
v 0.1 2.1 0.7
v 0.1 2.1 0.6
v 0.1 2.2 0.7
v 0.1 2.2 0.6
v 0.1 2.3 0.7
v 0.1 2.3 0.6
v 0.2 2.7 0.8
v 0.2 2.7 0.6
v 0.2 2.7 -0.2
v 0.2 2.7 -0.6
v 0.2 2.8 0.8
v 0.2 2.8 0.6
v 0.2 2.8 -0.2
v 0.2 2.8 -0.4
v 0.2 2.8 -0.6
v 0.4 2.7 0.6
v 0.4 2.7 0.4
v 0.4 2.7 0.3
v 0.4 2.7 -0.1
v 0.4 2.8 0.6
v 0.4 2.8 0.4
v 0.4 2.8 0.3
v 0.4 2.8 -0.1
v -0.6 2.7 0.6
v -0.6 2.7 0.4
v -0.6 2.7 0.3
v -0.6 2.7 -0.1
v -0.6 2.7 -0.2
v -0.6 2.7 -0.4
v -0.6 2.8 0.6
v -0.6 2.8 0.4
v -0.6 2.8 0.3
v -0.6 2.8 -0.1
v -0.6 2.8 -0.2
v -0.6 2.8 -0.4
v -0.4 2.7 0.8
v -0.4 2.7 0.6
v -0.4 2.7 -0.4
v -0.4 2.7 -0.6
v -0.4 2.8 0.8
v -0.4 2.8 0.6
v -0.4 2.8 -0.4
v -0.4 2.8 -0.6
v -0.3 2.1 0.7
v -0.3 2.1 0.6
v -0.3 2.2 0.7
v -0.3 2.2 0.6
v -0.3 2.3 0.7
v -0.3 2.3 0.6
v 0 1.8 0.7
v 0 1.8 0.6
v 0 1.9 0.7
v 0 1.9 0.6
v 0.1 1.7 0.7
v 0.1 1.7 0.6
v 0.1 1.8 0.7
v 0.1 1.8 0.6
v 0.1 2.7 0.8
v 0.1 2.7 0.6
v 0.1 2.7 -0.4
v 0.1 2.7 -0.6
v 0.1 2.8 0.8
v 0.1 2.8 0.6
v 0.1 2.8 -0.4
v 0.1 2.8 -0.6
v 0.2 1.8 0.7
v 0.2 1.8 0.6
v 0.2 1.9 0.7
v 0.2 1.9 0.6
v 0.3 2.1 0.7
v 0.3 2.1 0.6
v 0.3 2.2 0.7
v 0.3 2.2 0.6
v 0.3 2.3 0.7
v 0.3 2.3 0.6
v 0.4 2.8 0.6
v 0.4 2.8 0.4
v 0.4 2.8 0.3
v 0.4 2.8 -0.1
v 0.4 2.8 -0.2
v 0.4 2.8 -0.4
v 0.4 2.9 0.6
v 0.4 2.9 -0.4
v 0.4 3 0.6
v 0.4 3 -0.4
v 0.4 3.1 0.6
v 0.4 3.1 -0.4
v 0.6 2.7 0.8
v 0.6 2.7 0.4
v 0.6 2.7 0.3
v 0.6 2.7 -0.1
v 0.6 2.7 -0.2
v 0.6 2.7 -0.6
v 0.6 2.8 0.8
v 0.6 2.8 0.4
v 0.6 2.8 0.3
v 0.6 2.8 -0.1
v 0.6 2.8 -0.2
v 0.6 2.8 -0.6
v -0.8 2.7 0.8
v -0.8 2.8 0.8
v -0.4 2.7 0.8
v -0.4 2.8 0.8
v -0.3 2.7 0.8
v -0.3 2.8 0.8
v 0.1 2.7 0.8
v 0.1 2.8 0.8
v 0.2 2.7 0.8
v 0.2 2.8 0.8
v 0.6 2.7 0.8
v 0.6 2.8 0.8
v -0.5 2.1 0.7
v -0.5 2.2 0.7
v -0.5 2.3 0.7
v -0.4 1.8 0.7
v -0.4 1.9 0.7
v -0.4 2.1 0.7
v -0.4 2.2 0.7
v -0.3 1.7 0.7
v -0.3 1.8 0.7
v -0.3 2.1 0.7
v -0.3 2.2 0.7
v -0.3 2.3 0.7
v 0 1.8 0.7
v 0 1.9 0.7
v 0.1 1.7 0.7
v 0.1 1.8 0.7
v 0.1 1.9 0.7
v 0.1 2.1 0.7
v 0.1 2.2 0.7
v 0.1 2.3 0.7
v 0.2 1.8 0.7
v 0.2 1.9 0.7
v 0.2 2.1 0.7
v 0.2 2.2 0.7
v 0.3 2.1 0.7
v 0.3 2.2 0.7
v 0.3 2.3 0.7
v -0.6 2.8 0.6
v -0.6 2.9 0.6
v -0.6 3 0.6
v -0.6 3.1 0.6
v -0.4 2.8 0.6
v -0.3 2.8 0.6
v 0.1 2.8 0.6
v 0.2 2.8 0.6
v 0.4 2.8 0.6
v 0.4 2.9 0.6
v 0.4 3 0.6
v 0.4 3.1 0.6
v -0.8 2.7 0.3
v -0.8 2.8 0.3
v -0.6 2.7 0.3
v -0.6 2.8 0.3
v 0.4 2.7 0.3
v 0.4 2.8 0.3
v 0.6 2.7 0.3
v 0.6 2.8 0.3
v -0.8 2.7 -0.2
v -0.8 2.8 -0.2
v -0.6 2.7 -0.2
v -0.6 2.8 -0.2
v 0.2 2.7 -0.2
v 0.2 2.8 -0.2
v 0.4 2.8 -0.2
v 0.6 2.7 -0.2
v 0.6 2.8 -0.2
v -0.6 2.7 -0.4
v -0.6 2.8 -0.4
v -0.4 2.7 -0.4
v -0.4 2.8 -0.4
v -0.3 2.7 -0.4
v -0.3 2.8 -0.4
v 0.1 2.7 -0.4
v 0.1 2.8 -0.4
v -0.6 2.7 0.6
v -0.6 2.8 0.6
v -0.5 2.1 0.6
v -0.5 2.2 0.6
v -0.5 2.3 0.6
v -0.4 1.8 0.6
v -0.4 1.9 0.6
v -0.4 2.1 0.6
v -0.4 2.2 0.6
v -0.4 2.7 0.6
v -0.4 2.8 0.6
v -0.3 1.7 0.6
v -0.3 1.8 0.6
v -0.3 2.1 0.6
v -0.3 2.2 0.6
v -0.3 2.3 0.6
v -0.3 2.7 0.6
v -0.3 2.8 0.6
v 0 1.8 0.6
v 0 1.9 0.6
v 0.1 1.7 0.6
v 0.1 1.8 0.6
v 0.1 1.9 0.6
v 0.1 2.1 0.6
v 0.1 2.2 0.6
v 0.1 2.3 0.6
v 0.1 2.7 0.6
v 0.1 2.8 0.6
v 0.2 1.8 0.6
v 0.2 1.9 0.6
v 0.2 2.1 0.6
v 0.2 2.2 0.6
v 0.2 2.7 0.6
v 0.2 2.8 0.6
v 0.3 2.1 0.6
v 0.3 2.2 0.6
v 0.3 2.3 0.6
v 0.4 2.7 0.6
v 0.4 2.8 0.6
v -0.8 2.7 0.4
v -0.8 2.8 0.4
v -0.6 2.7 0.4
v -0.6 2.8 0.4
v 0.4 2.7 0.4
v 0.4 2.8 0.4
v 0.6 2.7 0.4
v 0.6 2.8 0.4
v -0.8 2.7 -0.1
v -0.8 2.8 -0.1
v -0.6 2.7 -0.1
v -0.6 2.8 -0.1
v 0.4 2.7 -0.1
v 0.4 2.8 -0.1
v 0.6 2.7 -0.1
v 0.6 2.8 -0.1
v -0.6 2.8 -0.4
v -0.6 2.9 -0.4
v -0.6 3 -0.4
v -0.6 3.1 -0.4
v -0.4 2.8 -0.4
v -0.3 2.8 -0.4
v 0.1 2.8 -0.4
v 0.2 2.8 -0.4
v 0.4 2.8 -0.4
v 0.4 2.9 -0.4
v 0.4 3 -0.4
v 0.4 3.1 -0.4
v -0.8 2.7 -0.6
v -0.8 2.8 -0.6
v -0.4 2.7 -0.6
v -0.4 2.8 -0.6
v -0.3 2.7 -0.6
v -0.3 2.8 -0.6
v 0.1 2.7 -0.6
v 0.1 2.8 -0.6
v 0.2 2.7 -0.6
v 0.2 2.8 -0.6
v 0.6 2.7 -0.6
v 0.6 2.8 -0.6
v -0.3 1.7 0.7
v 0.1 1.7 0.7
v -0.3 1.7 0.6
v 0.1 1.7 0.6
v -0.4 1.8 0.7
v -0.3 1.8 0.7
v 0.1 1.8 0.7
v 0.2 1.8 0.7
v -0.4 1.8 0.6
v -0.3 1.8 0.6
v 0.1 1.8 0.6
v 0.2 1.8 0.6
v -0.5 2.1 0.7
v -0.4 2.1 0.7
v -0.3 2.1 0.7
v 0.1 2.1 0.7
v 0.2 2.1 0.7
v 0.3 2.1 0.7
v -0.5 2.1 0.6
v -0.4 2.1 0.6
v -0.3 2.1 0.6
v 0.1 2.1 0.6
v 0.2 2.1 0.6
v 0.3 2.1 0.6
v -0.8 2.7 0.8
v -0.4 2.7 0.8
v -0.3 2.7 0.8
v 0.1 2.7 0.8
v 0.2 2.7 0.8
v 0.6 2.7 0.8
v -0.6 2.7 0.6
v -0.4 2.7 0.6
v -0.3 2.7 0.6
v 0.1 2.7 0.6
v 0.2 2.7 0.6
v 0.4 2.7 0.6
v -0.8 2.7 0.4
v -0.6 2.7 0.4
v 0.4 2.7 0.4
v 0.6 2.7 0.4
v -0.8 2.7 0.3
v -0.6 2.7 0.3
v 0.4 2.7 0.3
v 0.6 2.7 0.3
v -0.8 2.7 -0.1
v -0.6 2.7 -0.1
v 0.4 2.7 -0.1
v 0.6 2.7 -0.1
v -0.8 2.7 -0.2
v -0.6 2.7 -0.2
v 0.2 2.7 -0.2
v 0.6 2.7 -0.2
v -0.6 2.7 -0.4
v -0.4 2.7 -0.4
v -0.3 2.7 -0.4
v 0.1 2.7 -0.4
v -0.8 2.7 -0.6
v -0.4 2.7 -0.6
v -0.3 2.7 -0.6
v 0.1 2.7 -0.6
v 0.2 2.7 -0.6
v 0.6 2.7 -0.6
v -0.6 2.8 0.6
v -0.4 2.8 0.6
v -0.3 2.8 0.6
v 0.1 2.8 0.6
v 0.2 2.8 0.6
v 0.4 2.8 0.6
v -0.6 2.8 0.4
v 0.4 2.8 0.4
v -0.6 2.8 0.3
v 0.4 2.8 0.3
v -0.6 2.8 -0.1
v 0.4 2.8 -0.1
v -0.6 2.8 -0.2
v 0.2 2.8 -0.2
v 0.4 2.8 -0.2
v -0.6 2.8 -0.4
v -0.4 2.8 -0.4
v -0.3 2.8 -0.4
v 0.1 2.8 -0.4
v 0.2 2.8 -0.4
v 0 1.8 0.7
v 0.1 1.8 0.7
v 0 1.8 0.6
v 0.1 1.8 0.6
v -0.4 1.9 0.7
v 0 1.9 0.7
v 0.1 1.9 0.7
v 0.2 1.9 0.7
v -0.4 1.9 0.6
v 0 1.9 0.6
v 0.1 1.9 0.6
v 0.2 1.9 0.6
v -0.5 2.3 0.7
v -0.3 2.3 0.7
v 0.1 2.3 0.7
v 0.3 2.3 0.7
v -0.5 2.3 0.6
v -0.3 2.3 0.6
v 0.1 2.3 0.6
v 0.3 2.3 0.6
v -0.8 2.8 0.8
v -0.4 2.8 0.8
v -0.3 2.8 0.8
v 0.1 2.8 0.8
v 0.2 2.8 0.8
v 0.6 2.8 0.8
v -0.6 2.8 0.6
v -0.4 2.8 0.6
v -0.3 2.8 0.6
v 0.1 2.8 0.6
v 0.2 2.8 0.6
v 0.4 2.8 0.6
v -0.8 2.8 0.4
v -0.6 2.8 0.4
v 0.4 2.8 0.4
v 0.6 2.8 0.4
v -0.8 2.8 0.3
v -0.6 2.8 0.3
v 0.4 2.8 0.3
v 0.6 2.8 0.3
v -0.8 2.8 -0.1
v -0.6 2.8 -0.1
v 0.4 2.8 -0.1
v 0.6 2.8 -0.1
v -0.8 2.8 -0.2
v -0.6 2.8 -0.2
v 0.4 2.8 -0.2
v 0.6 2.8 -0.2
v -0.6 2.8 -0.4
v -0.4 2.8 -0.4
v -0.3 2.8 -0.4
v 0.1 2.8 -0.4
v 0.2 2.8 -0.4
v 0.4 2.8 -0.4
v -0.8 2.8 -0.6
v -0.4 2.8 -0.6
v -0.3 2.8 -0.6
v 0.1 2.8 -0.6
v 0.2 2.8 -0.6
v 0.6 2.8 -0.6
v -0.6 3.1 0.6
v 0.4 3.1 0.6
v -0.6 3.1 -0.4
v 0.4 3.1 -0.4

# faces
f 7/3/1 2/3/1 1/3/1
f 8/3/1 2/3/1 7/3/1
f 9/3/1 4/3/1 3/3/1
f 10/3/1 4/3/1 9/3/1
f 11/3/1 6/3/1 5/3/1
f 12/3/1 6/3/1 11/3/1
f 19/1/1 14/1/1 13/1/1
f 19/1/1 18/1/1 17/1/1
f 19/1/1 17/1/1 16/1/1
f 19/1/1 16/1/1 15/1/1
f 19/1/1 15/1/1 14/1/1
f 20/1/1 18/1/1 19/1/1
f 21/4/1 20/4/1 19/4/1
f 22/4/1 20/4/1 21/4/1
f 23/3/1 22/3/1 21/3/1
f 24/3/1 22/3/1 23/3/1
f 27/3/1 26/3/1 25/3/1
f 28/3/1 26/3/1 27/3/1
f 29/5/1 28/5/1 27/5/1
f 30/5/1 28/5/1 29/5/1
f 33/3/1 32/3/1 31/3/1
f 34/3/1 32/3/1 33/3/1
f 37/3/1 36/3/1 35/3/1
f 38/3/1 36/3/1 37/3/1
f 43/3/1 40/3/1 39/3/1
f 44/3/1 40/3/1 43/3/1
f 45/3/1 42/3/1 41/3/1
f 46/3/1 42/3/1 45/3/1
f 49/3/1 48/3/1 47/3/1
f 50/3/1 48/3/1 49/3/1
f 53/3/1 52/3/1 51/3/1
f 54/3/1 52/3/1 53/3/1
f 55/5/1 54/5/1 53/5/1
f 56/5/1 54/5/1 55/5/1
f 61/3/1 58/3/1 57/3/1
f 62/3/1 58/3/1 61/3/1
f 63/3/1 60/3/1 59/3/1
f 64/3/1 60/3/1 63/3/1
f 65/3/1 60/3/1 64/3/1
f 70/3/1 67/3/1 66/3/1
f 71/3/1 67/3/1 70/3/1
f 72/3/1 69/3/1 68/3/1
f 73/3/1 69/3/1 72/3/1
f 74/3/2 75/3/2 80/3/2
f 80/3/2 75/3/2 81/3/2
f 76/3/2 77/3/2 82/3/2
f 82/3/2 77/3/2 83/3/2
f 78/3/2 79/3/2 84/3/2
f 84/3/2 79/3/2 85/3/2
f 86/3/2 87/3/2 90/3/2
f 90/3/2 87/3/2 91/3/2
f 88/3/2 89/3/2 92/3/2
f 92/3/2 89/3/2 93/3/2
f 94/2/2 95/2/2 96/2/2
f 96/2/2 95/2/2 97/2/2
f 96/5/2 97/5/2 98/5/2
f 98/5/2 97/5/2 99/5/2
f 100/3/2 101/3/2 102/3/2
f 102/3/2 101/3/2 103/3/2
f 104/3/2 105/3/2 106/3/2
f 106/3/2 105/3/2 107/3/2
f 108/3/2 109/3/2 112/3/2
f 112/3/2 109/3/2 113/3/2
f 110/3/2 111/3/2 114/3/2
f 114/3/2 111/3/2 115/3/2
f 116/3/2 117/3/2 118/3/2
f 118/3/2 117/3/2 119/3/2
f 120/2/2 121/2/2 122/2/2
f 122/2/2 121/2/2 123/2/2
f 122/5/2 123/5/2 124/5/2
f 124/5/2 123/5/2 125/5/2
f 126/1/2 127/1/2 132/1/2
f 130/1/2 131/1/2 132/1/2
f 129/1/2 130/1/2 132/1/2
f 128/1/2 129/1/2 132/1/2
f 127/1/2 128/1/2 132/1/2
f 132/1/2 131/1/2 133/1/2
f 132/4/2 133/4/2 134/4/2
f 134/4/2 133/4/2 135/4/2
f 134/3/2 135/3/2 136/3/2
f 136/3/2 135/3/2 137/3/2
f 138/3/2 139/3/2 144/3/2
f 144/3/2 139/3/2 145/3/2
f 140/3/2 141/3/2 146/3/2
f 146/3/2 141/3/2 147/3/2
f 142/3/2 143/3/2 148/3/2
f 148/3/2 143/3/2 149/3/2
f 152/3/3 151/3/3 150/3/3
f 153/3/3 151/3/3 152/3/3
f 156/3/3 155/3/3 154/3/3
f 157/3/3 155/3/3 156/3/3
f 160/3/3 159/3/3 158/3/3
f 161/3/3 159/3/3 160/3/3
f 167/3/3 163/3/3 162/3/3
f 168/5/3 164/5/3 163/5/3
f 168/3/3 163/3/3 167/3/3
f 170/3/3 166/3/3 165/3/3
f 171/2/3 168/2/3 167/2/3
f 172/5/3 164/5/3 168/5/3
f 172/2/3 168/2/3 171/2/3
f 173/5/3 164/5/3 172/5/3
f 174/3/3 170/3/3 169/3/3
f 174/3/3 166/3/3 170/3/3
f 175/3/3 166/3/3 174/3/3
f 176/3/3 174/3/3 169/3/3
f 177/3/3 174/3/3 176/3/3
f 182/3/3 178/3/3 177/3/3
f 183/3/3 178/3/3 182/3/3
f 184/3/3 180/3/3 179/3/3
f 185/5/3 181/5/3 180/5/3
f 185/3/3 180/3/3 184/3/3
f 186/2/3 185/2/3 184/2/3
f 187/5/3 181/5/3 185/5/3
f 187/2/3 185/2/3 186/2/3
f 188/5/3 181/5/3 187/5/3
f 193/1/3 190/1/3 189/1/3
f 194/1/3 190/1/3 193/1/3
f 195/1/3 190/1/3 194/1/3
f 196/1/3 190/1/3 195/1/3
f 197/1/3 190/1/3 196/1/3
f 198/4/3 191/4/3 190/4/3
f 198/1/3 190/1/3 197/1/3
f 199/3/3 192/3/3 191/3/3
f 199/4/3 191/4/3 198/4/3
f 200/3/3 192/3/3 199/3/3
f 203/3/3 202/3/3 201/3/3
f 204/3/3 202/3/3 203/3/3
f 207/3/3 206/3/3 205/3/3
f 208/3/3 206/3/3 207/3/3
f 211/3/3 210/3/3 209/3/3
f 212/3/3 210/3/3 211/3/3
f 215/3/3 214/3/3 213/3/3
f 216/3/3 215/3/3 213/3/3
f 217/3/3 215/3/3 216/3/3
f 220/3/3 219/3/3 218/3/3
f 221/3/3 219/3/3 220/3/3
f 224/3/3 223/3/3 222/3/3
f 225/3/3 223/3/3 224/3/3
f 228/3/4 229/3/4 233/3/4
f 229/5/4 230/5/4 234/5/4
f 233/3/4 229/3/4 234/3/4
f 226/3/4 227/3/4 235/3/4
f 235/3/4 227/3/4 236/3/4
f 231/3/4 232/3/4 238/3/4
f 233/2/4 234/2/4 239/2/4
f 234/5/4 230/5/4 240/5/4
f 239/2/4 234/2/4 240/2/4
f 240/5/4 230/5/4 241/5/4
f 237/3/4 238/3/4 244/3/4
f 238/3/4 232/3/4 244/3/4
f 244/3/4 232/3/4 245/3/4
f 237/3/4 244/3/4 246/3/4
f 246/3/4 244/3/4 247/3/4
f 242/3/4 243/3/4 252/3/4
f 252/3/4 243/3/4 253/3/4
f 247/3/4 248/3/4 254/3/4
f 254/3/4 248/3/4 255/3/4
f 249/3/4 250/3/4 256/3/4
f 250/5/4 251/5/4 257/5/4
f 256/3/4 250/3/4 257/3/4
f 256/2/4 257/2/4 260/2/4
f 257/5/4 251/5/4 261/5/4
f 260/2/4 257/2/4 261/2/4
f 261/5/4 251/5/4 262/5/4
f 258/3/4 259/3/4 263/3/4
f 263/3/4 259/3/4 264/3/4
f 265/3/4 266/3/4 267/3/4
f 267/3/4 266/3/4 268/3/4
f 269/3/4 270/3/4 271/3/4
f 271/3/4 270/3/4 272/3/4
f 273/3/4 274/3/4 275/3/4
f 275/3/4 274/3/4 276/3/4
f 277/3/4 278/3/4 279/3/4
f 279/3/4 278/3/4 280/3/4
f 281/1/4 282/1/4 285/1/4
f 285/1/4 282/1/4 286/1/4
f 286/1/4 282/1/4 287/1/4
f 287/1/4 282/1/4 288/1/4
f 288/1/4 282/1/4 289/1/4
f 282/4/4 283/4/4 290/4/4
f 289/1/4 282/1/4 290/1/4
f 283/3/4 284/3/4 291/3/4
f 290/4/4 283/4/4 291/4/4
f 291/3/4 284/3/4 292/3/4
f 293/3/4 294/3/4 295/3/4
f 295/3/4 294/3/4 296/3/4
f 297/3/4 298/3/4 299/3/4
f 299/3/4 298/3/4 300/3/4
f 301/3/4 302/3/4 303/3/4
f 303/3/4 302/3/4 304/3/4
f 307/3/5 306/3/5 305/3/5
f 308/3/5 306/3/5 307/3/5
f 313/3/5 310/3/5 309/3/5
f 314/3/5 310/3/5 313/3/5
f 315/3/5 312/3/5 311/3/5
f 316/3/5 312/3/5 315/3/5
f 323/3/5 318/3/5 317/3/5
f 324/2/5 319/2/5 318/2/5
f 324/3/5 318/3/5 323/3/5
f 325/2/5 319/2/5 324/2/5
f 326/3/5 321/3/5 320/3/5
f 327/2/5 322/2/5 321/2/5
f 327/3/5 321/3/5 326/3/5
f 328/2/5 322/2/5 327/2/5
f 335/3/5 330/3/5 329/3/5
f 336/3/5 330/3/5 335/3/5
f 337/3/5 332/3/5 331/3/5
f 338/3/5 332/3/5 337/3/5
f 339/3/5 334/3/5 333/3/5
f 340/3/5 334/3/5 339/3/5
f 341/3/5 335/3/5 329/3/5
f 342/3/5 335/3/5 341/3/5
f 343/3/5 334/3/5 340/3/5
f 344/3/5 334/3/5 343/3/5
f 349/3/5 346/3/5 345/3/5
f 350/3/5 346/3/5 349/3/5
f 351/3/5 348/3/5 347/3/5
f 352/3/5 348/3/5 351/3/5
f 357/3/5 354/3/5 353/3/5
f 361/3/5 357/3/5 353/3/5
f 361/3/5 358/3/5 357/3/5
f 362/3/5 358/3/5 361/3/5
f 363/3/5 360/3/5 359/3/5
f 364/3/5 360/3/5 363/3/5
f 365/3/5 356/3/5 355/3/5
f 366/3/5 356/3/5 365/3/5
f 373/1/5 368/1/5 367/1/5
f 373/1/5 372/1/5 371/1/5
f 373/1/5 371/1/5 370/1/5
f 373/1/5 370/1/5 369/1/5
f 373/1/5 369/1/5 368/1/5
f 374/1/5 372/1/5 373/1/5
f 375/1/5 374/1/5 373/1/5
f 376/1/5 374/1/5 375/1/5
f 377/1/5 376/1/5 375/1/5
f 378/1/5 376/1/5 377/1/5
f 379/1/5 378/1/5 377/1/5
f 380/1/5 378/1/5 379/1/5
f 381/1/5 378/1/5 380/1/5
f 382/1/5 380/1/5 379/1/5
f 383/1/5 380/1/5 382/1/5
f 384/1/5 380/1/5 383/1/5
f 385/1/5 380/1/5 384/1/5
f 386/1/5 380/1/5 385/1/5
f 387/3/6 388/3/6 389/3/6
f 389/3/6 388/3/6 390/3/6
f 391/3/6 392/3/6 395/3/6
f 395/3/6 392/3/6 396/3/6
f 393/3/6 394/3/6 397/3/6
f 397/3/6 394/3/6 398/3/6
f 399/5/6 400/5/6 403/5/6
f 403/5/6 400/5/6 404/5/6
f 401/5/6 402/5/6 405/5/6
f 405/5/6 402/5/6 406/5/6
f 407/3/6 408/3/6 413/3/6
f 413/3/6 408/3/6 414/3/6
f 409/3/6 410/3/6 415/3/6
f 415/3/6 410/3/6 416/3/6
f 411/3/6 412/3/6 417/3/6
f 417/3/6 412/3/6 418/3/6
f 407/3/6 413/3/6 419/3/6
f 419/3/6 413/3/6 420/3/6
f 418/3/6 412/3/6 421/3/6
f 421/3/6 412/3/6 422/3/6
f 423/3/6 424/3/6 427/3/6
f 427/3/6 424/3/6 428/3/6
f 425/3/6 426/3/6 429/3/6
f 429/3/6 426/3/6 430/3/6
f 431/3/6 432/3/6 435/3/6
f 433/3/6 434/3/6 440/3/6
f 431/3/6 435/3/6 441/3/6
f 435/3/6 436/3/6 441/3/6
f 441/3/6 436/3/6 442/3/6
f 437/3/6 438/3/6 443/3/6
f 443/3/6 438/3/6 444/3/6
f 439/3/6 440/3/6 445/3/6
f 440/3/6 434/3/6 446/3/6
f 445/3/6 440/3/6 446/3/6
f 447/3/6 448/3/6 449/3/6
f 449/3/6 448/3/6 450/3/6
