# MagicaVoxel @ Ephtracy

# group
o 

# material
mtllib Hathor-5.mtl
usemtl palette

# normals
vn -1 0 0
vn 1 0 0
vn 0 0 1
vn 0 0 -1
vn 0 -1 0
vn 0 1 0

# texcoords
vt 0.0605469 0.5
vt 0.142578 0.5
vt 0.306641 0.5
vt 0.333984 0.5
vt 0.431641 0.5
vt 0.435547 0.5
vt 0.771484 0.5
vt 0.869141 0.5
vt 0.958984 0.5
vt 0.990234 0.5
vt 0.994141 0.5

# verts
v -0.7 0.9 -0.1
v -0.7 0.9 -1
v -0.7 1.9 -0.1
v -0.7 1.9 -1
v -0.7 2 0
v -0.7 2 -0.1
v -0.7 2.4 -0.1
v -0.7 2.4 -1
v -0.7 2.4 -1.2
v -0.7 3.7 0
v -0.7 3.7 -1.2
v -0.6 3.7 -0.1
v -0.6 3.7 -1.1
v -0.6 3.8 -0.1
v -0.6 3.8 -1.1
v -0.6 3.9 -0.1
v -0.6 3.9 -1.1
v -0.6 5 -0.6
v -0.6 5 -0.7
v -0.6 5.1 -0.6
v -0.6 5.1 -0.7
v -0.5 3.9 -0.2
v -0.5 3.9 -1
v -0.5 4 -0.2
v -0.5 4 -1
v -0.5 4.5 -0.6
v -0.5 4.5 -0.7
v -0.5 5 -0.6
v -0.5 5 -0.7
v -0.4 2.4 -0.2
v -0.4 2.4 -0.9
v -0.4 2.4 -1
v -0.4 2.5 -0.2
v -0.4 2.5 -0.9
v -0.4 2.6 -0.2
v -0.4 2.6 -0.9
v -0.4 2.7 -0.2
v -0.4 2.7 -0.9
v -0.4 2.7 -1
v -0.4 4.4 -0.6
v -0.4 4.4 -0.7
v -0.4 4.5 -0.6
v -0.4 4.5 -0.7
v -0.3 4.1 -0.4
v -0.3 4.1 -0.9
v -0.3 4.2 -0.4
v -0.3 4.2 -0.9
v -0.3 4.3 -0.6
v -0.3 4.3 -0.7
v -0.3 4.4 -0.6
v -0.3 4.4 -0.7
v -0.2 4 -0.5
v -0.2 4 -0.8
v -0.2 4.1 -0.5
v -0.2 4.1 -0.8
v -0.1 4.1 -0.6
v -0.1 4.1 -0.7
v -0.1 4.3 -0.6
v -0.1 4.3 -0.7
v 0.2 4.1 -0.5
v 0.2 4.1 -0.8
v 0.2 4.2 -0.5
v 0.2 4.2 -0.8
v 0.3 4.4 -0.6
v 0.3 4.4 -0.7
v 0.3 4.5 -0.6
v 0.3 4.5 -0.7
v 0.4 4.5 -0.6
v 0.4 4.5 -0.7
v 0.4 5 -0.6
v 0.4 5 -0.7
v 0.5 2 0
v 0.5 2 -0.1
v 0.5 2.4 -0.1
v 0.5 2.4 -1
v 0.5 2.7 -0.1
v 0.5 2.7 -1
v 0.5 3.2 -0.1
v 0.5 3.3 -0.1
v 0.5 3.6 0
v 0.5 3.6 -0.1
v 0.5 5 -0.6
v 0.5 5 -0.7
v 0.5 5.1 -0.6
v 0.5 5.1 -0.7
v -0.5 2 0
v -0.5 2 -0.1
v -0.5 2.4 -0.1
v -0.5 2.4 -1
v -0.5 2.7 -0.1
v -0.5 2.7 -1
v -0.5 3.2 -0.1
v -0.5 3.3 -0.1
v -0.5 3.6 0
v -0.5 3.6 -0.1
v -0.5 5 -0.6
v -0.5 5 -0.7
v -0.5 5.1 -0.6
v -0.5 5.1 -0.7
v -0.4 4.5 -0.6
v -0.4 4.5 -0.7
v -0.4 5 -0.6
v -0.4 5 -0.7
v -0.3 4.4 -0.6
v -0.3 4.4 -0.7
v -0.3 4.5 -0.6
v -0.3 4.5 -0.7
v -0.2 4.1 -0.5
v -0.2 4.1 -0.8
v -0.2 4.2 -0.5
v -0.2 4.2 -0.8
v 0.1 4.1 -0.6
v 0.1 4.1 -0.7
v 0.1 4.3 -0.6
v 0.1 4.3 -0.7
v 0.2 4 -0.5
v 0.2 4 -0.8
v 0.2 4.1 -0.5
v 0.2 4.1 -0.8
v 0.3 4.1 -0.4
v 0.3 4.1 -0.9
v 0.3 4.2 -0.4
v 0.3 4.2 -0.9
v 0.3 4.3 -0.6
v 0.3 4.3 -0.7
v 0.3 4.4 -0.6
v 0.3 4.4 -0.7
v 0.4 2.4 -0.2
v 0.4 2.4 -0.9
v 0.4 2.4 -1
v 0.4 2.5 -0.2
v 0.4 2.5 -0.9
v 0.4 2.6 -0.2
v 0.4 2.6 -0.9
v 0.4 2.7 -0.2
v 0.4 2.7 -0.9
v 0.4 2.7 -1
v 0.4 4.4 -0.6
v 0.4 4.4 -0.7
v 0.4 4.5 -0.6
v 0.4 4.5 -0.7
v 0.5 3.9 -0.2
v 0.5 3.9 -1
v 0.5 4 -0.2
v 0.5 4 -1
v 0.5 4.5 -0.6
v 0.5 4.5 -0.7
v 0.5 5 -0.6
v 0.5 5 -0.7
v 0.6 3.7 -0.1
v 0.6 3.7 -1.1
v 0.6 3.8 -0.1
v 0.6 3.8 -1.1
v 0.6 3.9 -0.1
v 0.6 3.9 -1.1
v 0.6 5 -0.6
v 0.6 5 -0.7
v 0.6 5.1 -0.6
v 0.6 5.1 -0.7
v 0.7 0.9 -0.1
v 0.7 0.9 -1
v 0.7 1.9 -0.1
v 0.7 1.9 -1
v 0.7 2 0
v 0.7 2 -0.1
v 0.7 2.4 -0.1
v 0.7 2.4 -1
v 0.7 2.4 -1.2
v 0.7 3.7 0
v 0.7 3.7 -1.2
v -0.7 2 0
v -0.7 3.7 0
v -0.5 2 0
v -0.5 3.6 0
v 0.5 2 0
v 0.5 3.6 0
v 0.7 2 0
v 0.7 3.7 0
v -0.7 0.9 -0.1
v -0.7 1.9 -0.1
v -0.7 2 -0.1
v -0.6 1.6 -0.1
v -0.6 1.7 -0.1
v -0.6 3.7 -0.1
v -0.6 3.8 -0.1
v -0.6 3.9 -0.1
v -0.5 1.9 -0.1
v -0.5 2 -0.1
v -0.5 2.4 -0.1
v -0.5 2.7 -0.1
v -0.5 3.2 -0.1
v -0.5 3.3 -0.1
v -0.5 3.6 -0.1
v -0.4 1.9 -0.1
v -0.4 2.4 -0.1
v -0.3 3.1 -0.1
v -0.3 3.2 -0.1
v -0.3 3.3 -0.1
v -0.3 3.4 -0.1
v -0.2 1.6 -0.1
v -0.2 1.7 -0.1
v -0.2 1.8 -0.1
v -0.2 2 -0.1
v -0.2 2.1 -0.1
v -0.2 2.8 -0.1
v -0.2 2.9 -0.1
v -0.2 3 -0.1
v -0.1 1.7 -0.1
v -0.1 1.8 -0.1
v -0.1 1.9 -0.1
v -0.1 2 -0.1
v -0.1 2.1 -0.1
v -0.1 3.1 -0.1
v -0.1 3.2 -0.1
v -0.1 3.3 -0.1
v -0.1 3.4 -0.1
v 0.1 1.7 -0.1
v 0.1 1.8 -0.1
v 0.1 1.9 -0.1
v 0.1 2 -0.1
v 0.1 2.1 -0.1
v 0.1 3.1 -0.1
v 0.1 3.2 -0.1
v 0.1 3.3 -0.1
v 0.1 3.4 -0.1
v 0.2 1.6 -0.1
v 0.2 1.7 -0.1
v 0.2 1.8 -0.1
v 0.2 2 -0.1
v 0.2 2.1 -0.1
v 0.2 2.8 -0.1
v 0.2 2.9 -0.1
v 0.2 3 -0.1
v 0.3 3.1 -0.1
v 0.3 3.2 -0.1
v 0.3 3.3 -0.1
v 0.3 3.4 -0.1
v 0.4 1.9 -0.1
v 0.4 2.4 -0.1
v 0.5 1.9 -0.1
v 0.5 2 -0.1
v 0.5 2.4 -0.1
v 0.5 2.7 -0.1
v 0.5 3.2 -0.1
v 0.5 3.3 -0.1
v 0.5 3.6 -0.1
v 0.6 1.6 -0.1
v 0.6 1.7 -0.1
v 0.6 3.7 -0.1
v 0.6 3.8 -0.1
v 0.6 3.9 -0.1
v 0.7 0.9 -0.1
v 0.7 1.9 -0.1
v 0.7 2 -0.1
v -0.5 3.9 -0.2
v -0.5 4 -0.2
v -0.4 2.4 -0.2
v -0.4 2.5 -0.2
v -0.4 2.6 -0.2
v -0.4 2.7 -0.2
v 0.4 2.4 -0.2
v 0.4 2.5 -0.2
v 0.4 2.6 -0.2
v 0.4 2.7 -0.2
v 0.5 3.9 -0.2
v 0.5 4 -0.2
v -0.3 4.1 -0.4
v -0.3 4.2 -0.4
v 0.3 4.1 -0.4
v 0.3 4.2 -0.4
v -0.2 4 -0.5
v -0.2 4.1 -0.5
v 0.2 4 -0.5
v 0.2 4.1 -0.5
v -0.6 5 -0.6
v -0.6 5.1 -0.6
v -0.5 4.5 -0.6
v -0.5 5 -0.6
v -0.5 5.1 -0.6
v -0.4 4.4 -0.6
v -0.4 4.5 -0.6
v -0.4 5 -0.6
v -0.3 4.3 -0.6
v -0.3 4.4 -0.6
v -0.3 4.5 -0.6
v -0.1 4.1 -0.6
v -0.1 4.3 -0.6
v 0.1 4.1 -0.6
v 0.1 4.3 -0.6
v 0.3 4.3 -0.6
v 0.3 4.4 -0.6
v 0.3 4.5 -0.6
v 0.4 4.4 -0.6
v 0.4 4.5 -0.6
v 0.4 5 -0.6
v 0.5 4.5 -0.6
v 0.5 5 -0.6
v 0.5 5.1 -0.6
v 0.6 5 -0.6
v 0.6 5.1 -0.6
v -0.2 4.1 -0.8
v -0.2 4.2 -0.8
v 0.2 4.1 -0.8
v 0.2 4.2 -0.8
v -0.5 2.4 -1
v -0.5 2.7 -1
v -0.4 2.4 -1
v -0.4 2.7 -1
v 0.4 2.4 -1
v 0.4 2.7 -1
v 0.5 2.4 -1
v 0.5 2.7 -1
v -0.2 4.1 -0.5
v -0.2 4.2 -0.5
v 0.2 4.1 -0.5
v 0.2 4.2 -0.5
v -0.6 5 -0.7
v -0.6 5.1 -0.7
v -0.5 4.5 -0.7
v -0.5 5 -0.7
v -0.5 5.1 -0.7
v -0.4 4.4 -0.7
v -0.4 4.5 -0.7
v -0.4 5 -0.7
v -0.3 4.3 -0.7
v -0.3 4.4 -0.7
v -0.3 4.5 -0.7
v -0.1 4.1 -0.7
v -0.1 4.3 -0.7
v 0.1 4.1 -0.7
v 0.1 4.3 -0.7
v 0.3 4.3 -0.7
v 0.3 4.4 -0.7
v 0.3 4.5 -0.7
v 0.4 4.4 -0.7
v 0.4 4.5 -0.7
v 0.4 5 -0.7
v 0.5 4.5 -0.7
v 0.5 5 -0.7
v 0.5 5.1 -0.7
v 0.6 5 -0.7
v 0.6 5.1 -0.7
v -0.2 4 -0.8
v -0.2 4.1 -0.8
v 0.2 4 -0.8
v 0.2 4.1 -0.8
v -0.3 4.1 -0.9
v -0.3 4.2 -0.9
v 0.3 4.1 -0.9
v 0.3 4.2 -0.9
v -0.7 0.9 -1
v -0.7 1.9 -1
v -0.7 2.4 -1
v -0.5 1.9 -1
v -0.5 2.4 -1
v -0.5 3.9 -1
v -0.5 4 -1
v -0.4 1.9 -1
v -0.4 2.4 -1
v 0.4 1.9 -1
v 0.4 2.4 -1
v 0.5 1.9 -1
v 0.5 2.4 -1
v 0.5 3.9 -1
v 0.5 4 -1
v 0.7 0.9 -1
v 0.7 1.9 -1
v 0.7 2.4 -1
v -0.6 3.7 -1.1
v -0.6 3.8 -1.1
v -0.6 3.9 -1.1
v 0.6 3.7 -1.1
v 0.6 3.8 -1.1
v 0.6 3.9 -1.1
v -0.7 2.4 -1.2
v -0.7 3.7 -1.2
v 0.7 2.4 -1.2
v 0.7 3.7 -1.2
v -0.7 0.9 -0.1
v 0.7 0.9 -0.1
v -0.7 0.9 -1
v 0.7 0.9 -1
v -0.7 2 0
v -0.5 2 0
v 0.5 2 0
v 0.7 2 0
v -0.7 2 -0.1
v -0.5 2 -0.1
v 0.5 2 -0.1
v 0.7 2 -0.1
v -0.7 2.4 -1
v -0.5 2.4 -1
v -0.4 2.4 -1
v 0.4 2.4 -1
v 0.5 2.4 -1
v 0.7 2.4 -1
v -0.7 2.4 -1.2
v 0.7 2.4 -1.2
v -0.5 2.7 -0.1
v 0.5 2.7 -0.1
v -0.4 2.7 -0.2
v 0.4 2.7 -0.2
v -0.4 2.7 -0.9
v 0.4 2.7 -0.9
v -0.5 2.7 -1
v -0.4 2.7 -1
v 0.4 2.7 -1
v 0.5 2.7 -1
v -0.5 3.6 0
v 0.5 3.6 0
v -0.5 3.6 -0.1
v 0.5 3.6 -0.1
v -0.3 4.1 -0.4
v 0.3 4.1 -0.4
v -0.2 4.1 -0.5
v 0.2 4.1 -0.5
v -0.2 4.1 -0.8
v 0.2 4.1 -0.8
v -0.3 4.1 -0.9
v 0.3 4.1 -0.9
v -0.3 4.3 -0.6
v -0.1 4.3 -0.6
v 0.1 4.3 -0.6
v 0.3 4.3 -0.6
v -0.3 4.3 -0.7
v -0.1 4.3 -0.7
v 0.1 4.3 -0.7
v 0.3 4.3 -0.7
v -0.4 4.4 -0.6
v -0.3 4.4 -0.6
v 0.3 4.4 -0.6
v 0.4 4.4 -0.6
v -0.4 4.4 -0.7
v -0.3 4.4 -0.7
v 0.3 4.4 -0.7
v 0.4 4.4 -0.7
v -0.5 4.5 -0.6
v -0.4 4.5 -0.6
v 0.4 4.5 -0.6
v 0.5 4.5 -0.6
v -0.5 4.5 -0.7
v -0.4 4.5 -0.7
v 0.4 4.5 -0.7
v 0.5 4.5 -0.7
v -0.6 5 -0.6
v -0.5 5 -0.6
v 0.5 5 -0.6
v 0.6 5 -0.6
v -0.6 5 -0.7
v -0.5 5 -0.7
v 0.5 5 -0.7
v 0.6 5 -0.7
v -0.5 2.4 -0.1
v -0.4 2.4 -0.1
v 0.4 2.4 -0.1
v 0.5 2.4 -0.1
v -0.4 2.4 -0.2
v 0.4 2.4 -0.2
v -0.4 2.4 -0.9
v 0.4 2.4 -0.9
v -0.5 2.4 -1
v -0.4 2.4 -1
v 0.4 2.4 -1
v 0.5 2.4 -1
v -0.7 3.7 0
v 0.7 3.7 0
v -0.6 3.7 -0.1
v 0.6 3.7 -0.1
v -0.6 3.7 -1.1
v 0.6 3.7 -1.1
v -0.7 3.7 -1.2
v 0.7 3.7 -1.2
v -0.6 3.9 -0.1
v 0.6 3.9 -0.1
v -0.5 3.9 -0.2
v 0.5 3.9 -0.2
v -0.5 3.9 -1
v 0.5 3.9 -1
v -0.6 3.9 -1.1
v 0.6 3.9 -1.1
v -0.5 4 -0.2
v 0.5 4 -0.2
v -0.2 4 -0.5
v 0.2 4 -0.5
v -0.2 4 -0.8
v 0.2 4 -0.8
v -0.5 4 -1
v 0.5 4 -1
v -0.2 4.1 -0.5
v 0.2 4.1 -0.5
v -0.1 4.1 -0.6
v 0.1 4.1 -0.6
v -0.1 4.1 -0.7
v 0.1 4.1 -0.7
v -0.2 4.1 -0.8
v 0.2 4.1 -0.8
v -0.3 4.2 -0.4
v 0.3 4.2 -0.4
v -0.2 4.2 -0.5
v 0.2 4.2 -0.5
v -0.2 4.2 -0.8
v 0.2 4.2 -0.8
v -0.3 4.2 -0.9
v 0.3 4.2 -0.9
v -0.3 4.4 -0.6
v 0.3 4.4 -0.6
v -0.3 4.4 -0.7
v 0.3 4.4 -0.7
v -0.4 4.5 -0.6
v -0.3 4.5 -0.6
v 0.3 4.5 -0.6
v 0.4 4.5 -0.6
v -0.4 4.5 -0.7
v -0.3 4.5 -0.7
v 0.3 4.5 -0.7
v 0.4 4.5 -0.7
v -0.5 5 -0.6
v -0.4 5 -0.6
v 0.4 5 -0.6
v 0.5 5 -0.6
v -0.5 5 -0.7
v -0.4 5 -0.7
v 0.4 5 -0.7
v 0.5 5 -0.7
v -0.6 5.1 -0.6
v -0.5 5.1 -0.6
v 0.5 5.1 -0.6
v 0.6 5.1 -0.6
v -0.6 5.1 -0.7
v -0.5 5.1 -0.7
v 0.5 5.1 -0.7
v 0.6 5.1 -0.7

# faces
f 3/1/1 2/1/1 1/1/1
f 4/1/1 2/1/1 3/1/1
f 6/3/1 4/3/1 3/3/1
f 7/3/1 4/3/1 6/3/1
f 7/8/1 6/8/1 5/8/1
f 8/3/1 4/3/1 7/3/1
f 10/8/1 8/8/1 7/8/1
f 10/8/1 9/8/1 8/8/1
f 10/8/1 7/8/1 5/8/1
f 11/8/1 9/8/1 10/8/1
f 14/1/1 13/1/1 12/1/1
f 15/1/1 13/1/1 14/1/1
f 16/8/1 15/8/1 14/8/1
f 17/8/1 15/8/1 16/8/1
f 20/10/1 19/10/1 18/10/1
f 21/10/1 19/10/1 20/10/1
f 24/8/1 23/8/1 22/8/1
f 25/8/1 23/8/1 24/8/1
f 28/10/1 27/10/1 26/10/1
f 29/10/1 27/10/1 28/10/1
f 33/7/1 31/7/1 30/7/1
f 34/8/1 32/8/1 31/8/1
f 34/7/1 31/7/1 33/7/1
f 35/1/1 34/1/1 33/1/1
f 36/8/1 32/8/1 34/8/1
f 36/1/1 34/1/1 35/1/1
f 37/7/1 36/7/1 35/7/1
f 38/8/1 32/8/1 36/8/1
f 38/7/1 36/7/1 37/7/1
f 39/8/1 32/8/1 38/8/1
f 42/10/1 41/10/1 40/10/1
f 43/10/1 41/10/1 42/10/1
f 46/1/1 45/1/1 44/1/1
f 47/1/1 45/1/1 46/1/1
f 50/10/1 49/10/1 48/10/1
f 51/10/1 49/10/1 50/10/1
f 54/1/1 53/1/1 52/1/1
f 55/1/1 53/1/1 54/1/1
f 58/10/1 57/10/1 56/10/1
f 59/10/1 57/10/1 58/10/1
f 62/1/1 61/1/1 60/1/1
f 63/1/1 61/1/1 62/1/1
f 66/10/1 65/10/1 64/10/1
f 67/10/1 65/10/1 66/10/1
f 70/10/1 69/10/1 68/10/1
f 71/10/1 69/10/1 70/10/1
f 74/8/1 73/8/1 72/8/1
f 76/8/1 74/8/1 72/8/1
f 76/8/1 75/8/1 74/8/1
f 77/8/1 75/8/1 76/8/1
f 78/8/1 76/8/1 72/8/1
f 79/8/1 78/8/1 72/8/1
f 80/8/1 79/8/1 72/8/1
f 81/8/1 79/8/1 80/8/1
f 84/10/1 83/10/1 82/10/1
f 85/10/1 83/10/1 84/10/1
f 86/8/2 87/8/2 88/8/2
f 86/8/2 88/8/2 90/8/2
f 88/8/2 89/8/2 90/8/2
f 90/8/2 89/8/2 91/8/2
f 86/8/2 90/8/2 92/8/2
f 86/8/2 92/8/2 93/8/2
f 86/8/2 93/8/2 94/8/2
f 94/8/2 93/8/2 95/8/2
f 96/10/2 97/10/2 98/10/2
f 98/10/2 97/10/2 99/10/2
f 100/10/2 101/10/2 102/10/2
f 102/10/2 101/10/2 103/10/2
f 104/10/2 105/10/2 106/10/2
f 106/10/2 105/10/2 107/10/2
f 108/1/2 109/1/2 110/1/2
f 110/1/2 109/1/2 111/1/2
f 112/10/2 113/10/2 114/10/2
f 114/10/2 113/10/2 115/10/2
f 116/1/2 117/1/2 118/1/2
f 118/1/2 117/1/2 119/1/2
f 120/1/2 121/1/2 122/1/2
f 122/1/2 121/1/2 123/1/2
f 124/10/2 125/10/2 126/10/2
f 126/10/2 125/10/2 127/10/2
f 128/7/2 129/7/2 131/7/2
f 129/8/2 130/8/2 132/8/2
f 131/7/2 129/7/2 132/7/2
f 131/1/2 132/1/2 133/1/2
f 132/8/2 130/8/2 134/8/2
f 133/1/2 132/1/2 134/1/2
f 133/7/2 134/7/2 135/7/2
f 134/8/2 130/8/2 136/8/2
f 135/7/2 134/7/2 136/7/2
f 136/8/2 130/8/2 137/8/2
f 138/10/2 139/10/2 140/10/2
f 140/10/2 139/10/2 141/10/2
f 142/8/2 143/8/2 144/8/2
f 144/8/2 143/8/2 145/8/2
f 146/10/2 147/10/2 148/10/2
f 148/10/2 147/10/2 149/10/2
f 150/1/2 151/1/2 152/1/2
f 152/1/2 151/1/2 153/1/2
f 152/8/2 153/8/2 154/8/2
f 154/8/2 153/8/2 155/8/2
f 156/10/2 157/10/2 158/10/2
f 158/10/2 157/10/2 159/10/2
f 160/1/2 161/1/2 162/1/2
f 162/1/2 161/1/2 163/1/2
f 162/3/2 163/3/2 165/3/2
f 165/3/2 163/3/2 166/3/2
f 164/8/2 165/8/2 166/8/2
f 166/3/2 163/3/2 167/3/2
f 166/8/2 167/8/2 169/8/2
f 167/8/2 168/8/2 169/8/2
f 164/8/2 166/8/2 169/8/2
f 169/8/2 168/8/2 170/8/2
f 173/8/3 172/8/3 171/8/3
f 174/8/3 172/8/3 173/8/3
f 176/8/3 172/8/3 174/8/3
f 177/8/3 176/8/3 175/8/3
f 178/8/3 172/8/3 176/8/3
f 178/8/3 176/8/3 177/8/3
f 182/1/3 180/1/3 179/1/3
f 183/1/3 180/1/3 182/1/3
f 187/3/3 181/3/3 180/3/3
f 187/1/3 180/1/3 183/1/3
f 188/3/3 181/3/3 187/3/3
f 194/1/3 187/1/3 183/1/3
f 194/1/3 188/1/3 187/1/3
f 194/1/3 189/1/3 188/1/3
f 195/1/3 189/1/3 194/1/3
f 196/3/3 191/3/3 190/3/3
f 197/11/3 192/11/3 191/11/3
f 197/3/3 191/3/3 196/3/3
f 198/3/3 193/3/3 192/3/3
f 198/11/3 192/11/3 197/11/3
f 199/3/3 193/3/3 198/3/3
f 200/1/3 182/1/3 179/1/3
f 200/2/3 183/2/3 182/2/3
f 201/1/3 194/1/3 183/1/3
f 201/2/3 183/2/3 200/2/3
f 202/1/3 194/1/3 201/1/3
f 203/3/3 195/3/3 194/3/3
f 204/3/3 195/3/3 203/3/3
f 205/3/3 196/3/3 190/3/3
f 206/3/3 196/3/3 205/3/3
f 207/3/3 196/3/3 206/3/3
f 208/1/3 201/1/3 200/1/3
f 208/2/3 202/2/3 201/2/3
f 209/1/3 194/1/3 202/1/3
f 209/2/3 202/2/3 208/2/3
f 210/3/3 203/3/3 194/3/3
f 210/1/3 194/1/3 209/1/3
f 211/4/3 204/4/3 203/4/3
f 211/3/3 203/3/3 210/3/3
f 212/3/3 195/3/3 204/3/3
f 212/4/3 204/4/3 211/4/3
f 213/11/3 197/11/3 196/11/3
f 213/3/3 196/3/3 207/3/3
f 214/9/3 198/9/3 197/9/3
f 214/11/3 197/11/3 213/11/3
f 215/11/3 199/11/3 198/11/3
f 215/9/3 198/9/3 214/9/3
f 216/3/3 193/3/3 199/3/3
f 216/11/3 199/11/3 215/11/3
f 217/1/3 208/1/3 200/1/3
f 217/1/3 209/1/3 208/1/3
f 217/1/3 210/1/3 209/1/3
f 218/1/3 210/1/3 217/1/3
f 219/4/3 211/4/3 210/4/3
f 219/1/3 210/1/3 218/1/3
f 220/3/3 212/3/3 211/3/3
f 220/4/3 211/4/3 219/4/3
f 221/3/3 195/3/3 212/3/3
f 221/3/3 212/3/3 220/3/3
f 222/3/3 215/3/3 214/3/3
f 222/3/3 214/3/3 213/3/3
f 222/3/3 213/3/3 207/3/3
f 222/3/3 216/3/3 215/3/3
f 223/3/3 216/3/3 222/3/3
f 224/3/3 216/3/3 223/3/3
f 225/3/3 193/3/3 216/3/3
f 225/3/3 216/3/3 224/3/3
f 226/1/3 200/1/3 179/1/3
f 226/1/3 217/1/3 200/1/3
f 227/2/3 218/2/3 217/2/3
f 227/1/3 217/1/3 226/1/3
f 228/1/3 219/1/3 218/1/3
f 228/2/3 218/2/3 227/2/3
f 229/4/3 221/4/3 220/4/3
f 229/3/3 220/3/3 219/3/3
f 230/3/3 195/3/3 221/3/3
f 230/4/3 221/4/3 229/4/3
f 231/3/3 205/3/3 190/3/3
f 231/6/3 206/6/3 205/6/3
f 232/5/3 207/5/3 206/5/3
f 232/6/3 206/6/3 231/6/3
f 233/3/3 222/3/3 207/3/3
f 233/5/3 207/5/3 232/5/3
f 234/3/3 232/3/3 231/3/3
f 234/3/3 222/3/3 233/3/3
f 234/3/3 233/3/3 232/3/3
f 234/11/3 223/11/3 222/11/3
f 235/9/3 224/9/3 223/9/3
f 235/11/3 223/11/3 234/11/3
f 236/11/3 225/11/3 224/11/3
f 236/9/3 224/9/3 235/9/3
f 237/3/3 193/3/3 225/3/3
f 237/11/3 225/11/3 236/11/3
f 238/3/3 229/3/3 219/3/3
f 238/1/3 219/1/3 228/1/3
f 238/1/3 228/1/3 227/1/3
f 238/3/3 230/3/3 229/3/3
f 239/3/3 195/3/3 230/3/3
f 239/3/3 230/3/3 238/3/3
f 240/1/3 238/1/3 227/1/3
f 240/1/3 239/1/3 238/1/3
f 241/1/3 239/1/3 240/1/3
f 242/1/3 239/1/3 241/1/3
f 243/3/3 234/3/3 231/3/3
f 243/3/3 235/3/3 234/3/3
f 243/3/3 231/3/3 190/3/3
f 244/11/3 236/11/3 235/11/3
f 244/3/3 235/3/3 243/3/3
f 245/3/3 237/3/3 236/3/3
f 245/11/3 236/11/3 244/11/3
f 246/3/3 193/3/3 237/3/3
f 246/3/3 237/3/3 245/3/3
f 247/2/3 227/2/3 226/2/3
f 247/1/3 226/1/3 179/1/3
f 248/1/3 240/1/3 227/1/3
f 248/2/3 227/2/3 247/2/3
f 249/1/3 185/1/3 184/1/3
f 250/8/3 186/8/3 185/8/3
f 250/1/3 185/1/3 249/1/3
f 251/8/3 186/8/3 250/8/3
f 252/1/3 247/1/3 179/1/3
f 252/1/3 248/1/3 247/1/3
f 253/1/3 240/1/3 248/1/3
f 253/1/3 248/1/3 252/1/3
f 253/3/3 241/3/3 240/3/3
f 254/3/3 241/3/3 253/3/3
f 261/7/3 258/7/3 257/7/3
f 262/1/3 259/1/3 258/1/3
f 262/7/3 258/7/3 261/7/3
f 263/7/3 260/7/3 259/7/3
f 263/1/3 259/1/3 262/1/3
f 264/7/3 260/7/3 263/7/3
f 265/8/3 256/8/3 255/8/3
f 266/8/3 256/8/3 265/8/3
f 269/1/3 268/1/3 267/1/3
f 270/1/3 268/1/3 269/1/3
f 273/1/3 272/1/3 271/1/3
f 274/1/3 272/1/3 273/1/3
f 278/10/3 276/10/3 275/10/3
f 279/10/3 276/10/3 278/10/3
f 281/10/3 278/10/3 277/10/3
f 282/10/3 278/10/3 281/10/3
f 284/10/3 281/10/3 280/10/3
f 285/10/3 281/10/3 284/10/3
f 287/10/3 284/10/3 283/10/3
f 288/10/3 287/10/3 286/10/3
f 289/10/3 284/10/3 287/10/3
f 289/10/3 287/10/3 288/10/3
f 290/10/3 284/10/3 289/10/3
f 291/10/3 284/10/3 290/10/3
f 293/10/3 292/10/3 291/10/3
f 294/10/3 292/10/3 293/10/3
f 296/10/3 295/10/3 294/10/3
f 297/10/3 295/10/3 296/10/3
f 299/10/3 298/10/3 297/10/3
f 300/10/3 298/10/3 299/10/3
f 303/1/3 302/1/3 301/1/3
f 304/1/3 302/1/3 303/1/3
f 307/8/3 306/8/3 305/8/3
f 308/8/3 306/8/3 307/8/3
f 311/8/3 310/8/3 309/8/3
f 312/8/3 310/8/3 311/8/3
f 313/1/4 314/1/4 315/1/4
f 315/1/4 314/1/4 316/1/4
f 317/10/4 318/10/4 320/10/4
f 320/10/4 318/10/4 321/10/4
f 319/10/4 320/10/4 323/10/4
f 323/10/4 320/10/4 324/10/4
f 322/10/4 323/10/4 326/10/4
f 326/10/4 323/10/4 327/10/4
f 325/10/4 326/10/4 329/10/4
f 328/10/4 329/10/4 330/10/4
f 329/10/4 326/10/4 331/10/4
f 330/10/4 329/10/4 331/10/4
f 331/10/4 326/10/4 332/10/4
f 332/10/4 326/10/4 333/10/4
f 333/10/4 334/10/4 335/10/4
f 335/10/4 334/10/4 336/10/4
f 336/10/4 337/10/4 338/10/4
f 338/10/4 337/10/4 339/10/4
f 339/10/4 340/10/4 341/10/4
f 341/10/4 340/10/4 342/10/4
f 343/1/4 344/1/4 345/1/4
f 345/1/4 344/1/4 346/1/4
f 347/1/4 348/1/4 349/1/4
f 349/1/4 348/1/4 350/1/4
f 351/1/4 352/1/4 354/1/4
f 352/3/4 353/3/4 354/3/4
f 354/3/4 353/3/4 355/3/4
f 351/1/4 354/1/4 358/1/4
f 354/1/4 355/1/4 358/1/4
f 358/1/4 355/1/4 359/1/4
f 351/1/4 358/1/4 360/1/4
f 358/3/4 359/3/4 360/3/4
f 360/3/4 359/3/4 361/3/4
f 351/1/4 360/1/4 362/1/4
f 360/1/4 361/1/4 362/1/4
f 362/1/4 361/1/4 363/1/4
f 356/8/4 357/8/4 364/8/4
f 364/8/4 357/8/4 365/8/4
f 351/1/4 362/1/4 366/1/4
f 362/3/4 363/3/4 367/3/4
f 366/1/4 362/1/4 367/1/4
f 367/3/4 363/3/4 368/3/4
f 369/1/4 370/1/4 372/1/4
f 370/8/4 371/8/4 373/8/4
f 372/1/4 370/1/4 373/1/4
f 373/8/4 371/8/4 374/8/4
f 375/8/4 376/8/4 377/8/4
f 377/8/4 376/8/4 378/8/4
f 381/1/5 380/1/5 379/1/5
f 382/1/5 380/1/5 381/1/5
f 387/8/5 384/8/5 383/8/5
f 388/8/5 384/8/5 387/8/5
f 389/8/5 386/8/5 385/8/5
f 390/8/5 386/8/5 389/8/5
f 397/8/5 392/8/5 391/8/5
f 397/8/5 396/8/5 395/8/5
f 397/8/5 395/8/5 394/8/5
f 397/8/5 394/8/5 393/8/5
f 397/8/5 393/8/5 392/8/5
f 398/8/5 396/8/5 397/8/5
f 401/3/5 400/3/5 399/3/5
f 402/3/5 400/3/5 401/3/5
f 403/3/5 401/3/5 399/3/5
f 404/3/5 400/3/5 402/3/5
f 405/3/5 403/3/5 399/3/5
f 406/3/5 403/3/5 405/3/5
f 407/3/5 400/3/5 404/3/5
f 408/3/5 400/3/5 407/3/5
f 411/8/5 410/8/5 409/8/5
f 412/8/5 410/8/5 411/8/5
f 415/1/5 414/1/5 413/1/5
f 416/1/5 414/1/5 415/1/5
f 417/1/5 415/1/5 413/1/5
f 418/1/5 414/1/5 416/1/5
f 419/1/5 417/1/5 413/1/5
f 419/1/5 418/1/5 417/1/5
f 420/1/5 414/1/5 418/1/5
f 420/1/5 418/1/5 419/1/5
f 425/10/5 422/10/5 421/10/5
f 426/10/5 422/10/5 425/10/5
f 427/10/5 424/10/5 423/10/5
f 428/10/5 424/10/5 427/10/5
f 433/10/5 430/10/5 429/10/5
f 434/10/5 430/10/5 433/10/5
f 435/10/5 432/10/5 431/10/5
f 436/10/5 432/10/5 435/10/5
f 441/10/5 438/10/5 437/10/5
f 442/10/5 438/10/5 441/10/5
f 443/10/5 440/10/5 439/10/5
f 444/10/5 440/10/5 443/10/5
f 449/10/5 446/10/5 445/10/5
f 450/10/5 446/10/5 449/10/5
f 451/10/5 448/10/5 447/10/5
f 452/10/5 448/10/5 451/10/5
f 453/1/6 454/1/6 457/1/6
f 454/3/6 455/3/6 457/3/6
f 455/1/6 456/1/6 458/1/6
f 457/3/6 455/3/6 458/3/6
f 453/1/6 457/1/6 459/1/6
f 458/1/6 456/1/6 460/1/6
f 453/1/6 459/1/6 461/1/6
f 461/1/6 459/1/6 462/1/6
f 460/1/6 456/1/6 463/1/6
f 463/1/6 456/1/6 464/1/6
f 465/8/6 466/8/6 467/8/6
f 467/8/6 466/8/6 468/8/6
f 465/8/6 467/8/6 469/8/6
f 468/8/6 466/8/6 470/8/6
f 465/8/6 469/8/6 471/8/6
f 469/8/6 470/8/6 471/8/6
f 470/8/6 466/8/6 472/8/6
f 471/8/6 470/8/6 472/8/6
f 473/8/6 474/8/6 475/8/6
f 475/8/6 474/8/6 476/8/6
f 473/8/6 475/8/6 477/8/6
f 476/8/6 474/8/6 478/8/6
f 473/8/6 477/8/6 479/8/6
f 477/8/6 478/8/6 479/8/6
f 478/8/6 474/8/6 480/8/6
f 479/8/6 478/8/6 480/8/6
f 481/8/6 482/8/6 483/8/6
f 483/8/6 482/8/6 484/8/6
f 481/8/6 483/8/6 485/8/6
f 484/8/6 482/8/6 486/8/6
f 481/8/6 485/8/6 487/8/6
f 485/8/6 486/8/6 487/8/6
f 486/8/6 482/8/6 488/8/6
f 487/8/6 486/8/6 488/8/6
f 489/1/6 490/1/6 491/1/6
f 491/1/6 490/1/6 492/1/6
f 489/1/6 491/1/6 493/1/6
f 492/1/6 490/1/6 494/1/6
f 489/1/6 493/1/6 495/1/6
f 493/1/6 494/1/6 495/1/6
f 494/1/6 490/1/6 496/1/6
f 495/1/6 494/1/6 496/1/6
f 497/1/6 498/1/6 499/1/6
f 499/1/6 498/1/6 500/1/6
f 497/1/6 499/1/6 501/1/6
f 500/1/6 498/1/6 502/1/6
f 497/1/6 501/1/6 503/1/6
f 501/1/6 502/1/6 503/1/6
f 502/1/6 498/1/6 504/1/6
f 503/1/6 502/1/6 504/1/6
f 505/10/6 506/10/6 507/10/6
f 507/10/6 506/10/6 508/10/6
f 509/10/6 510/10/6 513/10/6
f 513/10/6 510/10/6 514/10/6
f 511/10/6 512/10/6 515/10/6
f 515/10/6 512/10/6 516/10/6
f 517/10/6 518/10/6 521/10/6
f 521/10/6 518/10/6 522/10/6
f 519/10/6 520/10/6 523/10/6
f 523/10/6 520/10/6 524/10/6
f 525/10/6 526/10/6 529/10/6
f 529/10/6 526/10/6 530/10/6
f 527/10/6 528/10/6 531/10/6
f 531/10/6 528/10/6 532/10/6
