# MagicaVoxel @ Ephtracy

# group
o 

# material
mtllib Osiris-3.mtl
usemtl palette

# normals
vn -1 0 0
vn 1 0 0
vn 0 0 1
vn 0 0 -1
vn 0 -1 0
vn 0 1 0

# texcoords
vt 0.587891 0.5
vt 0.615234 0.5
vt 0.958984 0.5

# verts
v -1.2 0.8 -0.3
v -1.2 0.8 -0.4
v -1.2 0.8 -0.5
v -1.2 0.8 -0.6
v -1.2 0.8 -0.7
v -1.2 0.8 -0.8
v -1.2 0.9 -0.4
v -1.2 0.9 -0.5
v -1.2 0.9 -0.6
v -1.2 0.9 -0.7
v -1.2 1.3 -0.3
v -1.2 1.3 -0.8
v -1.2 2.3 -0.3
v -1.2 2.3 -0.8
v -1 0.8 0.4
v -1 0.8 0.3
v -1 0.9 0.4
v -1 0.9 0.3
v -1 0.9 0.1
v -1 0.9 0
v -1 0.9 -0.1
v -1 0.9 -0.2
v -1 0.9 -0.9
v -1 0.9 -1
v -1 1 0.4
v -1 1 0.3
v -1 1 0.1
v -1 1 0
v -1 1 -0.1
v -1 1 -0.2
v -1 1 -0.3
v -1 1 -0.9
v -1 1 -1
v -1 1.1 0.4
v -1 1.1 0.3
v -1 1.1 0.2
v -1 1.1 0.1
v -1 1.1 0
v -1 1.1 -0.1
v -1 1.1 -0.3
v -1 1.2 0.3
v -1 1.2 0.2
v -1 1.2 0.1
v -1 1.2 0
v -1.1 0.8 -0.3
v -1.1 0.8 -0.4
v -1.1 0.8 -0.5
v -1.1 0.8 -0.6
v -1.1 0.8 -0.7
v -1.1 0.8 -0.8
v -1.1 0.9 -0.3
v -1.1 0.9 -0.4
v -1.1 0.9 -0.5
v -1.1 0.9 -0.6
v -1.1 0.9 -0.7
v -1.1 0.9 -0.8
v -0.9 0.8 0.4
v -0.9 0.8 0.3
v -0.9 0.9 0.4
v -0.9 0.9 0.3
v -0.9 0.9 0.1
v -0.9 0.9 0
v -0.9 0.9 -0.1
v -0.9 0.9 -0.2
v -0.9 0.9 -0.9
v -0.9 0.9 -1
v -0.9 1 0.4
v -0.9 1 0.3
v -0.9 1 0.1
v -0.9 1 0
v -0.9 1 -0.1
v -0.9 1 -0.2
v -0.9 1 -0.3
v -0.9 1 -0.9
v -0.9 1 -1
v -0.9 1.1 0.4
v -0.9 1.1 0.3
v -0.9 1.1 0.2
v -0.9 1.1 0.1
v -0.9 1.1 0
v -0.9 1.1 -0.1
v -0.9 1.1 -0.3
v -0.9 1.2 0.3
v -0.9 1.2 0.2
v -0.9 1.2 0.1
v -0.9 1.2 0
v -0.8 0.9 -0.3
v -0.8 0.9 -0.8
v -0.8 1.3 -0.3
v -0.8 1.3 -0.8
v -0.8 2.3 -0.3
v -0.8 2.3 -0.8
v -1 0.8 0.4
v -1 0.9 0.4
v -1 1 0.4
v -1 1.1 0.4
v -0.9 0.8 0.4
v -0.9 0.9 0.4
v -0.9 1 0.4
v -0.9 1.1 0.4
v -1 1.1 0.3
v -1 1.2 0.3
v -0.9 1.1 0.3
v -0.9 1.2 0.3
v -1 0.9 0.1
v -1 1 0.1
v -1 1.1 0.1
v -1 1.2 0.1
v -0.9 0.9 0.1
v -0.9 1 0.1
v -0.9 1.1 0.1
v -0.9 1.2 0.1
v -1 0.9 -0.1
v -1 1 -0.1
v -1 1.1 -0.1
v -0.9 0.9 -0.1
v -0.9 1 -0.1
v -0.9 1.1 -0.1
v -1.2 0.8 -0.3
v -1.2 1.3 -0.3
v -1.2 2.3 -0.3
v -1.1 0.8 -0.3
v -1.1 0.9 -0.3
v -1 1 -0.3
v -1 1.1 -0.3
v -0.9 1 -0.3
v -0.9 1.1 -0.3
v -0.8 0.9 -0.3
v -0.8 1.3 -0.3
v -0.8 2.3 -0.3
v -1.2 0.8 -0.5
v -1.2 0.9 -0.5
v -1.1 0.8 -0.5
v -1.1 0.9 -0.5
v -1.2 0.8 -0.7
v -1.2 0.9 -0.7
v -1.1 0.8 -0.7
v -1.1 0.9 -0.7
v -1 0.9 -0.9
v -1 1 -0.9
v -0.9 0.9 -0.9
v -0.9 1 -0.9
v -1 0.8 0.3
v -1 0.9 0.3
v -1 1 0.3
v -1 1.1 0.3
v -0.9 0.8 0.3
v -0.9 0.9 0.3
v -0.9 1 0.3
v -0.9 1.1 0.3
v -1 1.1 0.2
v -1 1.2 0.2
v -0.9 1.1 0.2
v -0.9 1.2 0.2
v -1 0.9 0
v -1 1 0
v -1 1.1 0
v -1 1.2 0
v -0.9 0.9 0
v -0.9 1 0
v -0.9 1.1 0
v -0.9 1.2 0
v -1 0.9 -0.2
v -1 1 -0.2
v -0.9 0.9 -0.2
v -0.9 1 -0.2
v -1.2 0.8 -0.4
v -1.2 0.9 -0.4
v -1.1 0.8 -0.4
v -1.1 0.9 -0.4
v -1.2 0.8 -0.6
v -1.2 0.9 -0.6
v -1.1 0.8 -0.6
v -1.1 0.9 -0.6
v -1.2 0.8 -0.8
v -1.2 1.3 -0.8
v -1.2 2.3 -0.8
v -1.1 0.8 -0.8
v -1.1 0.9 -0.8
v -0.8 0.9 -0.8
v -0.8 1.3 -0.8
v -0.8 2.3 -0.8
v -1 0.9 -1
v -1 1 -1
v -0.9 0.9 -1
v -0.9 1 -1
v -1 0.8 0.4
v -0.9 0.8 0.4
v -1 0.8 0.3
v -0.9 0.8 0.3
v -1.2 0.8 -0.3
v -1.1 0.8 -0.3
v -1.2 0.8 -0.4
v -1.1 0.8 -0.4
v -1.2 0.8 -0.5
v -1.1 0.8 -0.5
v -1.2 0.8 -0.6
v -1.1 0.8 -0.6
v -1.2 0.8 -0.7
v -1.1 0.8 -0.7
v -1.2 0.8 -0.8
v -1.1 0.8 -0.8
v -1 0.9 0.1
v -0.9 0.9 0.1
v -1 0.9 0
v -0.9 0.9 0
v -1 0.9 -0.1
v -0.9 0.9 -0.1
v -1 0.9 -0.2
v -0.9 0.9 -0.2
v -1.1 0.9 -0.3
v -0.8 0.9 -0.3
v -1.2 0.9 -0.4
v -1.1 0.9 -0.4
v -1.2 0.9 -0.5
v -1.1 0.9 -0.5
v -1.2 0.9 -0.6
v -1.1 0.9 -0.6
v -1.2 0.9 -0.7
v -1.1 0.9 -0.7
v -1.1 0.9 -0.8
v -0.8 0.9 -0.8
v -1 0.9 -0.9
v -0.9 0.9 -0.9
v -1 0.9 -1
v -0.9 0.9 -1
v -1 1 0.4
v -0.9 1 0.4
v -1 1 0.3
v -0.9 1 0.3
v -1 1 -0.2
v -0.9 1 -0.2
v -1 1 -0.3
v -0.9 1 -0.3
v -1 1.1 0.3
v -0.9 1.1 0.3
v -1 1.1 0.2
v -0.9 1.1 0.2
v -1 1.1 0.1
v -0.9 1.1 0.1
v -1 1.1 0
v -0.9 1.1 0
v -1 0.9 0.4
v -0.9 0.9 0.4
v -1 0.9 0.3
v -0.9 0.9 0.3
v -1 1 0.1
v -0.9 1 0.1
v -1 1 0
v -0.9 1 0
v -1 1 -0.9
v -0.9 1 -0.9
v -1 1 -1
v -0.9 1 -1
v -1 1.1 0.4
v -0.9 1.1 0.4
v -1 1.1 0.3
v -0.9 1.1 0.3
v -1 1.1 -0.1
v -0.9 1.1 -0.1
v -1 1.1 -0.3
v -0.9 1.1 -0.3
v -1 1.2 0.3
v -0.9 1.2 0.3
v -1 1.2 0.2
v -0.9 1.2 0.2
v -1 1.2 0.1
v -0.9 1.2 0.1
v -1 1.2 0
v -0.9 1.2 0
v -1.2 2.3 -0.3
v -0.8 2.3 -0.3
v -1.2 2.3 -0.8
v -0.8 2.3 -0.8

# faces
f 7/2/1 2/2/1 1/2/1
f 8/2/1 4/2/1 3/2/1
f 9/2/1 4/2/1 8/2/1
f 10/2/1 6/2/1 5/2/1
f 11/2/1 9/2/1 8/2/1
f 11/2/1 10/2/1 9/2/1
f 11/2/1 7/2/1 1/2/1
f 11/2/1 8/2/1 7/2/1
f 12/2/1 6/2/1 10/2/1
f 12/2/1 10/2/1 11/2/1
f 13/3/1 12/3/1 11/3/1
f 14/3/1 12/3/1 13/3/1
f 17/1/1 16/1/1 15/1/1
f 18/1/1 16/1/1 17/1/1
f 27/1/1 20/1/1 19/1/1
f 28/1/1 20/1/1 27/1/1
f 29/1/1 22/1/1 21/1/1
f 30/1/1 22/1/1 29/1/1
f 32/1/1 24/1/1 23/1/1
f 33/1/1 24/1/1 32/1/1
f 34/1/1 26/1/1 25/1/1
f 35/1/1 26/1/1 34/1/1
f 39/2/1 31/2/1 30/2/1
f 39/2/1 30/2/1 29/2/1
f 40/2/1 31/2/1 39/2/1
f 41/1/1 36/1/1 35/1/1
f 42/1/1 36/1/1 41/1/1
f 43/1/1 38/1/1 37/1/1
f 44/1/1 38/1/1 43/1/1
f 45/2/2 46/2/2 51/2/2
f 51/2/2 46/2/2 52/2/2
f 47/2/2 48/2/2 53/2/2
f 53/2/2 48/2/2 54/2/2
f 49/2/2 50/2/2 55/2/2
f 55/2/2 50/2/2 56/2/2
f 57/1/2 58/1/2 59/1/2
f 59/1/2 58/1/2 60/1/2
f 61/1/2 62/1/2 69/1/2
f 69/1/2 62/1/2 70/1/2
f 63/1/2 64/1/2 71/1/2
f 71/1/2 64/1/2 72/1/2
f 65/1/2 66/1/2 74/1/2
f 74/1/2 66/1/2 75/1/2
f 67/1/2 68/1/2 76/1/2
f 76/1/2 68/1/2 77/1/2
f 72/2/2 73/2/2 81/2/2
f 71/2/2 72/2/2 81/2/2
f 81/2/2 73/2/2 82/2/2
f 77/1/2 78/1/2 83/1/2
f 83/1/2 78/1/2 84/1/2
f 79/1/2 80/1/2 85/1/2
f 85/1/2 80/1/2 86/1/2
f 87/2/2 88/2/2 89/2/2
f 89/2/2 88/2/2 90/2/2
f 89/3/2 90/3/2 91/3/2
f 91/3/2 90/3/2 92/3/2
f 97/1/3 94/1/3 93/1/3
f 98/1/3 94/1/3 97/1/3
f 99/1/3 96/1/3 95/1/3
f 100/1/3 96/1/3 99/1/3
f 103/1/3 102/1/3 101/1/3
f 104/1/3 102/1/3 103/1/3
f 109/1/3 106/1/3 105/1/3
f 110/1/3 106/1/3 109/1/3
f 111/1/3 108/1/3 107/1/3
f 112/1/3 108/1/3 111/1/3
f 116/1/3 114/1/3 113/1/3
f 117/2/3 115/2/3 114/2/3
f 117/1/3 114/1/3 116/1/3
f 118/2/3 115/2/3 117/2/3
f 122/2/3 120/2/3 119/2/3
f 123/2/3 120/2/3 122/2/3
f 124/2/3 120/2/3 123/2/3
f 125/2/3 120/2/3 124/2/3
f 126/2/3 124/2/3 123/2/3
f 127/2/3 120/2/3 125/2/3
f 128/2/3 126/2/3 123/2/3
f 128/2/3 127/2/3 126/2/3
f 129/3/3 121/3/3 120/3/3
f 129/2/3 127/2/3 128/2/3
f 129/2/3 120/2/3 127/2/3
f 130/3/3 121/3/3 129/3/3
f 133/2/3 132/2/3 131/2/3
f 134/2/3 132/2/3 133/2/3
f 137/2/3 136/2/3 135/2/3
f 138/2/3 136/2/3 137/2/3
f 141/1/3 140/1/3 139/1/3
f 142/1/3 140/1/3 141/1/3
f 143/1/4 144/1/4 147/1/4
f 147/1/4 144/1/4 148/1/4
f 145/1/4 146/1/4 149/1/4
f 149/1/4 146/1/4 150/1/4
f 151/1/4 152/1/4 153/1/4
f 153/1/4 152/1/4 154/1/4
f 155/1/4 156/1/4 159/1/4
f 159/1/4 156/1/4 160/1/4
f 157/1/4 158/1/4 161/1/4
f 161/1/4 158/1/4 162/1/4
f 163/1/4 164/1/4 165/1/4
f 165/1/4 164/1/4 166/1/4
f 167/2/4 168/2/4 169/2/4
f 169/2/4 168/2/4 170/2/4
f 171/2/4 172/2/4 173/2/4
f 173/2/4 172/2/4 174/2/4
f 175/2/4 176/2/4 178/2/4
f 178/2/4 176/2/4 179/2/4
f 179/2/4 176/2/4 180/2/4
f 176/3/4 177/3/4 181/3/4
f 180/2/4 176/2/4 181/2/4
f 181/3/4 177/3/4 182/3/4
f 183/1/4 184/1/4 185/1/4
f 185/1/4 184/1/4 186/1/4
f 189/1/5 188/1/5 187/1/5
f 190/1/5 188/1/5 189/1/5
f 193/2/5 192/2/5 191/2/5
f 194/2/5 192/2/5 193/2/5
f 197/2/5 196/2/5 195/2/5
f 198/2/5 196/2/5 197/2/5
f 201/2/5 200/2/5 199/2/5
f 202/2/5 200/2/5 201/2/5
f 205/1/5 204/1/5 203/1/5
f 206/1/5 204/1/5 205/1/5
f 209/1/5 208/1/5 207/1/5
f 210/1/5 208/1/5 209/1/5
f 214/2/5 212/2/5 211/2/5
f 215/2/5 214/2/5 213/2/5
f 216/2/5 212/2/5 214/2/5
f 216/2/5 214/2/5 215/2/5
f 218/2/5 212/2/5 216/2/5
f 219/2/5 218/2/5 217/2/5
f 220/2/5 212/2/5 218/2/5
f 220/2/5 218/2/5 219/2/5
f 221/2/5 212/2/5 220/2/5
f 222/2/5 212/2/5 221/2/5
f 225/1/5 224/1/5 223/1/5
f 226/1/5 224/1/5 225/1/5
f 229/1/5 228/1/5 227/1/5
f 230/1/5 228/1/5 229/1/5
f 233/2/5 232/2/5 231/2/5
f 234/2/5 232/2/5 233/2/5
f 237/1/5 236/1/5 235/1/5
f 238/1/5 236/1/5 237/1/5
f 241/1/5 240/1/5 239/1/5
f 242/1/5 240/1/5 241/1/5
f 243/1/6 244/1/6 245/1/6
f 245/1/6 244/1/6 246/1/6
f 247/1/6 248/1/6 249/1/6
f 249/1/6 248/1/6 250/1/6
f 251/1/6 252/1/6 253/1/6
f 253/1/6 252/1/6 254/1/6
f 255/1/6 256/1/6 257/1/6
f 257/1/6 256/1/6 258/1/6
f 259/2/6 260/2/6 261/2/6
f 261/2/6 260/2/6 262/2/6
f 263/1/6 264/1/6 265/1/6
f 265/1/6 264/1/6 266/1/6
f 267/1/6 268/1/6 269/1/6
f 269/1/6 268/1/6 270/1/6
f 271/3/6 272/3/6 273/3/6
f 273/3/6 272/3/6 274/3/6
