# MagicaVoxel @ Ephtracy

# group
o 

# material
mtllib Anubis_25-3.mtl
usemtl palette

# normals
vn -1 0 0
vn 1 0 0
vn 0 0 1
vn 0 0 -1
vn 0 -1 0
vn 0 1 0

# texcoords
vt 0.818359 0.5
vt 0.923828 0.5

# verts
v 7.2 17.9 2.3
v 7.2 17.9 2.2
v 7.2 17.9 2.1
v 7.2 18 2.2
v 7.2 18 2.1
v 7.2 18.5 2.3
v 7.2 18.5 2.1
v 7.4 17.7 2.3
v 7.4 17.7 2.1
v 7.4 17.8 2.3
v 7.4 17.8 2.2
v 7.4 17.9 2.3
v 7.4 17.9 2.2
v 7.4 17.9 2.1
v 7.6 17.5 2.3
v 7.6 17.5 2.1
v 7.6 17.7 2.3
v 7.6 17.7 2.1
v 7.8 18.3 2.3
v 7.8 18.3 2.1
v 7.8 18.5 2.3
v 7.8 18.5 2.1
v 7.6 18.3 2.3
v 7.6 18.3 2.1
v 7.6 18.5 2.3
v 7.6 18.5 2.1
v 7.8 17.5 2.3
v 7.8 17.5 2.1
v 7.8 17.7 2.3
v 7.8 17.7 2.1
v 8 17.7 2.3
v 8 17.7 2.1
v 8 17.8 2.3
v 8 17.8 2.1
v 8 17.9 2.3
v 8 17.9 2.2
v 8 17.9 2.1
v 8.2 17.9 2.3
v 8.2 17.9 2.1
v 8.2 18.5 2.3
v 8.2 18.5 2.1
v 7.2 17.9 2.3
v 7.2 18.5 2.3
v 7.4 17.7 2.3
v 7.4 17.8 2.3
v 7.4 17.9 2.3
v 7.6 17.5 2.3
v 7.6 17.7 2.3
v 7.6 18.3 2.3
v 7.6 18.5 2.3
v 7.8 17.5 2.3
v 7.8 17.7 2.3
v 7.8 18.3 2.3
v 7.8 18.5 2.3
v 8 17.7 2.3
v 8 17.8 2.3
v 8 17.9 2.3
v 8.2 17.9 2.3
v 8.2 18.5 2.3
v 7.2 17.9 2.1
v 7.2 18 2.1
v 7.2 18.5 2.1
v 7.4 17.7 2.1
v 7.4 17.9 2.1
v 7.6 17.5 2.1
v 7.6 17.7 2.1
v 7.6 18.3 2.1
v 7.6 18.5 2.1
v 7.8 17.5 2.1
v 7.8 17.7 2.1
v 7.8 18.3 2.1
v 7.8 18.5 2.1
v 7.9 17.8 2.1
v 7.9 17.9 2.1
v 8 17.7 2.1
v 8 17.8 2.1
v 8 17.9 2.1
v 8.1 17.9 2.1
v 8.1 18 2.1
v 8.2 17.9 2.1
v 8.2 18.5 2.1
v 7.6 17.5 2.3
v 7.8 17.5 2.3
v 7.6 17.5 2.1
v 7.8 17.5 2.1
v 7.4 17.7 2.3
v 7.6 17.7 2.3
v 7.8 17.7 2.3
v 8 17.7 2.3
v 7.4 17.7 2.1
v 7.6 17.7 2.1
v 7.8 17.7 2.1
v 8 17.7 2.1
v 7.2 17.9 2.3
v 7.4 17.9 2.3
v 8 17.9 2.3
v 8.2 17.9 2.3
v 7.2 17.9 2.2
v 7.4 17.9 2.2
v 8 17.9 2.2
v 8.1 17.9 2.2
v 7.2 17.9 2.1
v 7.4 17.9 2.1
v 8 17.9 2.1
v 8.1 17.9 2.1
v 8.2 17.9 2.1
v 7.6 18.3 2.3
v 7.8 18.3 2.3
v 7.6 18.3 2.1
v 7.8 18.3 2.1
v 7.2 18.5 2.3
v 7.6 18.5 2.3
v 7.8 18.5 2.3
v 8.2 18.5 2.3
v 7.2 18.5 2.1
v 7.6 18.5 2.1
v 7.8 18.5 2.1
v 8.2 18.5 2.1

# faces
f 4/1/1 2/1/1 1/1/1
f 4/2/1 3/2/1 2/2/1
f 5/2/1 3/2/1 4/2/1
f 6/1/1 4/1/1 1/1/1
f 6/1/1 5/1/1 4/1/1
f 7/1/1 5/1/1 6/1/1
f 10/2/1 9/2/1 8/2/1
f 11/2/1 9/2/1 10/2/1
f 12/1/1 11/1/1 10/1/1
f 13/2/1 9/2/1 11/2/1
f 13/1/1 11/1/1 12/1/1
f 14/2/1 9/2/1 13/2/1
f 17/2/1 16/2/1 15/2/1
f 18/2/1 16/2/1 17/2/1
f 21/1/1 20/1/1 19/1/1
f 22/1/1 20/1/1 21/1/1
f 23/1/2 24/1/2 25/1/2
f 25/1/2 24/1/2 26/1/2
f 27/2/2 28/2/2 29/2/2
f 29/2/2 28/2/2 30/2/2
f 31/2/2 32/2/2 33/2/2
f 33/2/2 32/2/2 34/2/2
f 33/1/2 34/1/2 35/1/2
f 35/1/2 34/1/2 36/1/2
f 36/1/2 34/1/2 37/1/2
f 38/1/2 39/1/2 40/1/2
f 40/1/2 39/1/2 41/1/2
f 46/1/3 43/1/3 42/1/3
f 48/2/3 45/2/3 44/2/3
f 49/1/3 46/1/3 45/1/3
f 49/1/3 43/1/3 46/1/3
f 50/1/3 43/1/3 49/1/3
f 51/2/3 48/2/3 47/2/3
f 52/2/3 45/2/3 48/2/3
f 52/2/3 48/2/3 51/2/3
f 53/1/3 49/1/3 45/1/3
f 55/2/3 45/2/3 52/2/3
f 56/1/3 54/1/3 53/1/3
f 56/2/3 45/2/3 55/2/3
f 56/1/3 53/1/3 45/1/3
f 57/1/3 54/1/3 56/1/3
f 58/1/3 54/1/3 57/1/3
f 59/1/3 54/1/3 58/1/3
f 60/2/4 61/2/4 64/2/4
f 63/2/4 64/2/4 66/2/4
f 61/1/4 62/1/4 67/1/4
f 67/1/4 62/1/4 68/1/4
f 65/2/4 66/2/4 69/2/4
f 66/2/4 64/2/4 70/2/4
f 69/2/4 66/2/4 70/2/4
f 61/1/4 67/1/4 71/1/4
f 70/2/4 64/2/4 73/2/4
f 64/2/4 61/2/4 74/2/4
f 73/2/4 64/2/4 74/2/4
f 70/2/4 73/2/4 75/2/4
f 73/1/4 74/1/4 76/1/4
f 75/2/4 73/2/4 76/2/4
f 74/2/4 61/2/4 77/2/4
f 76/1/4 74/1/4 77/1/4
f 77/2/4 61/2/4 78/2/4
f 71/1/4 72/1/4 79/1/4
f 78/2/4 61/2/4 79/2/4
f 61/1/4 71/1/4 79/1/4
f 78/1/4 79/1/4 80/1/4
f 79/1/4 72/1/4 81/1/4
f 80/1/4 79/1/4 81/1/4
f 84/2/5 83/2/5 82/2/5
f 85/2/5 83/2/5 84/2/5
f 90/2/5 87/2/5 86/2/5
f 91/2/5 87/2/5 90/2/5
f 92/2/5 89/2/5 88/2/5
f 93/2/5 89/2/5 92/2/5
f 98/1/5 95/1/5 94/1/5
f 99/1/5 95/1/5 98/1/5
f 100/1/5 97/1/5 96/1/5
f 101/1/5 97/1/5 100/1/5
f 102/2/5 99/2/5 98/2/5
f 103/2/5 99/2/5 102/2/5
f 104/2/5 101/2/5 100/2/5
f 105/1/5 97/1/5 101/1/5
f 105/2/5 101/2/5 104/2/5
f 106/1/5 97/1/5 105/1/5
f 107/1/6 108/1/6 109/1/6
f 109/1/6 108/1/6 110/1/6
f 111/1/6 112/1/6 115/1/6
f 115/1/6 112/1/6 116/1/6
f 113/1/6 114/1/6 117/1/6
f 117/1/6 114/1/6 118/1/6
