# MagicaVoxel @ Ephtracy

# group
o 

# material
mtllib Anubis_25-0.mtl
usemtl palette

# normals
vn -1 0 0
vn 1 0 0
vn 0 0 1
vn 0 0 -1
vn 0 -1 0
vn 0 1 0

# texcoords
vt 0.939453 0.5
vt 0.970703 0.5
vt 0.982422 0.5

# verts
v 5.3 20.4 0.4
v 5.3 20.4 0.3
v 5.3 20.4 0.1
v 5.3 20.5 1.4
v 5.3 20.5 0.4
v 5.3 20.6 1.4
v 5.3 20.6 0.5
v 5.3 20.6 0.3
v 5.3 20.7 1.4
v 5.3 20.7 0.5
v 5.3 20.7 0.3
v 5.3 20.7 0.1
v 5.4 20.3 1.3
v 5.4 20.3 1.2
v 5.4 20.5 1.3
v 5.4 20.5 1.2
v 5.4 20.6 0.5
v 5.4 20.6 0.3
v 5.4 20.7 1.3
v 5.4 20.7 0.7
v 5.4 20.7 0.5
v 5.4 20.7 0.3
v 5.4 20.7 0.1
v 5.4 20.8 1.3
v 5.4 20.8 0.7
v 5.4 20.8 0.3
v 5.4 20.8 0.1
v 5.5 20.7 0.7
v 5.5 20.7 0.6
v 5.5 20.8 0.7
v 5.5 20.8 0.6
v 5.6 20.7 0.6
v 5.6 20.7 0.2
v 5.6 20.8 0.6
v 5.6 20.8 0.2
v 5.7 20.7 1.4
v 5.7 20.7 1.3
v 5.7 20.8 1.3
v 5.7 20.8 1.1
v 5.7 21 1.4
v 5.7 21 1.1
v 6.2 20.4 0.4
v 6.2 20.4 0.3
v 6.2 20.4 0.1
v 6.2 20.5 0.4
v 6.2 20.5 0.3
v 6.2 20.5 0.1
v 5.4 20.4 0.4
v 5.4 20.4 0.3
v 5.4 20.4 0.1
v 5.4 20.5 0.4
v 5.4 20.5 0.3
v 5.4 20.5 0.1
v 5.5 20.3 1.3
v 5.5 20.3 1.2
v 5.5 20.5 1.3
v 5.5 20.5 1.2
v 5.5 20.7 0.3
v 5.5 20.7 0.2
v 5.5 20.8 0.3
v 5.5 20.8 0.2
v 5.9 20.5 1.2
v 5.9 20.5 0.9
v 5.9 20.6 1.2
v 5.9 20.6 0.9
v 5.9 20.7 1.4
v 5.9 20.7 1.3
v 5.9 20.7 1.2
v 5.9 20.7 0.8
v 5.9 20.8 1.3
v 5.9 20.8 1.2
v 5.9 20.8 1.1
v 5.9 20.8 0.8
v 5.9 21 1.4
v 5.9 21 1.1
v 6 20.5 1.4
v 6 20.5 1.2
v 6 20.5 0.9
v 6 20.5 0.7
v 6 20.6 1.4
v 6 20.6 1.2
v 6 20.6 0.9
v 6 20.6 0.8
v 6 20.6 0.7
v 6 20.7 1.4
v 6 20.7 1.3
v 6 20.7 1.2
v 6 20.7 0.8
v 6 20.8 1.3
v 6 20.8 1.2
v 6.1 20.6 0.8
v 6.1 20.6 0.7
v 6.1 20.7 0.8
v 6.1 20.7 0.7
v 6.2 20.5 0.7
v 6.2 20.5 0.6
v 6.2 20.6 0.7
v 6.2 20.6 0.6
v 6.2 20.6 0.5
v 6.2 20.7 0.8
v 6.2 20.7 0.7
v 6.2 20.7 0.5
v 6.2 20.7 0.1
v 6.2 20.8 0.8
v 6.2 20.8 0.1
v 6.3 20.4 0.4
v 6.3 20.4 0.3
v 6.3 20.4 0.1
v 6.3 20.5 0.6
v 6.3 20.5 0.4
v 6.3 20.6 0.6
v 6.3 20.6 0.5
v 6.3 20.6 0.3
v 6.3 20.7 0.5
v 6.3 20.7 0.1
v 5.3 20.5 1.4
v 5.3 20.6 1.4
v 5.3 20.7 1.4
v 5.7 20.7 1.4
v 5.7 21 1.4
v 5.9 20.7 1.4
v 5.9 21 1.4
v 6 20.5 1.4
v 6 20.6 1.4
v 6 20.7 1.4
v 5.4 20.3 1.3
v 5.4 20.5 1.3
v 5.4 20.7 1.3
v 5.4 20.8 1.3
v 5.5 20.3 1.3
v 5.5 20.5 1.3
v 5.7 20.7 1.3
v 5.7 20.8 1.3
v 5.9 20.7 1.3
v 5.9 20.8 1.3
v 6 20.7 1.3
v 6 20.8 1.3
v 5.9 20.5 0.9
v 5.9 20.6 0.9
v 6 20.5 0.9
v 6 20.6 0.9
v 5.9 20.7 0.8
v 5.9 20.8 0.8
v 6 20.6 0.8
v 6 20.7 0.8
v 6.1 20.6 0.8
v 6.1 20.7 0.8
v 6.2 20.7 0.8
v 6.2 20.8 0.8
v 6 20.5 0.7
v 6 20.6 0.7
v 6.1 20.6 0.7
v 6.1 20.7 0.7
v 6.2 20.5 0.7
v 6.2 20.6 0.7
v 6.2 20.7 0.7
v 6.2 20.5 0.6
v 6.2 20.6 0.6
v 6.3 20.5 0.6
v 6.3 20.6 0.6
v 6.2 20.6 0.5
v 6.2 20.7 0.5
v 6.3 20.6 0.5
v 6.3 20.7 0.5
v 5.3 20.4 0.4
v 5.3 20.5 0.4
v 5.4 20.4 0.4
v 5.4 20.5 0.4
v 6.2 20.4 0.4
v 6.2 20.5 0.4
v 6.3 20.4 0.4
v 6.3 20.5 0.4
v 5.3 20.6 0.3
v 5.3 20.7 0.3
v 5.4 20.6 0.3
v 5.4 20.7 0.3
v 5.4 20.8 0.3
v 5.5 20.7 0.3
v 5.5 20.8 0.3
v 5.5 20.7 0.2
v 5.5 20.8 0.2
v 5.6 20.7 0.2
v 5.6 20.8 0.2
v 5.4 20.3 1.2
v 5.4 20.5 1.2
v 5.5 20.3 1.2
v 5.5 20.5 1.2
v 5.9 20.5 1.2
v 5.9 20.6 1.2
v 5.9 20.7 1.2
v 5.9 20.8 1.2
v 6 20.5 1.2
v 6 20.6 1.2
v 6 20.7 1.2
v 6 20.8 1.2
v 5.7 20.8 1.1
v 5.7 21 1.1
v 5.9 20.8 1.1
v 5.9 21 1.1
v 5.4 20.7 0.7
v 5.4 20.8 0.7
v 5.5 20.7 0.7
v 5.5 20.8 0.7
v 5.5 20.7 0.6
v 5.5 20.8 0.6
v 5.6 20.7 0.6
v 5.6 20.8 0.6
v 5.3 20.6 0.5
v 5.3 20.7 0.5
v 5.4 20.6 0.5
v 5.4 20.7 0.5
v 5.3 20.4 0.1
v 5.3 20.7 0.1
v 5.4 20.4 0.1
v 5.4 20.5 0.1
v 5.4 20.7 0.1
v 5.4 20.8 0.1
v 6.2 20.4 0.1
v 6.2 20.5 0.1
v 6.2 20.7 0.1
v 6.2 20.8 0.1
v 6.3 20.4 0.1
v 6.3 20.7 0.1
v 5.4 20.3 1.3
v 5.5 20.3 1.3
v 5.4 20.3 1.2
v 5.5 20.3 1.2
v 5.3 20.4 0.4
v 5.4 20.4 0.4
v 6.2 20.4 0.4
v 6.3 20.4 0.4
v 5.3 20.4 0.3
v 5.4 20.4 0.3
v 6.2 20.4 0.3
v 6.3 20.4 0.3
v 5.3 20.4 0.1
v 5.4 20.4 0.1
v 6.2 20.4 0.1
v 6.3 20.4 0.1
v 5.3 20.5 1.4
v 6 20.5 1.4
v 5.4 20.5 1.3
v 5.5 20.5 1.3
v 5.4 20.5 1.2
v 5.5 20.5 1.2
v 5.9 20.5 1.2
v 6 20.5 1.2
v 5.9 20.5 0.9
v 6 20.5 0.9
v 6 20.5 0.7
v 6.2 20.5 0.7
v 6.2 20.5 0.6
v 6.3 20.5 0.6
v 5.3 20.5 0.4
v 5.4 20.5 0.4
v 6.2 20.5 0.4
v 6.3 20.5 0.4
v 5.4 20.5 0.3
v 6.2 20.5 0.3
v 5.4 20.5 0.1
v 6.2 20.5 0.1
v 5.9 20.6 1.2
v 6 20.6 1.2
v 5.9 20.6 0.9
v 6 20.6 0.9
v 6 20.6 0.8
v 6.1 20.6 0.8
v 6 20.6 0.7
v 6.1 20.6 0.7
v 6.1 20.7 0.8
v 6.2 20.7 0.8
v 6.1 20.7 0.7
v 6.2 20.7 0.7
v 6.2 20.6 0.6
v 6.3 20.6 0.6
v 5.3 20.6 0.5
v 5.4 20.6 0.5
v 6.2 20.6 0.5
v 6.3 20.6 0.5
v 5.3 20.6 0.3
v 5.4 20.6 0.3
v 5.3 20.7 1.4
v 5.7 20.7 1.4
v 5.9 20.7 1.4
v 6 20.7 1.4
v 5.4 20.7 1.3
v 5.7 20.7 1.3
v 5.9 20.7 1.3
v 6 20.7 1.3
v 5.9 20.7 1.2
v 6 20.7 1.2
v 5.9 20.7 0.8
v 6 20.7 0.8
v 5.4 20.7 0.7
v 5.5 20.7 0.7
v 5.5 20.7 0.6
v 5.6 20.7 0.6
v 5.3 20.7 0.5
v 5.4 20.7 0.5
v 6.2 20.7 0.5
v 6.3 20.7 0.5
v 5.3 20.7 0.3
v 5.4 20.7 0.3
v 5.5 20.7 0.3
v 5.5 20.7 0.2
v 5.6 20.7 0.2
v 5.3 20.7 0.1
v 5.4 20.7 0.1
v 6.2 20.7 0.1
v 6.3 20.7 0.1
v 5.4 20.8 1.3
v 5.7 20.8 1.3
v 5.9 20.8 1.3
v 6 20.8 1.3
v 5.9 20.8 1.2
v 6 20.8 1.2
v 5.7 20.8 1.1
v 5.9 20.8 1.1
v 5.9 20.8 0.8
v 6.2 20.8 0.8
v 5.4 20.8 0.7
v 5.5 20.8 0.7
v 5.5 20.8 0.6
v 5.6 20.8 0.6
v 5.4 20.8 0.3
v 5.5 20.8 0.3
v 5.5 20.8 0.2
v 5.6 20.8 0.2
v 5.4 20.8 0.1
v 6.2 20.8 0.1
v 5.7 21 1.4
v 5.9 21 1.4
v 5.7 21 1.1
v 5.9 21 1.1

# faces
f 5/1/1 2/1/1 1/1/1
f 6/1/1 5/1/1 4/1/1
f 7/1/1 5/1/1 6/1/1
f 8/2/1 3/2/1 2/2/1
f 8/1/1 5/1/1 7/1/1
f 8/1/1 2/1/1 5/1/1
f 9/2/1 7/2/1 6/2/1
f 10/2/1 7/2/1 9/2/1
f 11/2/1 3/2/1 8/2/1
f 12/2/1 3/2/1 11/2/1
f 15/3/1 14/3/1 13/3/1
f 16/3/1 14/3/1 15/3/1
f 21/2/1 18/2/1 17/2/1
f 22/2/1 18/2/1 21/2/1
f 24/2/1 20/2/1 19/2/1
f 25/2/1 20/2/1 24/2/1
f 26/2/1 23/2/1 22/2/1
f 27/2/1 23/2/1 26/2/1
f 30/2/1 29/2/1 28/2/1
f 31/2/1 29/2/1 30/2/1
f 34/2/1 33/2/1 32/2/1
f 35/2/1 33/2/1 34/2/1
f 38/1/1 37/1/1 36/1/1
f 40/1/1 38/1/1 36/1/1
f 40/1/1 39/1/1 38/1/1
f 41/1/1 39/1/1 40/1/1
f 45/1/1 43/1/1 42/1/1
f 46/2/1 44/2/1 43/2/1
f 46/1/1 43/1/1 45/1/1
f 47/2/1 44/2/1 46/2/1
f 48/1/2 49/1/2 51/1/2
f 49/2/2 50/2/2 52/2/2
f 51/1/2 49/1/2 52/1/2
f 52/2/2 50/2/2 53/2/2
f 54/3/2 55/3/2 56/3/2
f 56/3/2 55/3/2 57/3/2
f 58/2/2 59/2/2 60/2/2
f 60/2/2 59/2/2 61/2/2
f 62/1/2 63/1/2 64/1/2
f 64/1/2 63/1/2 65/1/2
f 66/1/2 67/1/2 70/1/2
f 68/2/2 69/2/2 71/2/2
f 71/2/2 69/2/2 72/2/2
f 72/2/2 69/2/2 73/2/2
f 66/1/2 70/1/2 74/1/2
f 70/1/2 71/1/2 74/1/2
f 71/1/2 72/1/2 74/1/2
f 74/1/2 72/1/2 75/1/2
f 76/1/2 77/1/2 80/1/2
f 80/1/2 77/1/2 81/1/2
f 78/1/2 79/1/2 82/1/2
f 82/1/2 79/1/2 83/1/2
f 83/1/2 79/1/2 84/1/2
f 80/2/2 81/2/2 85/2/2
f 81/2/2 82/2/2 85/2/2
f 82/2/2 83/2/2 85/2/2
f 85/2/2 83/2/2 86/2/2
f 86/2/2 83/2/2 87/2/2
f 87/2/2 83/2/2 88/2/2
f 86/2/2 87/2/2 89/2/2
f 89/2/2 87/2/2 90/2/2
f 91/2/2 92/2/2 93/2/2
f 93/2/2 92/2/2 94/2/2
f 95/1/2 96/1/2 97/1/2
f 97/1/2 96/1/2 98/1/2
f 97/2/2 98/2/2 101/2/2
f 98/2/2 99/2/2 101/2/2
f 101/2/2 99/2/2 102/2/2
f 100/2/2 101/2/2 104/2/2
f 102/2/2 103/2/2 104/2/2
f 101/2/2 102/2/2 104/2/2
f 104/2/2 103/2/2 105/2/2
f 106/1/2 107/1/2 110/1/2
f 109/1/2 110/1/2 111/1/2
f 111/1/2 110/1/2 112/1/2
f 107/2/2 108/2/2 113/2/2
f 112/1/2 110/1/2 113/1/2
f 110/1/2 107/1/2 113/1/2
f 112/2/2 113/2/2 114/2/2
f 113/2/2 108/2/2 115/2/2
f 114/2/2 113/2/2 115/2/2
f 119/2/3 118/2/3 117/2/3
f 121/2/3 119/2/3 117/2/3
f 121/1/3 120/1/3 119/1/3
f 122/1/3 120/1/3 121/1/3
f 123/1/3 117/1/3 116/1/3
f 124/2/3 121/2/3 117/2/3
f 124/1/3 117/1/3 123/1/3
f 125/2/3 121/2/3 124/2/3
f 130/3/3 127/3/3 126/3/3
f 131/3/3 127/3/3 130/3/3
f 132/2/3 129/2/3 128/2/3
f 133/2/3 129/2/3 132/2/3
f 136/2/3 135/2/3 134/2/3
f 137/2/3 135/2/3 136/2/3
f 140/1/3 139/1/3 138/1/3
f 141/1/3 139/1/3 140/1/3
f 145/2/3 143/2/3 142/2/3
f 146/2/3 145/2/3 144/2/3
f 147/2/3 143/2/3 145/2/3
f 147/2/3 145/2/3 146/2/3
f 148/2/3 143/2/3 147/2/3
f 149/2/3 143/2/3 148/2/3
f 152/1/3 151/1/3 150/1/3
f 154/1/3 152/1/3 150/1/3
f 155/2/3 153/2/3 152/2/3
f 155/1/3 152/1/3 154/1/3
f 156/2/3 153/2/3 155/2/3
f 159/1/3 158/1/3 157/1/3
f 160/1/3 158/1/3 159/1/3
f 163/2/3 162/2/3 161/2/3
f 164/2/3 162/2/3 163/2/3
f 167/1/3 166/1/3 165/1/3
f 168/1/3 166/1/3 167/1/3
f 171/1/3 170/1/3 169/1/3
f 172/1/3 170/1/3 171/1/3
f 175/2/3 174/2/3 173/2/3
f 176/2/3 174/2/3 175/2/3
f 178/2/3 177/2/3 176/2/3
f 179/2/3 177/2/3 178/2/3
f 182/2/3 181/2/3 180/2/3
f 183/2/3 181/2/3 182/2/3
f 184/3/4 185/3/4 186/3/4
f 186/3/4 185/3/4 187/3/4
f 188/1/4 189/1/4 192/1/4
f 192/1/4 189/1/4 193/1/4
f 190/2/4 191/2/4 194/2/4
f 194/2/4 191/2/4 195/2/4
f 196/1/4 197/1/4 198/1/4
f 198/1/4 197/1/4 199/1/4
f 200/2/4 201/2/4 202/2/4
f 202/2/4 201/2/4 203/2/4
f 204/2/4 205/2/4 206/2/4
f 206/2/4 205/2/4 207/2/4
f 208/2/4 209/2/4 210/2/4
f 210/2/4 209/2/4 211/2/4
f 212/2/4 213/2/4 214/2/4
f 214/2/4 213/2/4 215/2/4
f 215/2/4 213/2/4 216/2/4
f 216/2/4 217/2/4 219/2/4
f 215/2/4 216/2/4 219/2/4
f 219/2/4 217/2/4 220/2/4
f 220/2/4 217/2/4 221/2/4
f 218/2/4 219/2/4 222/2/4
f 219/2/4 220/2/4 222/2/4
f 222/2/4 220/2/4 223/2/4
f 226/3/5 225/3/5 224/3/5
f 227/3/5 225/3/5 226/3/5
f 232/1/5 229/1/5 228/1/5
f 233/1/5 229/1/5 232/1/5
f 234/1/5 231/1/5 230/1/5
f 235/1/5 231/1/5 234/1/5
f 236/2/5 233/2/5 232/2/5
f 237/2/5 233/2/5 236/2/5
f 238/2/5 235/2/5 234/2/5
f 239/2/5 235/2/5 238/2/5
f 242/1/5 241/1/5 240/1/5
f 243/1/5 241/1/5 242/1/5
f 244/1/5 242/1/5 240/1/5
f 245/1/5 241/1/5 243/1/5
f 246/1/5 241/1/5 245/1/5
f 247/1/5 241/1/5 246/1/5
f 248/1/5 245/1/5 244/1/5
f 248/1/5 246/1/5 245/1/5
f 250/1/5 249/1/5 248/1/5
f 252/1/5 251/1/5 250/1/5
f 254/1/5 244/1/5 240/1/5
f 254/1/5 253/1/5 252/1/5
f 254/1/5 252/1/5 250/1/5
f 254/1/5 248/1/5 244/1/5
f 254/1/5 250/1/5 248/1/5
f 255/1/5 253/1/5 254/1/5
f 256/1/5 253/1/5 255/1/5
f 257/1/5 253/1/5 256/1/5
f 258/1/5 256/1/5 255/1/5
f 259/1/5 256/1/5 258/1/5
f 260/2/5 259/2/5 258/2/5
f 261/2/5 259/2/5 260/2/5
f 264/2/5 263/2/5 262/2/5
f 265/2/5 263/2/5 264/2/5
f 268/2/5 267/2/5 266/2/5
f 269/2/5 267/2/5 268/2/5
f 272/2/5 271/2/5 270/2/5
f 273/2/5 271/2/5 272/2/5
f 274/1/6 275/1/6 278/1/6
f 278/1/6 275/1/6 279/1/6
f 276/1/6 277/1/6 280/1/6
f 280/1/6 277/1/6 281/1/6
f 282/2/6 283/2/6 286/2/6
f 286/2/6 283/2/6 287/2/6
f 284/2/6 285/2/6 288/2/6
f 288/2/6 285/2/6 289/2/6
f 290/2/6 291/2/6 292/2/6
f 292/2/6 291/2/6 293/2/6
f 282/2/6 286/2/6 294/2/6
f 294/2/6 295/2/6 296/2/6
f 282/2/6 294/2/6 298/2/6
f 296/2/6 297/2/6 298/2/6
f 294/2/6 296/2/6 298/2/6
f 298/2/6 297/2/6 299/2/6
f 299/2/6 297/2/6 303/2/6
f 303/2/6 297/2/6 304/2/6
f 304/2/6 297/2/6 305/2/6
f 305/2/6 297/2/6 306/2/6
f 302/2/6 303/2/6 307/2/6
f 307/2/6 303/2/6 308/2/6
f 300/2/6 301/2/6 309/2/6
f 309/2/6 301/2/6 310/2/6
f 313/2/6 314/2/6 315/2/6
f 315/2/6 314/2/6 316/2/6
f 311/2/6 312/2/6 317/2/6
f 317/2/6 318/2/6 319/2/6
f 317/2/6 319/2/6 321/2/6
f 319/2/6 320/2/6 321/2/6
f 311/2/6 317/2/6 321/2/6
f 321/2/6 320/2/6 322/2/6
f 322/2/6 320/2/6 323/2/6
f 323/2/6 320/2/6 324/2/6
f 325/2/6 326/2/6 327/2/6
f 324/2/6 320/2/6 328/2/6
f 325/2/6 327/2/6 329/2/6
f 327/2/6 328/2/6 329/2/6
f 328/2/6 320/2/6 330/2/6
f 329/2/6 328/2/6 330/2/6
f 331/1/6 332/1/6 333/1/6
f 333/1/6 332/1/6 334/1/6
