# MagicaVoxel @ Ephtracy

# group
o 

# material
mtllib shadow-2.mtl
usemtl palette

# normals
vn -1 0 0
vn 1 0 0
vn 0 0 1
vn 0 0 -1
vn 0 -1 0
vn 0 1 0

# texcoords
vt 0.943359 0.5
vt 0.947266 0.5

# verts
v -12.8 0 38.4
v -12.8 0 14.2
v -12.8 0 12.8
v -12.8 0.1 38.4
v -12.8 0.1 14.2
v -12.8 0.2 14.2
v -12.8 0.2 12.8
v -1 0.1 38.4
v -1 0.1 12.8
v -1 0.2 38.4
v -1 0.2 12.8
v 11.4 0.1 12.9
v 11.4 0.1 12.8
v 11.4 0.2 12.9
v 11.4 0.2 12.8
v 11.5 0.1 13
v 11.5 0.1 12.9
v 11.5 0.2 13
v 11.5 0.2 12.9
v 11.6 0.1 13.1
v 11.6 0.1 13
v 11.6 0.2 13.1
v 11.6 0.2 13
v 11.7 0.1 13.2
v 11.7 0.1 13.1
v 11.7 0.2 13.2
v 11.7 0.2 13.1
v 11.8 0.1 13.3
v 11.8 0.1 13.2
v 11.8 0.2 13.3
v 11.8 0.2 13.2
v 11.9 0.1 13.4
v 11.9 0.1 13.3
v 11.9 0.2 13.4
v 11.9 0.2 13.3
v 12 0.1 13.5
v 12 0.1 13.4
v 12 0.2 13.5
v 12 0.2 13.4
v 12.1 0.1 13.6
v 12.1 0.1 13.5
v 12.1 0.2 13.6
v 12.1 0.2 13.5
v 12.2 0.1 13.7
v 12.2 0.1 13.6
v 12.2 0.2 13.7
v 12.2 0.2 13.6
v 12.3 0.1 13.8
v 12.3 0.1 13.7
v 12.3 0.2 13.8
v 12.3 0.2 13.7
v 12.4 0.1 13.9
v 12.4 0.1 13.8
v 12.4 0.2 13.9
v 12.4 0.2 13.8
v 12.5 0.1 14
v 12.5 0.1 13.9
v 12.5 0.2 14
v 12.5 0.2 13.9
v 12.6 0.1 14.1
v 12.6 0.1 14
v 12.6 0.2 14.1
v 12.6 0.2 14
v 12.7 0.1 14.2
v 12.7 0.1 14.1
v 12.7 0.2 14.2
v 12.7 0.2 14.1
v -12.7 0.1 14.2
v -12.7 0.1 14.1
v -12.7 0.2 14.2
v -12.7 0.2 14.1
v -12.6 0.1 14.1
v -12.6 0.1 14
v -12.6 0.2 14.1
v -12.6 0.2 14
v -12.5 0.1 14
v -12.5 0.1 13.9
v -12.5 0.2 14
v -12.5 0.2 13.9
v -12.4 0.1 13.9
v -12.4 0.1 13.8
v -12.4 0.2 13.9
v -12.4 0.2 13.8
v -12.3 0.1 13.8
v -12.3 0.1 13.7
v -12.3 0.2 13.8
v -12.3 0.2 13.7
v -12.2 0.1 13.7
v -12.2 0.1 13.6
v -12.2 0.2 13.7
v -12.2 0.2 13.6
v -12.1 0.1 13.6
v -12.1 0.1 13.5
v -12.1 0.2 13.6
v -12.1 0.2 13.5
v -12 0.1 13.5
v -12 0.1 13.4
v -12 0.2 13.5
v -12 0.2 13.4
v -11.9 0.1 13.4
v -11.9 0.1 13.3
v -11.9 0.2 13.4
v -11.9 0.2 13.3
v -11.8 0.1 13.3
v -11.8 0.1 13.2
v -11.8 0.2 13.3
v -11.8 0.2 13.2
v -11.7 0.1 13.2
v -11.7 0.1 13.1
v -11.7 0.2 13.2
v -11.7 0.2 13.1
v -11.6 0.1 13.1
v -11.6 0.1 13
v -11.6 0.2 13.1
v -11.6 0.2 13
v -11.5 0.1 13
v -11.5 0.1 12.9
v -11.5 0.2 13
v -11.5 0.2 12.9
v -11.4 0.1 12.9
v -11.4 0.1 12.8
v -11.4 0.2 12.9
v -11.4 0.2 12.8
v 1 0.1 38.4
v 1 0.1 12.8
v 1 0.2 38.4
v 1 0.2 12.8
v 12.8 0 38.4
v 12.8 0 14.2
v 12.8 0 12.8
v 12.8 0.1 38.4
v 12.8 0.1 14.2
v 12.8 0.2 14.2
v 12.8 0.2 12.8
v -12.8 0 38.4
v -12.8 0.1 38.4
v -1 0 38.4
v -1 0.1 38.4
v -1 0.2 38.4
v 1 0 38.4
v 1 0.1 38.4
v 1 0.2 38.4
v 12.8 0 38.4
v 12.8 0.1 38.4
v -12.8 0.1 14.2
v -12.8 0.2 14.2
v -12.7 0.1 14.2
v -12.7 0.2 14.2
v 12.7 0.1 14.2
v 12.7 0.2 14.2
v 12.8 0.1 14.2
v 12.8 0.2 14.2
v -12.7 0.1 14.1
v -12.7 0.2 14.1
v -12.6 0.1 14.1
v -12.6 0.2 14.1
v 12.6 0.1 14.1
v 12.6 0.2 14.1
v 12.7 0.1 14.1
v 12.7 0.2 14.1
v -12.6 0.1 14
v -12.6 0.2 14
v -12.5 0.1 14
v -12.5 0.2 14
v 12.5 0.1 14
v 12.5 0.2 14
v 12.6 0.1 14
v 12.6 0.2 14
v -12.5 0.1 13.9
v -12.5 0.2 13.9
v -12.4 0.1 13.9
v -12.4 0.2 13.9
v 12.4 0.1 13.9
v 12.4 0.2 13.9
v 12.5 0.1 13.9
v 12.5 0.2 13.9
v -12.4 0.1 13.8
v -12.4 0.2 13.8
v -12.3 0.1 13.8
v -12.3 0.2 13.8
v 12.3 0.1 13.8
v 12.3 0.2 13.8
v 12.4 0.1 13.8
v 12.4 0.2 13.8
v -12.3 0.1 13.7
v -12.3 0.2 13.7
v -12.2 0.1 13.7
v -12.2 0.2 13.7
v 12.2 0.1 13.7
v 12.2 0.2 13.7
v 12.3 0.1 13.7
v 12.3 0.2 13.7
v -12.2 0.1 13.6
v -12.2 0.2 13.6
v -12.1 0.1 13.6
v -12.1 0.2 13.6
v 12.1 0.1 13.6
v 12.1 0.2 13.6
v 12.2 0.1 13.6
v 12.2 0.2 13.6
v -12.1 0.1 13.5
v -12.1 0.2 13.5
v -12 0.1 13.5
v -12 0.2 13.5
v 12 0.1 13.5
v 12 0.2 13.5
v 12.1 0.1 13.5
v 12.1 0.2 13.5
v -12 0.1 13.4
v -12 0.2 13.4
v -11.9 0.1 13.4
v -11.9 0.2 13.4
v 11.9 0.1 13.4
v 11.9 0.2 13.4
v 12 0.1 13.4
v 12 0.2 13.4
v -11.9 0.1 13.3
v -11.9 0.2 13.3
v -11.8 0.1 13.3
v -11.8 0.2 13.3
v 11.8 0.1 13.3
v 11.8 0.2 13.3
v 11.9 0.1 13.3
v 11.9 0.2 13.3
v -11.8 0.1 13.2
v -11.8 0.2 13.2
v -11.7 0.1 13.2
v -11.7 0.2 13.2
v 11.7 0.1 13.2
v 11.7 0.2 13.2
v 11.8 0.1 13.2
v 11.8 0.2 13.2
v -11.7 0.1 13.1
v -11.7 0.2 13.1
v -11.6 0.1 13.1
v -11.6 0.2 13.1
v 11.6 0.1 13.1
v 11.6 0.2 13.1
v 11.7 0.1 13.1
v 11.7 0.2 13.1
v -11.6 0.1 13
v -11.6 0.2 13
v -11.5 0.1 13
v -11.5 0.2 13
v 11.5 0.1 13
v 11.5 0.2 13
v 11.6 0.1 13
v 11.6 0.2 13
v -11.5 0.1 12.9
v -11.5 0.2 12.9
v -11.4 0.1 12.9
v -11.4 0.2 12.9
v 11.4 0.1 12.9
v 11.4 0.2 12.9
v 11.5 0.1 12.9
v 11.5 0.2 12.9
v -12.8 0 12.8
v -12.8 0.2 12.8
v -11.4 0 12.8
v -11.4 0.1 12.8
v -11.4 0.2 12.8
v -1 0 12.8
v -1 0.1 12.8
v -1 0.2 12.8
v 1 0 12.8
v 1 0.1 12.8
v 1 0.2 12.8
v 11.4 0 12.8
v 11.4 0.1 12.8
v 11.4 0.2 12.8
v 12.8 0 12.8
v 12.8 0.2 12.8
v -12.8 0 38.4
v -1 0 38.4
v 1 0 38.4
v 12.8 0 38.4
v -12.8 0 14.2
v -12.7 0 14.2
v 12.7 0 14.2
v 12.8 0 14.2
v -12.7 0 14.1
v -12.6 0 14.1
v 12.6 0 14.1
v 12.7 0 14.1
v -12.6 0 14
v -12.5 0 14
v 12.5 0 14
v 12.6 0 14
v -12.5 0 13.9
v -12.4 0 13.9
v 12.4 0 13.9
v 12.5 0 13.9
v -12.4 0 13.8
v -12.3 0 13.8
v 12.3 0 13.8
v 12.4 0 13.8
v -12.3 0 13.7
v -12.2 0 13.7
v 12.2 0 13.7
v 12.3 0 13.7
v -12.2 0 13.6
v -12.1 0 13.6
v 12.1 0 13.6
v 12.2 0 13.6
v -12.1 0 13.5
v -12 0 13.5
v 12 0 13.5
v 12.1 0 13.5
v -12 0 13.4
v -11.9 0 13.4
v 11.9 0 13.4
v 12 0 13.4
v -11.9 0 13.3
v -11.8 0 13.3
v 11.8 0 13.3
v 11.9 0 13.3
v -11.8 0 13.2
v -11.7 0 13.2
v 11.7 0 13.2
v 11.8 0 13.2
v -11.7 0 13.1
v -11.6 0 13.1
v 11.6 0 13.1
v 11.7 0 13.1
v -11.6 0 13
v -11.5 0 13
v 11.5 0 13
v 11.6 0 13
v -11.5 0 12.9
v -11.4 0 12.9
v 11.4 0 12.9
v 11.5 0 12.9
v -12.8 0 12.8
v -11.4 0 12.8
v -1 0 12.8
v 1 0 12.8
v 11.4 0 12.8
v 12.8 0 12.8
v -12.8 0.1 38.4
v -1 0.1 38.4
v 1 0.1 38.4
v 12.8 0.1 38.4
v -12.8 0.1 14.2
v -12.7 0.1 14.2
v 12.7 0.1 14.2
v 12.8 0.1 14.2
v -12.7 0.1 14.1
v -12.6 0.1 14.1
v 12.6 0.1 14.1
v 12.7 0.1 14.1
v -12.6 0.1 14
v -12.5 0.1 14
v 12.5 0.1 14
v 12.6 0.1 14
v -12.5 0.1 13.9
v -12.4 0.1 13.9
v 12.4 0.1 13.9
v 12.5 0.1 13.9
v -12.4 0.1 13.8
v -12.3 0.1 13.8
v 12.3 0.1 13.8
v 12.4 0.1 13.8
v -12.3 0.1 13.7
v -12.2 0.1 13.7
v 12.2 0.1 13.7
v 12.3 0.1 13.7
v -12.2 0.1 13.6
v -12.1 0.1 13.6
v 12.1 0.1 13.6
v 12.2 0.1 13.6
v -12.1 0.1 13.5
v -12 0.1 13.5
v 12 0.1 13.5
v 12.1 0.1 13.5
v -12 0.1 13.4
v -11.9 0.1 13.4
v 11.9 0.1 13.4
v 12 0.1 13.4
v -11.9 0.1 13.3
v -11.8 0.1 13.3
v 11.8 0.1 13.3
v 11.9 0.1 13.3
v -11.8 0.1 13.2
v -11.7 0.1 13.2
v 11.7 0.1 13.2
v 11.8 0.1 13.2
v -11.7 0.1 13.1
v -11.6 0.1 13.1
v 11.6 0.1 13.1
v 11.7 0.1 13.1
v -11.6 0.1 13
v -11.5 0.1 13
v 11.5 0.1 13
v 11.6 0.1 13
v -11.5 0.1 12.9
v -11.4 0.1 12.9
v 11.4 0.1 12.9
v 11.5 0.1 12.9
v -11.4 0.1 12.8
v -1 0.1 12.8
v 1 0.1 12.8
v 11.4 0.1 12.8
v -1 0.2 38.4
v 1 0.2 38.4
v -12.8 0.2 14.2
v -12.7 0.2 14.2
v 12.7 0.2 14.2
v 12.8 0.2 14.2
v -12.7 0.2 14.1
v -12.6 0.2 14.1
v 12.6 0.2 14.1
v 12.7 0.2 14.1
v -12.6 0.2 14
v -12.5 0.2 14
v 12.5 0.2 14
v 12.6 0.2 14
v -12.5 0.2 13.9
v -12.4 0.2 13.9
v 12.4 0.2 13.9
v 12.5 0.2 13.9
v -12.4 0.2 13.8
v -12.3 0.2 13.8
v 12.3 0.2 13.8
v 12.4 0.2 13.8
v -12.3 0.2 13.7
v -12.2 0.2 13.7
v 12.2 0.2 13.7
v 12.3 0.2 13.7
v -12.2 0.2 13.6
v -12.1 0.2 13.6
v 12.1 0.2 13.6
v 12.2 0.2 13.6
v -12.1 0.2 13.5
v -12 0.2 13.5
v 12 0.2 13.5
v 12.1 0.2 13.5
v -12 0.2 13.4
v -11.9 0.2 13.4
v 11.9 0.2 13.4
v 12 0.2 13.4
v -11.9 0.2 13.3
v -11.8 0.2 13.3
v 11.8 0.2 13.3
v 11.9 0.2 13.3
v -11.8 0.2 13.2
v -11.7 0.2 13.2
v 11.7 0.2 13.2
v 11.8 0.2 13.2
v -11.7 0.2 13.1
v -11.6 0.2 13.1
v 11.6 0.2 13.1
v 11.7 0.2 13.1
v -11.6 0.2 13
v -11.5 0.2 13
v 11.5 0.2 13
v 11.6 0.2 13
v -11.5 0.2 12.9
v -11.4 0.2 12.9
v 11.4 0.2 12.9
v 11.5 0.2 12.9
v -12.8 0.2 12.8
v -11.4 0.2 12.8
v -1 0.2 12.8
v 1 0.2 12.8
v 11.4 0.2 12.8
v 12.8 0.2 12.8

# faces
f 4/1/1 2/1/1 1/1/1
f 5/2/1 3/2/1 2/2/1
f 5/1/1 2/1/1 4/1/1
f 6/2/1 3/2/1 5/2/1
f 7/2/1 3/2/1 6/2/1
f 10/2/1 9/2/1 8/2/1
f 11/2/1 9/2/1 10/2/1
f 14/2/1 13/2/1 12/2/1
f 15/2/1 13/2/1 14/2/1
f 18/2/1 17/2/1 16/2/1
f 19/2/1 17/2/1 18/2/1
f 22/2/1 21/2/1 20/2/1
f 23/2/1 21/2/1 22/2/1
f 26/2/1 25/2/1 24/2/1
f 27/2/1 25/2/1 26/2/1
f 30/2/1 29/2/1 28/2/1
f 31/2/1 29/2/1 30/2/1
f 34/2/1 33/2/1 32/2/1
f 35/2/1 33/2/1 34/2/1
f 38/2/1 37/2/1 36/2/1
f 39/2/1 37/2/1 38/2/1
f 42/2/1 41/2/1 40/2/1
f 43/2/1 41/2/1 42/2/1
f 46/2/1 45/2/1 44/2/1
f 47/2/1 45/2/1 46/2/1
f 50/2/1 49/2/1 48/2/1
f 51/2/1 49/2/1 50/2/1
f 54/2/1 53/2/1 52/2/1
f 55/2/1 53/2/1 54/2/1
f 58/2/1 57/2/1 56/2/1
f 59/2/1 57/2/1 58/2/1
f 62/2/1 61/2/1 60/2/1
f 63/2/1 61/2/1 62/2/1
f 66/2/1 65/2/1 64/2/1
f 67/2/1 65/2/1 66/2/1
f 68/2/2 69/2/2 70/2/2
f 70/2/2 69/2/2 71/2/2
f 72/2/2 73/2/2 74/2/2
f 74/2/2 73/2/2 75/2/2
f 76/2/2 77/2/2 78/2/2
f 78/2/2 77/2/2 79/2/2
f 80/2/2 81/2/2 82/2/2
f 82/2/2 81/2/2 83/2/2
f 84/2/2 85/2/2 86/2/2
f 86/2/2 85/2/2 87/2/2
f 88/2/2 89/2/2 90/2/2
f 90/2/2 89/2/2 91/2/2
f 92/2/2 93/2/2 94/2/2
f 94/2/2 93/2/2 95/2/2
f 96/2/2 97/2/2 98/2/2
f 98/2/2 97/2/2 99/2/2
f 100/2/2 101/2/2 102/2/2
f 102/2/2 101/2/2 103/2/2
f 104/2/2 105/2/2 106/2/2
f 106/2/2 105/2/2 107/2/2
f 108/2/2 109/2/2 110/2/2
f 110/2/2 109/2/2 111/2/2
f 112/2/2 113/2/2 114/2/2
f 114/2/2 113/2/2 115/2/2
f 116/2/2 117/2/2 118/2/2
f 118/2/2 117/2/2 119/2/2
f 120/2/2 121/2/2 122/2/2
f 122/2/2 121/2/2 123/2/2
f 124/2/2 125/2/2 126/2/2
f 126/2/2 125/2/2 127/2/2
f 128/1/2 129/1/2 131/1/2
f 129/2/2 130/2/2 132/2/2
f 131/1/2 129/1/2 132/1/2
f 132/2/2 130/2/2 133/2/2
f 133/2/2 130/2/2 134/2/2
f 137/1/3 136/1/3 135/1/3
f 138/1/3 136/1/3 137/1/3
f 140/2/3 138/2/3 137/2/3
f 140/2/3 139/2/3 138/2/3
f 141/2/3 139/2/3 140/2/3
f 142/2/3 139/2/3 141/2/3
f 143/1/3 141/1/3 140/1/3
f 144/1/3 141/1/3 143/1/3
f 147/2/3 146/2/3 145/2/3
f 148/2/3 146/2/3 147/2/3
f 151/2/3 150/2/3 149/2/3
f 152/2/3 150/2/3 151/2/3
f 155/2/3 154/2/3 153/2/3
f 156/2/3 154/2/3 155/2/3
f 159/2/3 158/2/3 157/2/3
f 160/2/3 158/2/3 159/2/3
f 163/2/3 162/2/3 161/2/3
f 164/2/3 162/2/3 163/2/3
f 167/2/3 166/2/3 165/2/3
f 168/2/3 166/2/3 167/2/3
f 171/2/3 170/2/3 169/2/3
f 172/2/3 170/2/3 171/2/3
f 175/2/3 174/2/3 173/2/3
f 176/2/3 174/2/3 175/2/3
f 179/2/3 178/2/3 177/2/3
f 180/2/3 178/2/3 179/2/3
f 183/2/3 182/2/3 181/2/3
f 184/2/3 182/2/3 183/2/3
f 187/2/3 186/2/3 185/2/3
f 188/2/3 186/2/3 187/2/3
f 191/2/3 190/2/3 189/2/3
f 192/2/3 190/2/3 191/2/3
f 195/2/3 194/2/3 193/2/3
f 196/2/3 194/2/3 195/2/3
f 199/2/3 198/2/3 197/2/3
f 200/2/3 198/2/3 199/2/3
f 203/2/3 202/2/3 201/2/3
f 204/2/3 202/2/3 203/2/3
f 207/2/3 206/2/3 205/2/3
f 208/2/3 206/2/3 207/2/3
f 211/2/3 210/2/3 209/2/3
f 212/2/3 210/2/3 211/2/3
f 215/2/3 214/2/3 213/2/3
f 216/2/3 214/2/3 215/2/3
f 219/2/3 218/2/3 217/2/3
f 220/2/3 218/2/3 219/2/3
f 223/2/3 222/2/3 221/2/3
f 224/2/3 222/2/3 223/2/3
f 227/2/3 226/2/3 225/2/3
f 228/2/3 226/2/3 227/2/3
f 231/2/3 230/2/3 229/2/3
f 232/2/3 230/2/3 231/2/3
f 235/2/3 234/2/3 233/2/3
f 236/2/3 234/2/3 235/2/3
f 239/2/3 238/2/3 237/2/3
f 240/2/3 238/2/3 239/2/3
f 243/2/3 242/2/3 241/2/3
f 244/2/3 242/2/3 243/2/3
f 247/2/3 246/2/3 245/2/3
f 248/2/3 246/2/3 247/2/3
f 251/2/3 250/2/3 249/2/3
f 252/2/3 250/2/3 251/2/3
f 255/2/3 254/2/3 253/2/3
f 256/2/3 254/2/3 255/2/3
f 257/2/4 258/2/4 259/2/4
f 259/2/4 258/2/4 260/2/4
f 260/2/4 258/2/4 261/2/4
f 259/1/4 260/1/4 262/1/4
f 262/1/4 260/1/4 263/1/4
f 262/2/4 263/2/4 265/2/4
f 263/2/4 264/2/4 265/2/4
f 265/2/4 264/2/4 266/2/4
f 266/2/4 264/2/4 267/2/4
f 265/1/4 266/1/4 268/1/4
f 268/1/4 266/1/4 269/1/4
f 268/2/4 269/2/4 271/2/4
f 269/2/4 270/2/4 271/2/4
f 271/2/4 270/2/4 272/2/4
f 277/1/5 274/1/5 273/1/5
f 278/1/5 274/1/5 277/1/5
f 279/1/5 276/1/5 275/1/5
f 280/1/5 276/1/5 279/1/5
f 281/1/5 274/1/5 278/1/5
f 281/2/5 278/2/5 277/2/5
f 282/1/5 274/1/5 281/1/5
f 283/1/5 279/1/5 275/1/5
f 284/2/5 280/2/5 279/2/5
f 284/1/5 279/1/5 283/1/5
f 285/1/5 274/1/5 282/1/5
f 285/2/5 282/2/5 281/2/5
f 286/1/5 274/1/5 285/1/5
f 287/1/5 283/1/5 275/1/5
f 288/2/5 284/2/5 283/2/5
f 288/1/5 283/1/5 287/1/5
f 289/1/5 274/1/5 286/1/5
f 289/2/5 286/2/5 285/2/5
f 290/1/5 274/1/5 289/1/5
f 291/1/5 287/1/5 275/1/5
f 292/2/5 288/2/5 287/2/5
f 292/1/5 287/1/5 291/1/5
f 293/1/5 274/1/5 290/1/5
f 293/2/5 290/2/5 289/2/5
f 294/1/5 274/1/5 293/1/5
f 295/1/5 291/1/5 275/1/5
f 296/2/5 292/2/5 291/2/5
f 296/1/5 291/1/5 295/1/5
f 297/1/5 274/1/5 294/1/5
f 297/2/5 294/2/5 293/2/5
f 298/1/5 274/1/5 297/1/5
f 299/1/5 295/1/5 275/1/5
f 300/2/5 296/2/5 295/2/5
f 300/1/5 295/1/5 299/1/5
f 301/1/5 274/1/5 298/1/5
f 301/2/5 298/2/5 297/2/5
f 302/1/5 274/1/5 301/1/5
f 303/1/5 299/1/5 275/1/5
f 304/2/5 300/2/5 299/2/5
f 304/1/5 299/1/5 303/1/5
f 305/1/5 274/1/5 302/1/5
f 305/2/5 302/2/5 301/2/5
f 306/1/5 274/1/5 305/1/5
f 307/1/5 303/1/5 275/1/5
f 308/2/5 304/2/5 303/2/5
f 308/1/5 303/1/5 307/1/5
f 309/1/5 274/1/5 306/1/5
f 309/2/5 306/2/5 305/2/5
f 310/1/5 274/1/5 309/1/5
f 311/1/5 307/1/5 275/1/5
f 312/2/5 308/2/5 307/2/5
f 312/1/5 307/1/5 311/1/5
f 313/1/5 274/1/5 310/1/5
f 313/2/5 310/2/5 309/2/5
f 314/1/5 274/1/5 313/1/5
f 315/1/5 311/1/5 275/1/5
f 316/2/5 312/2/5 311/2/5
f 316/1/5 311/1/5 315/1/5
f 317/1/5 274/1/5 314/1/5
f 317/2/5 314/2/5 313/2/5
f 318/1/5 274/1/5 317/1/5
f 319/1/5 315/1/5 275/1/5
f 320/2/5 316/2/5 315/2/5
f 320/1/5 315/1/5 319/1/5
f 321/1/5 274/1/5 318/1/5
f 321/2/5 318/2/5 317/2/5
f 322/1/5 274/1/5 321/1/5
f 323/1/5 319/1/5 275/1/5
f 324/2/5 320/2/5 319/2/5
f 324/1/5 319/1/5 323/1/5
f 325/1/5 274/1/5 322/1/5
f 325/2/5 322/2/5 321/2/5
f 326/1/5 274/1/5 325/1/5
f 327/1/5 323/1/5 275/1/5
f 328/2/5 324/2/5 323/2/5
f 328/1/5 323/1/5 327/1/5
f 329/1/5 274/1/5 326/1/5
f 329/2/5 326/2/5 325/2/5
f 330/1/5 274/1/5 329/1/5
f 331/1/5 327/1/5 275/1/5
f 332/2/5 328/2/5 327/2/5
f 332/1/5 327/1/5 331/1/5
f 333/2/5 281/2/5 277/2/5
f 333/2/5 285/2/5 281/2/5
f 333/2/5 289/2/5 285/2/5
f 333/2/5 330/2/5 329/2/5
f 333/2/5 329/2/5 325/2/5
f 333/2/5 293/2/5 289/2/5
f 333/2/5 325/2/5 321/2/5
f 333/2/5 297/2/5 293/2/5
f 333/2/5 321/2/5 317/2/5
f 333/2/5 301/2/5 297/2/5
f 333/2/5 317/2/5 313/2/5
f 333/2/5 305/2/5 301/2/5
f 333/2/5 313/2/5 309/2/5
f 333/2/5 309/2/5 305/2/5
f 334/1/5 274/1/5 330/1/5
f 334/2/5 330/2/5 333/2/5
f 335/2/5 275/2/5 274/2/5
f 335/1/5 274/1/5 334/1/5
f 336/1/5 331/1/5 275/1/5
f 336/2/5 275/2/5 335/2/5
f 337/2/5 332/2/5 331/2/5
f 337/1/5 331/1/5 336/1/5
f 338/2/5 284/2/5 288/2/5
f 338/2/5 332/2/5 337/2/5
f 338/2/5 280/2/5 284/2/5
f 338/2/5 312/2/5 316/2/5
f 338/2/5 316/2/5 320/2/5
f 338/2/5 308/2/5 312/2/5
f 338/2/5 320/2/5 324/2/5
f 338/2/5 304/2/5 308/2/5
f 338/2/5 324/2/5 328/2/5
f 338/2/5 300/2/5 304/2/5
f 338/2/5 328/2/5 332/2/5
f 338/2/5 296/2/5 300/2/5
f 338/2/5 288/2/5 292/2/5
f 338/2/5 292/2/5 296/2/5
f 339/1/6 340/1/6 343/1/6
f 343/1/6 340/1/6 344/1/6
f 341/1/6 342/1/6 345/1/6
f 345/1/6 342/1/6 346/1/6
f 344/1/6 340/1/6 347/1/6
f 347/1/6 340/1/6 348/1/6
f 341/1/6 345/1/6 349/1/6
f 349/1/6 345/1/6 350/1/6
f 348/1/6 340/1/6 351/1/6
f 351/1/6 340/1/6 352/1/6
f 341/1/6 349/1/6 353/1/6
f 353/1/6 349/1/6 354/1/6
f 352/1/6 340/1/6 355/1/6
f 355/1/6 340/1/6 356/1/6
f 341/1/6 353/1/6 357/1/6
f 357/1/6 353/1/6 358/1/6
f 356/1/6 340/1/6 359/1/6
f 359/1/6 340/1/6 360/1/6
f 341/1/6 357/1/6 361/1/6
f 361/1/6 357/1/6 362/1/6
f 360/1/6 340/1/6 363/1/6
f 363/1/6 340/1/6 364/1/6
f 341/1/6 361/1/6 365/1/6
f 365/1/6 361/1/6 366/1/6
f 364/1/6 340/1/6 367/1/6
f 367/1/6 340/1/6 368/1/6
f 341/1/6 365/1/6 369/1/6
f 369/1/6 365/1/6 370/1/6
f 368/1/6 340/1/6 371/1/6
f 371/1/6 340/1/6 372/1/6
f 341/1/6 369/1/6 373/1/6
f 373/1/6 369/1/6 374/1/6
f 372/1/6 340/1/6 375/1/6
f 375/1/6 340/1/6 376/1/6
f 341/1/6 373/1/6 377/1/6
f 377/1/6 373/1/6 378/1/6
f 376/1/6 340/1/6 379/1/6
f 379/1/6 340/1/6 380/1/6
f 341/1/6 377/1/6 381/1/6
f 381/1/6 377/1/6 382/1/6
f 380/1/6 340/1/6 383/1/6
f 383/1/6 340/1/6 384/1/6
f 341/1/6 381/1/6 385/1/6
f 385/1/6 381/1/6 386/1/6
f 384/1/6 340/1/6 387/1/6
f 387/1/6 340/1/6 388/1/6
f 341/1/6 385/1/6 389/1/6
f 389/1/6 385/1/6 390/1/6
f 388/1/6 340/1/6 391/1/6
f 391/1/6 340/1/6 392/1/6
f 341/1/6 389/1/6 393/1/6
f 393/1/6 389/1/6 394/1/6
f 392/1/6 340/1/6 395/1/6
f 395/1/6 340/1/6 396/1/6
f 341/1/6 393/1/6 397/1/6
f 397/1/6 393/1/6 398/1/6
f 396/1/6 340/1/6 399/1/6
f 399/1/6 340/1/6 400/1/6
f 341/1/6 397/1/6 401/1/6
f 401/1/6 397/1/6 402/1/6
f 405/2/6 406/2/6 409/2/6
f 407/2/6 408/2/6 412/2/6
f 409/2/6 410/2/6 413/2/6
f 411/2/6 412/2/6 416/2/6
f 413/2/6 414/2/6 417/2/6
f 415/2/6 416/2/6 420/2/6
f 417/2/6 418/2/6 421/2/6
f 419/2/6 420/2/6 424/2/6
f 421/2/6 422/2/6 425/2/6
f 423/2/6 424/2/6 428/2/6
f 425/2/6 426/2/6 429/2/6
f 427/2/6 428/2/6 432/2/6
f 429/2/6 430/2/6 433/2/6
f 431/2/6 432/2/6 436/2/6
f 433/2/6 434/2/6 437/2/6
f 435/2/6 436/2/6 440/2/6
f 437/2/6 438/2/6 441/2/6
f 439/2/6 440/2/6 444/2/6
f 441/2/6 442/2/6 445/2/6
f 443/2/6 444/2/6 448/2/6
f 445/2/6 446/2/6 449/2/6
f 447/2/6 448/2/6 452/2/6
f 449/2/6 450/2/6 453/2/6
f 451/2/6 452/2/6 456/2/6
f 453/2/6 454/2/6 457/2/6
f 455/2/6 456/2/6 460/2/6
f 457/2/6 458/2/6 461/2/6
f 405/2/6 409/2/6 461/2/6
f 409/2/6 413/2/6 461/2/6
f 413/2/6 417/2/6 461/2/6
f 453/2/6 457/2/6 461/2/6
f 417/2/6 421/2/6 461/2/6
f 421/2/6 425/2/6 461/2/6
f 449/2/6 453/2/6 461/2/6
f 425/2/6 429/2/6 461/2/6
f 429/2/6 433/2/6 461/2/6
f 445/2/6 449/2/6 461/2/6
f 433/2/6 437/2/6 461/2/6
f 437/2/6 441/2/6 461/2/6
f 441/2/6 445/2/6 461/2/6
f 461/2/6 458/2/6 462/2/6
f 403/2/6 404/2/6 463/2/6
f 463/2/6 404/2/6 464/2/6
f 459/2/6 460/2/6 465/2/6
f 460/2/6 456/2/6 466/2/6
f 465/2/6 460/2/6 466/2/6
f 412/2/6 408/2/6 466/2/6
f 416/2/6 412/2/6 466/2/6
f 456/2/6 452/2/6 466/2/6
f 420/2/6 416/2/6 466/2/6
f 444/2/6 440/2/6 466/2/6
f 440/2/6 436/2/6 466/2/6
f 424/2/6 420/2/6 466/2/6
f 452/2/6 448/2/6 466/2/6
f 436/2/6 432/2/6 466/2/6
f 428/2/6 424/2/6 466/2/6
f 448/2/6 444/2/6 466/2/6
f 432/2/6 428/2/6 466/2/6
