# MagicaVoxel @ Ephtracy

# group
o 

# material
mtllib shadow-6.mtl
usemtl palette

# normals
vn -1 0 0
vn 1 0 0
vn 0 0 1
vn 0 0 -1
vn 0 -1 0
vn 0 1 0

# texcoords
vt 0.943359 0.5
vt 0.947266 0.5

# verts
v -12.8 0 -12.8
v -12.8 0 -38.4
v -12.8 0.1 -12.8
v -12.8 0.1 -38.4
v -1 0.1 -12.8
v -1 0.1 -38.4
v -1 0.2 -12.8
v -1 0.2 -38.4
v 11.4 0.1 -12.8
v 11.4 0.1 -12.9
v 11.4 0.2 -12.8
v 11.4 0.2 -12.9
v 11.5 0.1 -12.9
v 11.5 0.1 -13
v 11.5 0.2 -12.9
v 11.5 0.2 -13
v 11.6 0.1 -13
v 11.6 0.1 -13.1
v 11.6 0.2 -13
v 11.6 0.2 -13.1
v 11.7 0.1 -13.1
v 11.7 0.1 -13.2
v 11.7 0.2 -13.1
v 11.7 0.2 -13.2
v 11.8 0.1 -13.2
v 11.8 0.1 -13.3
v 11.8 0.2 -13.2
v 11.8 0.2 -13.3
v 11.9 0.1 -13.3
v 11.9 0.1 -13.4
v 11.9 0.2 -13.3
v 11.9 0.2 -13.4
v 12 0.1 -13.4
v 12 0.1 -13.5
v 12 0.2 -13.4
v 12 0.2 -13.5
v 12.1 0.1 -13.5
v 12.1 0.1 -13.6
v 12.1 0.2 -13.5
v 12.1 0.2 -13.6
v 12.2 0.1 -13.6
v 12.2 0.1 -13.7
v 12.2 0.2 -13.6
v 12.2 0.2 -13.7
v 12.3 0.1 -13.7
v 12.3 0.1 -13.8
v 12.3 0.2 -13.7
v 12.3 0.2 -13.8
v 12.4 0.1 -13.8
v 12.4 0.1 -13.9
v 12.4 0.2 -13.8
v 12.4 0.2 -13.9
v 12.5 0.1 -13.9
v 12.5 0.1 -14
v 12.5 0.2 -13.9
v 12.5 0.2 -14
v 12.6 0.1 -14
v 12.6 0.1 -14.1
v 12.6 0.2 -14
v 12.6 0.2 -14.1
v 12.7 0.1 -14.1
v 12.7 0.1 -14.2
v 12.7 0.2 -14.1
v 12.7 0.2 -14.2
v 1 0.1 -12.8
v 1 0.1 -38.4
v 1 0.2 -12.8
v 1 0.2 -38.4
v 12.8 0 -12.8
v 12.8 0 -14.2
v 12.8 0 -38.4
v 12.8 0.1 -14.2
v 12.8 0.1 -38.4
v 12.8 0.2 -12.8
v 12.8 0.2 -14.2
v -12.8 0 -12.8
v -12.8 0.1 -12.8
v -1 0 -12.8
v -1 0.1 -12.8
v -1 0.2 -12.8
v 1 0 -12.8
v 1 0.1 -12.8
v 1 0.2 -12.8
v 11.4 0 -12.8
v 11.4 0.1 -12.8
v 11.4 0.2 -12.8
v 12.8 0 -12.8
v 12.8 0.2 -12.8
v 11.4 0.1 -12.9
v 11.4 0.2 -12.9
v 11.5 0.1 -12.9
v 11.5 0.2 -12.9
v 11.5 0.1 -13
v 11.5 0.2 -13
v 11.6 0.1 -13
v 11.6 0.2 -13
v 11.6 0.1 -13.1
v 11.6 0.2 -13.1
v 11.7 0.1 -13.1
v 11.7 0.2 -13.1
v 11.7 0.1 -13.2
v 11.7 0.2 -13.2
v 11.8 0.1 -13.2
v 11.8 0.2 -13.2
v 11.8 0.1 -13.3
v 11.8 0.2 -13.3
v 11.9 0.1 -13.3
v 11.9 0.2 -13.3
v 11.9 0.1 -13.4
v 11.9 0.2 -13.4
v 12 0.1 -13.4
v 12 0.2 -13.4
v 12 0.1 -13.5
v 12 0.2 -13.5
v 12.1 0.1 -13.5
v 12.1 0.2 -13.5
v 12.1 0.1 -13.6
v 12.1 0.2 -13.6
v 12.2 0.1 -13.6
v 12.2 0.2 -13.6
v 12.2 0.1 -13.7
v 12.2 0.2 -13.7
v 12.3 0.1 -13.7
v 12.3 0.2 -13.7
v 12.3 0.1 -13.8
v 12.3 0.2 -13.8
v 12.4 0.1 -13.8
v 12.4 0.2 -13.8
v 12.4 0.1 -13.9
v 12.4 0.2 -13.9
v 12.5 0.1 -13.9
v 12.5 0.2 -13.9
v 12.5 0.1 -14
v 12.5 0.2 -14
v 12.6 0.1 -14
v 12.6 0.2 -14
v 12.6 0.1 -14.1
v 12.6 0.2 -14.1
v 12.7 0.1 -14.1
v 12.7 0.2 -14.1
v 12.7 0.1 -14.2
v 12.7 0.2 -14.2
v 12.8 0.1 -14.2
v 12.8 0.2 -14.2
v -12.8 0 -38.4
v -12.8 0.1 -38.4
v -1 0 -38.4
v -1 0.1 -38.4
v -1 0.2 -38.4
v 1 0 -38.4
v 1 0.1 -38.4
v 1 0.2 -38.4
v 12.8 0 -38.4
v 12.8 0.1 -38.4
v -12.8 0 -12.8
v -1 0 -12.8
v 1 0 -12.8
v 11.4 0 -12.8
v 12.8 0 -12.8
v 11.4 0 -12.9
v 11.5 0 -12.9
v 11.5 0 -13
v 11.6 0 -13
v 11.6 0 -13.1
v 11.7 0 -13.1
v 11.7 0 -13.2
v 11.8 0 -13.2
v 11.8 0 -13.3
v 11.9 0 -13.3
v 11.9 0 -13.4
v 12 0 -13.4
v 12 0 -13.5
v 12.1 0 -13.5
v 12.1 0 -13.6
v 12.2 0 -13.6
v 12.2 0 -13.7
v 12.3 0 -13.7
v 12.3 0 -13.8
v 12.4 0 -13.8
v 12.4 0 -13.9
v 12.5 0 -13.9
v 12.5 0 -14
v 12.6 0 -14
v 12.6 0 -14.1
v 12.7 0 -14.1
v 12.7 0 -14.2
v 12.8 0 -14.2
v -12.8 0 -38.4
v -1 0 -38.4
v 1 0 -38.4
v 12.8 0 -38.4
v -12.8 0.1 -12.8
v -1 0.1 -12.8
v 1 0.1 -12.8
v 11.4 0.1 -12.8
v 11.4 0.1 -12.9
v 11.5 0.1 -12.9
v 11.5 0.1 -13
v 11.6 0.1 -13
v 11.6 0.1 -13.1
v 11.7 0.1 -13.1
v 11.7 0.1 -13.2
v 11.8 0.1 -13.2
v 11.8 0.1 -13.3
v 11.9 0.1 -13.3
v 11.9 0.1 -13.4
v 12 0.1 -13.4
v 12 0.1 -13.5
v 12.1 0.1 -13.5
v 12.1 0.1 -13.6
v 12.2 0.1 -13.6
v 12.2 0.1 -13.7
v 12.3 0.1 -13.7
v 12.3 0.1 -13.8
v 12.4 0.1 -13.8
v 12.4 0.1 -13.9
v 12.5 0.1 -13.9
v 12.5 0.1 -14
v 12.6 0.1 -14
v 12.6 0.1 -14.1
v 12.7 0.1 -14.1
v 12.7 0.1 -14.2
v 12.8 0.1 -14.2
v -12.8 0.1 -38.4
v -1 0.1 -38.4
v 1 0.1 -38.4
v 12.8 0.1 -38.4
v -1 0.2 -12.8
v 1 0.2 -12.8
v 11.4 0.2 -12.8
v 12.8 0.2 -12.8
v 11.4 0.2 -12.9
v 11.5 0.2 -12.9
v 11.5 0.2 -13
v 11.6 0.2 -13
v 11.6 0.2 -13.1
v 11.7 0.2 -13.1
v 11.7 0.2 -13.2
v 11.8 0.2 -13.2
v 11.8 0.2 -13.3
v 11.9 0.2 -13.3
v 11.9 0.2 -13.4
v 12 0.2 -13.4
v 12 0.2 -13.5
v 12.1 0.2 -13.5
v 12.1 0.2 -13.6
v 12.2 0.2 -13.6
v 12.2 0.2 -13.7
v 12.3 0.2 -13.7
v 12.3 0.2 -13.8
v 12.4 0.2 -13.8
v 12.4 0.2 -13.9
v 12.5 0.2 -13.9
v 12.5 0.2 -14
v 12.6 0.2 -14
v 12.6 0.2 -14.1
v 12.7 0.2 -14.1
v 12.7 0.2 -14.2
v 12.8 0.2 -14.2
v -1 0.2 -38.4
v 1 0.2 -38.4

# faces
f 3/1/1 2/1/1 1/1/1
f 4/1/1 2/1/1 3/1/1
f 7/2/1 6/2/1 5/2/1
f 8/2/1 6/2/1 7/2/1
f 11/2/1 10/2/1 9/2/1
f 12/2/1 10/2/1 11/2/1
f 15/2/1 14/2/1 13/2/1
f 16/2/1 14/2/1 15/2/1
f 19/2/1 18/2/1 17/2/1
f 20/2/1 18/2/1 19/2/1
f 23/2/1 22/2/1 21/2/1
f 24/2/1 22/2/1 23/2/1
f 27/2/1 26/2/1 25/2/1
f 28/2/1 26/2/1 27/2/1
f 31/2/1 30/2/1 29/2/1
f 32/2/1 30/2/1 31/2/1
f 35/2/1 34/2/1 33/2/1
f 36/2/1 34/2/1 35/2/1
f 39/2/1 38/2/1 37/2/1
f 40/2/1 38/2/1 39/2/1
f 43/2/1 42/2/1 41/2/1
f 44/2/1 42/2/1 43/2/1
f 47/2/1 46/2/1 45/2/1
f 48/2/1 46/2/1 47/2/1
f 51/2/1 50/2/1 49/2/1
f 52/2/1 50/2/1 51/2/1
f 55/2/1 54/2/1 53/2/1
f 56/2/1 54/2/1 55/2/1
f 59/2/1 58/2/1 57/2/1
f 60/2/1 58/2/1 59/2/1
f 63/2/1 62/2/1 61/2/1
f 64/2/1 62/2/1 63/2/1
f 65/2/2 66/2/2 67/2/2
f 67/2/2 66/2/2 68/2/2
f 69/2/2 70/2/2 72/2/2
f 70/1/2 71/1/2 72/1/2
f 72/1/2 71/1/2 73/1/2
f 69/2/2 72/2/2 74/2/2
f 74/2/2 72/2/2 75/2/2
f 78/1/3 77/1/3 76/1/3
f 79/1/3 77/1/3 78/1/3
f 81/2/3 79/2/3 78/2/3
f 81/2/3 80/2/3 79/2/3
f 82/2/3 80/2/3 81/2/3
f 83/2/3 80/2/3 82/2/3
f 84/1/3 82/1/3 81/1/3
f 85/1/3 82/1/3 84/1/3
f 87/2/3 85/2/3 84/2/3
f 87/2/3 86/2/3 85/2/3
f 88/2/3 86/2/3 87/2/3
f 89/2/4 90/2/4 91/2/4
f 91/2/4 90/2/4 92/2/4
f 93/2/4 94/2/4 95/2/4
f 95/2/4 94/2/4 96/2/4
f 97/2/4 98/2/4 99/2/4
f 99/2/4 98/2/4 100/2/4
f 101/2/4 102/2/4 103/2/4
f 103/2/4 102/2/4 104/2/4
f 105/2/4 106/2/4 107/2/4
f 107/2/4 106/2/4 108/2/4
f 109/2/4 110/2/4 111/2/4
f 111/2/4 110/2/4 112/2/4
f 113/2/4 114/2/4 115/2/4
f 115/2/4 114/2/4 116/2/4
f 117/2/4 118/2/4 119/2/4
f 119/2/4 118/2/4 120/2/4
f 121/2/4 122/2/4 123/2/4
f 123/2/4 122/2/4 124/2/4
f 125/2/4 126/2/4 127/2/4
f 127/2/4 126/2/4 128/2/4
f 129/2/4 130/2/4 131/2/4
f 131/2/4 130/2/4 132/2/4
f 133/2/4 134/2/4 135/2/4
f 135/2/4 134/2/4 136/2/4
f 137/2/4 138/2/4 139/2/4
f 139/2/4 138/2/4 140/2/4
f 141/2/4 142/2/4 143/2/4
f 143/2/4 142/2/4 144/2/4
f 145/1/4 146/1/4 147/1/4
f 147/1/4 146/1/4 148/1/4
f 147/2/4 148/2/4 150/2/4
f 148/2/4 149/2/4 150/2/4
f 150/2/4 149/2/4 151/2/4
f 151/2/4 149/2/4 152/2/4
f 150/1/4 151/1/4 153/1/4
f 153/1/4 151/1/4 154/1/4
f 160/1/5 158/1/5 157/1/5
f 160/2/5 159/2/5 158/2/5
f 161/2/5 159/2/5 160/2/5
f 162/1/5 161/1/5 160/1/5
f 162/2/5 159/2/5 161/2/5
f 163/2/5 159/2/5 162/2/5
f 164/1/5 163/1/5 162/1/5
f 164/2/5 159/2/5 163/2/5
f 165/2/5 159/2/5 164/2/5
f 166/1/5 165/1/5 164/1/5
f 166/2/5 159/2/5 165/2/5
f 167/2/5 159/2/5 166/2/5
f 168/1/5 167/1/5 166/1/5
f 168/2/5 159/2/5 167/2/5
f 169/2/5 159/2/5 168/2/5
f 170/1/5 169/1/5 168/1/5
f 170/2/5 159/2/5 169/2/5
f 171/2/5 159/2/5 170/2/5
f 172/1/5 171/1/5 170/1/5
f 172/2/5 159/2/5 171/2/5
f 173/2/5 159/2/5 172/2/5
f 174/1/5 173/1/5 172/1/5
f 174/2/5 159/2/5 173/2/5
f 175/2/5 159/2/5 174/2/5
f 176/1/5 175/1/5 174/1/5
f 176/2/5 159/2/5 175/2/5
f 177/2/5 159/2/5 176/2/5
f 178/1/5 177/1/5 176/1/5
f 178/2/5 159/2/5 177/2/5
f 179/2/5 159/2/5 178/2/5
f 180/1/5 179/1/5 178/1/5
f 180/2/5 159/2/5 179/2/5
f 181/2/5 159/2/5 180/2/5
f 182/1/5 181/1/5 180/1/5
f 182/2/5 159/2/5 181/2/5
f 183/2/5 159/2/5 182/2/5
f 184/1/5 183/1/5 182/1/5
f 184/2/5 159/2/5 183/2/5
f 185/2/5 159/2/5 184/2/5
f 186/1/5 185/1/5 184/1/5
f 186/2/5 159/2/5 185/2/5
f 187/2/5 159/2/5 186/2/5
f 188/1/5 156/1/5 155/1/5
f 189/2/5 157/2/5 156/2/5
f 189/1/5 156/1/5 188/1/5
f 190/1/5 160/1/5 157/1/5
f 190/2/5 157/2/5 189/2/5
f 190/1/5 162/1/5 160/1/5
f 190/1/5 187/1/5 186/1/5
f 190/1/5 186/1/5 184/1/5
f 190/1/5 184/1/5 182/1/5
f 190/1/5 182/1/5 180/1/5
f 190/1/5 180/1/5 178/1/5
f 190/1/5 178/1/5 176/1/5
f 190/1/5 176/1/5 174/1/5
f 190/1/5 174/1/5 172/1/5
f 190/1/5 172/1/5 170/1/5
f 190/1/5 170/1/5 168/1/5
f 190/1/5 168/1/5 166/1/5
f 190/1/5 166/1/5 164/1/5
f 190/1/5 164/1/5 162/1/5
f 191/1/5 187/1/5 190/1/5
f 194/1/6 195/1/6 196/1/6
f 196/1/6 197/1/6 198/1/6
f 198/1/6 199/1/6 200/1/6
f 200/1/6 201/1/6 202/1/6
f 202/1/6 203/1/6 204/1/6
f 204/1/6 205/1/6 206/1/6
f 206/1/6 207/1/6 208/1/6
f 208/1/6 209/1/6 210/1/6
f 210/1/6 211/1/6 212/1/6
f 212/1/6 213/1/6 214/1/6
f 214/1/6 215/1/6 216/1/6
f 216/1/6 217/1/6 218/1/6
f 218/1/6 219/1/6 220/1/6
f 220/1/6 221/1/6 222/1/6
f 192/1/6 193/1/6 224/1/6
f 224/1/6 193/1/6 225/1/6
f 222/1/6 223/1/6 226/1/6
f 194/1/6 196/1/6 226/1/6
f 196/1/6 198/1/6 226/1/6
f 220/1/6 222/1/6 226/1/6
f 218/1/6 220/1/6 226/1/6
f 216/1/6 218/1/6 226/1/6
f 214/1/6 216/1/6 226/1/6
f 212/1/6 214/1/6 226/1/6
f 210/1/6 212/1/6 226/1/6
f 208/1/6 210/1/6 226/1/6
f 206/1/6 208/1/6 226/1/6
f 204/1/6 206/1/6 226/1/6
f 202/1/6 204/1/6 226/1/6
f 200/1/6 202/1/6 226/1/6
f 198/1/6 200/1/6 226/1/6
f 226/1/6 223/1/6 227/1/6
f 230/2/6 231/2/6 232/2/6
f 232/2/6 231/2/6 233/2/6
f 233/2/6 231/2/6 234/2/6
f 234/2/6 231/2/6 235/2/6
f 235/2/6 231/2/6 236/2/6
f 236/2/6 231/2/6 237/2/6
f 237/2/6 231/2/6 238/2/6
f 238/2/6 231/2/6 239/2/6
f 239/2/6 231/2/6 240/2/6
f 240/2/6 231/2/6 241/2/6
f 241/2/6 231/2/6 242/2/6
f 242/2/6 231/2/6 243/2/6
f 243/2/6 231/2/6 244/2/6
f 244/2/6 231/2/6 245/2/6
f 245/2/6 231/2/6 246/2/6
f 246/2/6 231/2/6 247/2/6
f 247/2/6 231/2/6 248/2/6
f 248/2/6 231/2/6 249/2/6
f 249/2/6 231/2/6 250/2/6
f 250/2/6 231/2/6 251/2/6
f 251/2/6 231/2/6 252/2/6
f 252/2/6 231/2/6 253/2/6
f 253/2/6 231/2/6 254/2/6
f 254/2/6 231/2/6 255/2/6
f 255/2/6 231/2/6 256/2/6
f 256/2/6 231/2/6 257/2/6
f 257/2/6 231/2/6 258/2/6
f 258/2/6 231/2/6 259/2/6
f 228/2/6 229/2/6 260/2/6
f 260/2/6 229/2/6 261/2/6
